<svg width="27" height="27" viewBox="0 0 27 27" fill="none" xmlns="http://www.w3.org/2000/svg">
<g clip-path="url(#clip0_9_102)">
<path fill-rule="evenodd" clip-rule="evenodd" d="M24.2469 12.2436L20.6622 18.3087L20.3022 24.1695L3.22562 14.5404L8.2422 11.3058L11.8278 5.2398C13.8078 1.8909 18.1935 0.742463 21.6216 2.67746C25.0515 4.61066 26.2269 8.89379 24.2469 12.2436ZM9.5229 23.1462C8.2368 22.4208 7.79581 20.8152 8.53831 19.5588L13.1958 22.185C12.4533 23.4414 10.809 23.8707 9.5229 23.1462ZM22.5189 1.16009C18.2322 -1.25641 12.7503 0.177263 10.2753 4.36496L6.6906 10.4301L0.000915527 14.7447L6.98671 18.684C5.74921 20.7774 6.4827 23.454 8.6265 24.6618C10.7703 25.8714 13.5108 25.1541 14.7483 23.0607L21.7332 27L22.2147 19.1835L25.7994 13.1184C28.2744 8.93157 26.8056 3.57839 22.5189 1.16009Z" fill="#00707E"/>
</g>
<defs>
<clipPath id="clip0_9_102">
<rect width="27" height="27" fill="white"/>
</clipPath>
</defs>
</svg>
