<svg width="27" height="27" viewBox="0 0 27 27" fill="none" xmlns="http://www.w3.org/2000/svg">
<path d="M11.25 10.125H19.125H11.25ZM11.25 14.625H19.125H11.25ZM7.875 10.125H7.88625H7.875ZM7.875 14.625H7.88625H7.875ZM23.625 22.5L19.8852 20.63C19.6017 20.4883 19.4599 20.4174 19.3113 20.3675C19.1795 20.3231 19.0437 20.2911 18.9059 20.2717C18.7506 20.25 18.5921 20.25 18.2752 20.25H6.975C5.71488 20.25 5.08482 20.25 4.60352 20.0047C4.18015 19.7891 3.83595 19.4448 3.62024 19.0215C3.375 18.5402 3.375 17.9101 3.375 16.65V8.1C3.375 6.83988 3.375 6.20982 3.62024 5.72852C3.83595 5.30515 4.18015 4.96095 4.60352 4.74524C5.08482 4.5 5.71489 4.5 6.975 4.5H20.025C21.2851 4.5 21.9152 4.5 22.3965 4.74524C22.8198 4.96095 23.1641 5.30515 23.3797 5.72852C23.625 6.20982 23.625 6.83989 23.625 8.1V22.5Z" fill="#F7EFB3" fill-opacity="0.5"/>
</svg>
