<svg width="311" height="294" viewBox="0 0 311 294" fill="none" xmlns="http://www.w3.org/2000/svg">
<path d="M272.163 61.6501L270.637 59.0318C257.75 36.9634 234.504 23.6561 210.008 25.2674C206.851 25.4683 203.714 25.9155 200.622 26.6053C178.336 31.5757 158.943 49.1269 150.897 71.6125C146.167 84.8335 144.848 100.054 135.876 110.549C124.198 124.216 104.377 124.64 86.953 124.072C69.5286 123.504 49.6595 123.986 38.0709 137.703C30.7918 146.291 28.4851 158.498 29.0928 170C30.6467 200.448 51.0131 227.674 76.9183 241.212C102.823 254.749 133.3 255.957 161.664 250.009C201.375 241.672 239.152 218.762 261.852 183.393C284.553 148.025 290.306 99.8311 272.163 61.6501Z" fill="#F5F5F5"/>
<path d="M44.4008 48.9615C44.4295 49.0231 44.4504 49.0884 44.463 49.1557L44.6149 49.7311C44.6915 50.0484 44.7861 50.3606 44.8981 50.6662C45.0224 51.0259 45.1536 51.4503 45.3539 51.9035L45.6577 52.6228L46.0514 53.3996C46.1865 53.6851 46.3387 53.9614 46.5072 54.2268C46.6799 54.5002 46.8318 54.8023 47.039 55.09C48.979 58.0451 51.6957 60.3552 54.8637 61.7436C55.8249 62.1627 56.8213 62.4878 57.8403 62.7147C58.9241 62.9387 60.0194 63.0972 61.1207 63.1894C63.3791 63.4196 65.8238 63.5491 68.165 64.5274C70.5297 65.6193 72.6264 67.2546 74.2978 69.3108C76.0666 71.2645 77.4967 73.5231 78.5243 75.986C78.9889 77.175 79.2731 78.432 79.3669 79.712C79.4473 80.9349 79.373 82.1634 79.1459 83.3661C78.6842 85.5705 78.0608 87.7348 77.2812 89.8399C76.6165 91.6661 76.1216 93.5546 75.8033 95.4793C75.5452 97.0668 75.604 98.6927 75.976 100.256C76.2572 101.434 76.7672 102.541 77.4746 103.507C77.9214 104.12 78.4685 104.646 79.0907 105.06C79.5119 105.341 79.7813 105.449 79.7813 105.463C79.5415 105.364 79.3105 105.244 79.0907 105.104C78.4539 104.698 77.8925 104.177 77.4332 103.564C76.7013 102.598 76.172 101.484 75.8793 100.291C75.4886 98.7104 75.4157 97.0623 75.6652 95.4505C75.9805 93.5149 76.4707 91.6147 77.1293 89.7751C77.896 87.668 78.5101 85.504 78.9663 83.3014C79.1809 82.1164 79.2506 80.908 79.1735 79.7048C79.0811 78.4509 78.7991 77.2201 78.3379 76.0579C77.3175 73.6205 75.9017 71.3844 74.1527 69.4474C72.5035 67.4196 70.4353 65.8064 68.1029 64.7288C65.8169 63.7577 63.3929 63.6282 61.1276 63.3908C60.0196 63.2894 58.9177 63.1261 57.8265 62.9017C56.7874 62.6844 55.7701 62.3665 54.7877 61.9522C51.5929 60.5412 48.8636 58.1886 46.9354 55.1835C46.7282 54.8958 46.5694 54.5937 46.4036 54.3132C46.2397 54.0411 46.0899 53.7602 45.9547 53.4716L45.568 52.6947L45.271 51.9754C45.1006 51.5674 44.953 51.1495 44.829 50.7238C44.7252 50.4155 44.6399 50.1008 44.5735 49.7815C44.5182 49.5297 44.4699 49.3355 44.4423 49.1989C44.4227 49.1209 44.4089 49.0416 44.4008 48.9615Z" fill="#455A64"/>
<path d="M58.4411 41.3368L58.5931 41.4807L59.0212 41.9122C59.2077 42.1065 59.4149 42.3654 59.7119 42.6316C60.0088 42.8977 60.2367 43.2933 60.513 43.7249C61.2106 44.7605 61.7835 45.8814 62.2188 47.0625C62.8098 48.6236 63.1617 50.2718 63.2617 51.9466C63.3086 52.919 63.2739 53.8937 63.1581 54.8598C63.0168 55.9064 62.7998 56.9404 62.5089 57.9529C61.9357 60.0532 61.1276 62.2112 60.5199 64.5777C60.2213 65.7845 60.0522 67.0221 60.0157 68.2678C59.9888 69.5667 60.1164 70.8642 60.3956 72.1305C60.9786 74.8159 62.1458 77.326 63.8072 79.4674C65.4736 81.5905 67.5335 83.342 69.864 84.6177C72.0267 85.8218 74.3569 86.6665 76.7702 87.1209C79.0769 87.5669 81.3145 87.682 83.3863 88.0128C85.3261 88.2541 87.2102 88.8482 88.9527 89.768C91.4394 91.2194 93.3853 93.4995 94.4777 96.2417C94.7736 96.9785 95.0047 97.7417 95.1683 98.522C95.2097 98.7881 95.2374 98.9895 95.265 99.1406C95.2696 99.21 95.2696 99.2797 95.265 99.3492C95.265 99.3492 95.265 99.2772 95.2166 99.1406C95.1683 99.0039 95.1476 98.7953 95.0992 98.5364C94.9288 97.765 94.6978 97.0096 94.4086 96.2777C93.9243 95.13 93.2898 94.0577 92.5232 93.0912C91.5075 91.8109 90.2649 90.7462 88.8629 89.955C87.131 89.0551 85.2611 88.4781 83.338 88.2502C81.2661 87.9265 79.0354 87.8186 76.708 87.3798C74.2724 86.9197 71.9195 86.0705 69.7328 84.8623C67.3737 83.5726 65.288 81.8015 63.6001 79.6545C61.9281 77.4898 60.7476 74.9595 60.147 72.2528C59.8736 70.9661 59.7485 69.65 59.774 68.3325C59.8114 67.0699 59.9828 65.8154 60.2851 64.5921C60.8721 62.204 61.7216 60.0461 62.3017 57.9601C62.6056 56.9606 62.8364 55.9387 62.9923 54.903C63.1156 53.9496 63.1549 52.9865 63.1097 52.0257C62.951 49.1013 62.032 46.2768 60.4508 43.8544C60.1815 43.4156 59.8983 43.0703 59.6704 42.7466C59.4425 42.423 59.2146 42.1856 59.0351 42.0273L58.6276 41.5742C58.5587 41.5011 58.4963 41.4216 58.4411 41.3368Z" fill="#455A64"/>
<path d="M92.758 92.8825C92.595 93.0707 92.4145 93.2418 92.2194 93.3933C91.8602 93.7169 91.3285 94.1629 90.6586 94.6952C88.921 96.0932 87.1136 97.3946 85.2441 98.5939C83.3729 99.7926 81.4435 100.89 79.4636 101.881C78.7039 102.262 78.0824 102.557 77.6542 102.744C77.434 102.861 77.2025 102.952 76.9636 103.018C77.1692 102.882 77.3838 102.762 77.6058 102.658L79.3876 101.73C80.8863 100.939 82.9305 99.7879 85.1129 98.3853C87.2952 96.9826 89.2013 95.5943 90.555 94.5585L92.1503 93.3213C92.3416 93.1587 92.5448 93.012 92.758 92.8825Z" fill="#455A64"/>
<path d="M89.0494 89.8615C88.8789 89.993 88.6961 90.1062 88.5038 90.1995L86.9983 91.0483C85.7275 91.7676 83.9872 92.789 82.1018 93.9903C80.2164 95.1915 78.5589 96.3568 77.371 97.2128L75.9898 98.2342C75.821 98.3651 75.6433 98.4829 75.458 98.5867C75.6035 98.4275 75.763 98.283 75.9345 98.1551C76.2522 97.889 76.7218 97.5221 77.3158 97.0761C78.4829 96.177 80.1404 94.9973 82.0258 93.7889C83.9112 92.5804 85.6723 91.5806 86.9637 90.9116C87.6129 90.5664 88.1378 90.3002 88.5107 90.1276C88.6831 90.0239 88.8632 89.9349 89.0494 89.8615Z" fill="#455A64"/>
<path d="M83.7316 88.6962C83.3982 88.9991 83.04 89.271 82.6612 89.509C81.9706 89.9765 81.0382 90.6095 79.9747 91.2785C78.9111 91.9475 77.9373 92.5157 77.2122 92.9185C76.8338 93.1534 76.4363 93.3532 76.0243 93.5156C76.3731 93.2446 76.7427 93.004 77.1293 92.7962L79.8504 91.0987L82.5714 89.3939C82.9368 89.1248 83.3252 88.8912 83.7316 88.6962Z" fill="#455A64"/>
<path d="M78.773 82.582C78.5269 82.8172 78.2558 83.0224 77.965 83.1934L75.9691 84.5889L73.987 86.0275C73.7263 86.2435 73.4438 86.4292 73.1444 86.5814C73.3599 86.3068 73.6109 86.0647 73.8903 85.8621C74.3737 85.4593 75.0575 84.9341 75.8379 84.3803C76.6183 83.8264 77.3434 83.3589 77.9097 83.0424C78.1774 82.8511 78.4675 82.6963 78.773 82.582Z" fill="#455A64"/>
<path d="M78.3793 77.1296C78.3793 77.1656 77.7923 77.4965 76.8462 78.0647C75.9 78.633 74.6086 79.4602 73.248 80.4528C71.8875 81.4455 70.6996 82.4381 69.864 83.1718C69.4236 83.5898 68.9625 83.9835 68.4828 84.3515C68.5769 84.2165 68.6833 84.0913 68.8004 83.9775C69.0145 83.7473 69.3391 83.4308 69.7466 83.0424C71.8739 81.0418 74.228 79.3195 76.7564 77.9137C77.2398 77.6475 77.6404 77.4461 77.9166 77.3095C78.0626 77.2285 78.2182 77.168 78.3793 77.1296Z" fill="#455A64"/>
<path d="M75.7895 72.9001C75.824 72.9577 73.4 74.7775 70.3751 76.9786C67.3501 79.1797 64.8501 80.9061 64.8501 80.8557C64.8501 80.8053 67.2327 78.9711 70.2576 76.7772C73.2826 74.5833 75.7481 72.8426 75.7895 72.9001Z" fill="#455A64"/>
<path d="M73.7246 68.1311C73.5809 68.2682 73.4234 68.3888 73.2549 68.4908C72.9096 68.7353 72.4745 69.0446 71.9497 69.4043C70.8447 70.1739 69.3253 71.2529 67.6747 72.4757C66.0241 73.6986 64.56 74.8495 63.531 75.6839L62.2741 76.6765C62.127 76.8062 61.9673 76.9195 61.7975 77.0146C61.922 76.859 62.0633 76.719 62.2188 76.5974C62.4951 76.3456 62.9094 75.986 63.4274 75.5472C64.4633 74.6768 65.9136 73.5044 67.5711 72.2815C69.2286 71.0587 70.7618 69.9941 71.8875 69.2604C72.4538 68.8936 72.9165 68.6058 73.2687 68.4116C73.4111 68.3021 73.5638 68.2081 73.7246 68.1311Z" fill="#455A64"/>
<path d="M69.4634 65.4912C69.5049 65.5416 67.4468 67.0953 64.8777 68.9583C62.3086 70.8213 60.1884 72.2743 60.147 72.224C60.1055 72.1736 62.1705 70.6127 64.7396 68.7569C67.3087 66.9011 69.4289 65.4337 69.4634 65.4912Z" fill="#455A64"/>
<path d="M64.9951 62.8298C64.2633 63.6015 63.4735 64.3111 62.6332 64.9517C61.8444 65.6601 61.0065 66.3068 60.1263 66.8867C60.861 66.1073 61.6505 65.3859 62.4882 64.7288C63.2782 64.0328 64.1161 63.3981 64.9951 62.8298Z" fill="#455A64"/>
<path d="M61.984 56.1474C61.6765 56.5018 61.339 56.8268 60.9757 57.1184C60.3334 57.6867 59.4218 58.4564 58.3859 59.2764C57.3499 60.0964 56.39 60.7725 55.6786 61.2545C55.3086 61.534 54.913 61.7749 54.4977 61.9738C54.8395 61.655 55.2043 61.3641 55.5889 61.1034C56.2795 60.5855 57.2187 59.8734 58.2477 59.075C59.2768 58.2765 60.2022 57.5284 60.8721 56.989C61.2205 56.6779 61.5924 56.3965 61.984 56.1474Z" fill="#455A64"/>
<path d="M63.2824 51.6013C63.1413 51.7428 62.9862 51.8681 62.8197 51.9754C62.5227 52.2056 62.0738 52.5221 61.5213 52.9033C60.4094 53.673 58.8486 54.7016 57.0875 55.7805C55.3264 56.8595 53.6897 57.7371 52.4949 58.3557C51.901 58.665 51.4106 58.9095 51.0722 59.075C50.9016 59.1727 50.7209 59.2499 50.5335 59.3052C50.6897 59.1862 50.8562 59.0827 51.0308 58.9959L52.412 58.2118C53.5861 57.5572 55.1745 56.6365 56.9632 55.5719C58.7519 54.5074 60.292 53.5147 61.4246 52.781L62.7644 51.9178C62.9248 51.792 63.0986 51.6858 63.2824 51.6013Z" fill="#455A64"/>
<path d="M61.2105 46.746C61.0534 46.8923 60.8847 47.0246 60.7064 47.1416C60.3749 47.3862 59.8914 47.7315 59.2837 48.1558C58.0751 48.9902 56.39 50.1268 54.5046 51.3424C52.6192 52.558 50.8996 53.6226 49.6703 54.3707C49.0418 54.7447 48.5307 55.0468 48.1716 55.2483C47.9904 55.3596 47.8011 55.4558 47.6053 55.536C47.7662 55.3945 47.9397 55.2693 48.1233 55.1619L49.5874 54.2196L54.4217 51.1338L59.2561 48.012L60.7202 47.0625C60.8737 46.9411 61.0378 46.8351 61.2105 46.746Z" fill="#455A64"/>
<path d="M242.926 190.14C242.892 190.176 242.381 189.644 241.386 188.759C240.889 188.321 240.274 187.788 239.529 187.22C238.687 186.576 237.801 185.999 236.877 185.494C236.343 185.209 235.789 184.968 235.219 184.774C234.622 184.547 233.991 184.43 233.354 184.429C233.04 184.429 232.73 184.505 232.45 184.652C232.175 184.801 231.956 185.042 231.828 185.336C231.694 185.657 231.631 186.006 231.642 186.357C231.648 186.735 231.694 187.111 231.78 187.479C231.965 188.258 232.234 189.014 232.581 189.731C232.945 190.492 233.353 191.229 233.803 191.939C235.738 194.914 238.16 197.512 240.958 199.614C241.62 200.107 242.312 200.554 243.03 200.952C243.708 201.338 244.426 201.642 245.171 201.858C245.52 201.959 245.879 202.02 246.241 202.038C246.576 202.058 246.911 202.002 247.222 201.872C247.514 201.752 247.758 201.531 247.913 201.247C248.06 200.958 248.143 200.638 248.154 200.312C248.175 199.647 248.081 198.985 247.878 198.355C247.69 197.755 247.459 197.171 247.188 196.607C246.727 195.631 246.198 194.691 245.606 193.795C245.081 193.003 244.598 192.356 244.183 191.816C243.368 190.759 242.871 190.205 242.906 190.169C242.94 190.133 243.058 190.277 243.313 190.529C243.569 190.781 243.921 191.155 244.356 191.665C244.891 192.283 245.396 192.929 245.869 193.6C246.501 194.492 247.065 195.435 247.554 196.42C247.835 197.002 248.077 197.602 248.279 198.218C248.511 198.912 248.621 199.643 248.603 200.376C248.596 200.781 248.497 201.178 248.313 201.534C248.115 201.917 247.799 202.218 247.415 202.39C247.036 202.556 246.625 202.632 246.214 202.613C245.81 202.6 245.41 202.54 245.019 202.434C244.235 202.211 243.477 201.897 242.761 201.498C242.012 201.07 241.292 200.59 240.606 200.06C237.737 197.928 235.264 195.272 233.306 192.219C232.841 191.492 232.423 190.732 232.056 189.946C231.698 189.187 231.422 188.388 231.234 187.565C231.14 187.158 231.094 186.74 231.096 186.321C231.085 185.892 231.17 185.466 231.345 185.077C231.522 184.682 231.821 184.36 232.194 184.163C232.543 183.986 232.925 183.895 233.313 183.897C234.007 183.904 234.695 184.041 235.343 184.3C235.929 184.526 236.496 184.798 237.042 185.113C237.972 185.649 238.859 186.262 239.694 186.947C240.433 187.551 241.034 188.105 241.511 188.58C241.987 189.054 242.339 189.436 242.567 189.702C242.795 189.968 242.94 190.126 242.926 190.14Z" fill="#455A64"/>
<path d="M236.303 191.867C236.345 191.867 236.145 192.586 235.882 193.867C235.751 194.514 235.606 195.305 235.488 196.226C235.355 197.268 235.299 198.319 235.323 199.369C235.336 199.975 235.396 200.579 235.502 201.175C235.603 201.807 235.811 202.417 236.117 202.973C236.273 203.246 236.486 203.479 236.738 203.656C236.991 203.827 237.287 203.912 237.588 203.901C237.917 203.891 238.239 203.808 238.534 203.656C238.847 203.49 239.139 203.284 239.404 203.045C239.969 202.536 240.476 201.961 240.917 201.333C241.382 200.67 241.805 199.976 242.181 199.254C243.75 196.187 244.768 192.848 245.185 189.4C245.275 188.585 245.314 187.766 245.302 186.947C245.291 186.168 245.196 185.394 245.019 184.638C244.929 184.285 244.804 183.942 244.646 183.616C244.5 183.315 244.293 183.049 244.038 182.839C243.801 182.646 243.511 182.535 243.21 182.523C242.905 182.517 242.604 182.581 242.326 182.71C241.768 182.98 241.261 183.35 240.827 183.803C240.411 184.229 240.028 184.689 239.681 185.177C239.07 186.015 238.525 186.903 238.051 187.832C237.636 188.652 237.319 189.385 237.07 189.989C236.573 191.205 236.345 191.896 236.303 191.881C236.309 191.701 236.344 191.524 236.407 191.356C236.497 191.018 236.642 190.529 236.856 189.918C237.07 189.306 237.367 188.544 237.761 187.695C238.208 186.728 238.732 185.801 239.328 184.925C239.676 184.411 240.066 183.929 240.495 183.487C240.96 182.977 241.51 182.56 242.118 182.257C242.459 182.096 242.829 182.015 243.203 182.019C243.607 182.03 243.998 182.171 244.322 182.422C244.636 182.677 244.895 182.998 245.081 183.365C245.265 183.725 245.409 184.106 245.509 184.501C245.706 185.296 245.812 186.112 245.827 186.932C245.851 187.78 245.816 188.629 245.723 189.472C245.321 193.001 244.278 196.418 242.65 199.542C242.26 200.293 241.819 201.014 241.331 201.7C240.864 202.361 240.324 202.962 239.722 203.491C239.423 203.752 239.096 203.977 238.748 204.16C238.393 204.352 238.002 204.46 237.602 204.476C237.2 204.486 236.805 204.368 236.469 204.138C236.161 203.915 235.902 203.625 235.709 203.289C235.382 202.676 235.165 202.006 235.067 201.311C234.964 200.691 234.913 200.063 234.915 199.434C234.911 198.359 234.996 197.285 235.171 196.226C235.295 195.431 235.459 194.644 235.661 193.867C235.827 193.226 235.986 192.737 236.096 192.428C236.132 192.229 236.202 192.039 236.303 191.867Z" fill="#455A64"/>
<path d="M238.569 188.551C238.569 188.601 237.878 188.788 236.711 189.234C236.117 189.457 235.399 189.745 234.577 190.126C233.656 190.556 232.769 191.061 231.925 191.637C231.435 191.964 230.973 192.334 230.544 192.744C230.079 193.163 229.693 193.668 229.404 194.233C229.263 194.514 229.183 194.823 229.169 195.14C229.163 195.455 229.253 195.765 229.425 196.024C229.603 196.301 229.839 196.532 230.115 196.701C230.416 196.888 230.736 197.039 231.068 197.154C231.783 197.381 232.52 197.526 233.265 197.585C234.051 197.64 234.84 197.64 235.627 197.585C237.289 197.484 238.938 197.216 240.551 196.787C242.167 196.367 243.742 195.789 245.254 195.061C245.968 194.711 246.66 194.315 247.326 193.874C247.956 193.467 248.537 192.984 249.059 192.435C249.305 192.174 249.518 191.881 249.695 191.565C249.866 191.279 249.974 190.957 250.012 190.622C250.044 190.311 249.983 189.998 249.84 189.723C249.684 189.44 249.472 189.195 249.218 189.004C248.702 188.661 248.131 188.418 247.533 188.285C246.968 188.139 246.393 188.041 245.813 187.99C244.806 187.907 243.795 187.907 242.788 187.99C241.897 188.062 241.131 188.162 240.502 188.256C239.259 188.457 238.576 188.623 238.562 188.572C238.713 188.487 238.876 188.426 239.045 188.393C239.363 188.292 239.839 188.162 240.468 188.026C241.096 187.889 241.849 187.76 242.761 187.659C243.786 187.546 244.819 187.521 245.848 187.587C246.45 187.625 247.049 187.716 247.636 187.86C248.298 187.999 248.928 188.268 249.494 188.652C249.806 188.867 250.068 189.152 250.261 189.486C250.466 189.848 250.555 190.269 250.516 190.687C250.481 191.102 250.356 191.503 250.15 191.86C249.956 192.209 249.724 192.535 249.46 192.831C248.913 193.426 248.301 193.952 247.636 194.399C246.955 194.863 246.244 195.279 245.509 195.643C243.957 196.396 242.338 196.991 240.675 197.42C239.026 197.858 237.34 198.125 235.64 198.218C234.828 198.265 234.013 198.251 233.203 198.175C232.416 198.111 231.639 197.949 230.889 197.693C230.516 197.567 230.159 197.396 229.825 197.183C229.486 196.966 229.194 196.676 228.969 196.334C228.75 195.984 228.639 195.572 228.651 195.154C228.669 194.762 228.77 194.378 228.948 194.032C229.274 193.419 229.705 192.873 230.219 192.421C230.675 192.007 231.162 191.631 231.676 191.299C232.557 190.74 233.481 190.259 234.439 189.86C235.155 189.553 235.886 189.284 236.628 189.054C237.236 188.867 237.719 188.745 238.044 188.673C238.211 188.603 238.388 188.562 238.569 188.551Z" fill="#455A64"/>
<path d="M242.049 192.701C242.138 193.071 242.12 193.46 241.996 193.819C241.873 194.178 241.65 194.491 241.356 194.718C241.062 194.945 240.709 195.076 240.344 195.094C239.978 195.113 239.615 195.018 239.302 194.822C238.988 194.626 238.737 194.337 238.58 193.992C238.424 193.647 238.369 193.262 238.423 192.885C238.477 192.508 238.637 192.156 238.883 191.874C239.129 191.591 239.45 191.391 239.805 191.299C240.281 191.177 240.784 191.256 241.205 191.518C241.625 191.781 241.929 192.206 242.049 192.701Z" fill="#455A64"/>
<path d="M279.778 159.678L279.571 159.577L278.97 159.26L276.656 158.009L268.155 153.355H268.231L242.042 163.778L241.808 163.871L241.877 163.62L242.678 160.606C244.508 153.729 246.241 147.219 247.761 141.494V141.45L262.264 130.128L266.408 126.935L267.506 126.093L267.789 125.884C267.849 125.832 267.883 125.81 267.892 125.82L267.803 125.899L267.526 126.129L266.449 126.992L262.361 130.236L247.899 141.637L247.94 141.573C246.421 147.327 244.701 153.801 242.878 160.699C242.602 161.728 242.333 162.756 242.077 163.713L241.911 163.555L268.155 153.204H268.196L276.656 157.93L278.942 159.217L279.536 159.563L279.778 159.678Z" fill="#00707E"/>
<path d="M245.406 163.447L243.838 163.929L243.334 165.547L242.408 164.145H240.772L241.766 162.792L241.262 161.174L242.802 161.742L244.121 160.742L244.08 162.447L245.406 163.447Z" fill="#00707E"/>
<path d="M249.929 140.968L248.942 141.342L248.672 142.407L248.023 141.544L246.967 141.609L247.561 140.695L247.174 139.674L248.189 139.976L249.004 139.278L249.038 140.379L249.929 140.968Z" fill="#00707E"/>
<path d="M269.757 125.122L269.039 126.251L269.515 127.503L268.265 127.136L267.271 127.999L267.216 126.647L266.124 125.928L267.34 125.46L267.658 124.151L268.466 125.208L269.757 125.122Z" fill="#00707E"/>
<path d="M281.366 158.253L280.641 159.383L281.125 160.634L279.875 160.268L278.873 161.131L278.825 159.778L277.727 159.059L278.942 158.592L279.267 157.282L280.068 158.34L281.366 158.253Z" fill="#00707E"/>
<path d="M269.184 152.708L268.721 153.427L269.032 154.225L268.231 153.988L267.595 154.542L267.568 153.679L266.863 153.218L267.644 152.916L267.844 152.082L268.362 152.765L269.184 152.708Z" fill="#00707E"/>
<path d="M201.565 38.3789C202.745 30.8511 197.842 23.7525 190.614 22.5238C183.387 21.2951 176.571 26.4016 175.392 33.9295C174.212 41.4573 179.115 48.5559 186.342 49.7846C193.57 51.0133 200.385 45.9068 201.565 38.3789Z" fill="#00707E"/>
<g opacity="0.3">
<path d="M186.738 40.4736C186.738 40.9189 186.611 41.3542 186.373 41.7244C186.136 42.0947 185.798 42.3833 185.403 42.5537C185.008 42.7241 184.574 42.7687 184.154 42.6818C183.735 42.5949 183.35 42.3805 183.047 42.0656C182.745 41.7507 182.539 41.3496 182.456 40.9128C182.372 40.4761 182.415 40.0234 182.579 39.612C182.742 39.2006 183.02 38.849 183.375 38.6016C183.731 38.3542 184.148 38.2222 184.576 38.2222C185.149 38.2222 185.699 38.4594 186.104 38.8816C186.51 39.3038 186.738 39.8765 186.738 40.4736Z" fill="white"/>
</g>
<g opacity="0.3">
<path d="M183.699 33.971C183.699 34.23 183.625 34.4831 183.487 34.6984C183.349 34.9137 183.153 35.0814 182.923 35.1805C182.693 35.2796 182.441 35.3055 182.197 35.255C181.953 35.2045 181.729 35.0798 181.553 34.8967C181.377 34.7137 181.258 34.4804 181.209 34.2264C181.161 33.9725 181.186 33.7093 181.281 33.4701C181.376 33.2308 181.537 33.0264 181.744 32.8825C181.95 32.7387 182.193 32.6619 182.442 32.6619C182.775 32.6619 183.095 32.7998 183.331 33.0453C183.566 33.2908 183.699 33.6238 183.699 33.971Z" fill="white"/>
</g>
<path d="M175.626 39.5241C175.688 39.7615 164.279 51.1626 167.221 53.5938C170.163 56.0251 182.532 49.7887 193.077 40.9196C203.623 32.0505 213.251 21.2752 210.612 18.4267C207.974 15.5783 194.804 24.0158 194.804 24.0158L196.406 25.0588C196.406 25.0588 204.369 19.7359 206.89 21.8003C209.411 23.8647 202.228 31.9426 192.09 39.6536C181.952 47.3646 172.152 52.7738 170.632 50.659C169.113 48.5443 176.289 41.5022 176.289 41.5022L175.626 39.5241Z" fill="#00707E"/>
<g opacity="0.3">
<path d="M175.626 39.5241C175.688 39.7615 164.279 51.1626 167.221 53.5938C170.163 56.0251 182.532 49.7887 193.077 40.9196C203.623 32.0505 213.251 21.2752 210.612 18.4267C207.974 15.5783 194.804 24.0158 194.804 24.0158L196.406 25.0588C196.406 25.0588 204.369 19.7359 206.89 21.8003C209.411 23.8647 202.228 31.9426 192.09 39.6536C181.952 47.3646 172.152 52.7738 170.632 50.659C169.113 48.5443 176.289 41.5022 176.289 41.5022L175.626 39.5241Z" fill="black"/>
</g>
<g opacity="0.3">
<path d="M181.213 26.4327C181.316 26.5694 180.418 27.3606 179.403 28.9575C178.054 31.0043 177.31 33.4177 177.262 35.9C177.214 38.3823 177.865 40.8249 179.134 42.9265C180.094 44.5593 180.957 45.3937 180.847 45.5232C180.736 45.6527 179.714 44.9765 178.533 43.3653C177.849 42.4067 177.307 41.3472 176.924 40.2219C175.944 37.4237 176.003 34.3453 177.09 31.5901C177.515 30.4822 178.097 29.4469 178.816 28.5187C180.032 26.9362 181.123 26.3392 181.213 26.4327Z" fill="white"/>
</g>
<path d="M208.547 48.3357C208.583 46.7497 209.07 45.2105 209.946 43.9127C210.822 42.6149 212.048 41.6168 213.468 41.0446C214.889 40.4724 216.44 40.3518 217.927 40.6981C219.413 41.0444 220.767 41.8421 221.819 42.9902C222.87 44.1383 223.57 45.5852 223.832 47.1481C224.093 48.7109 223.904 50.3194 223.288 51.7701C222.671 53.2208 221.656 54.4486 220.37 55.2982C219.083 56.1478 217.584 56.581 216.061 56.543C214.02 56.4921 212.082 55.5989 210.673 54.0598C209.264 52.5207 208.499 50.4617 208.547 48.3357Z" fill="#00707E"/>
<g opacity="0.4">
<path d="M218.755 45.4584C218.76 45.1993 218.84 44.9477 218.983 44.7356C219.126 44.5234 219.326 44.3603 219.558 44.2667C219.79 44.1732 220.043 44.1536 220.286 44.2103C220.529 44.267 220.75 44.3975 220.922 44.5852C221.093 44.773 221.208 45.0096 221.25 45.265C221.292 45.5204 221.261 45.7832 221.16 46.02C221.059 46.2568 220.892 46.457 220.682 46.5952C220.471 46.7334 220.226 46.8034 219.977 46.7964C219.812 46.7926 219.65 46.755 219.499 46.6857C219.348 46.6163 219.212 46.5166 219.099 46.3922C218.985 46.2679 218.896 46.1214 218.837 45.9611C218.778 45.8009 218.75 45.63 218.755 45.4584Z" fill="black"/>
</g>
<g opacity="0.4">
<path d="M221.269 48.5083C221.273 48.3567 221.321 48.2099 221.405 48.0867C221.49 47.9635 221.609 47.8694 221.745 47.8165C221.881 47.7636 222.03 47.7543 222.172 47.7898C222.313 47.8252 222.441 47.9039 222.54 48.0156C222.638 48.1274 222.702 48.2672 222.724 48.4171C222.746 48.5671 222.724 48.7204 222.662 48.8574C222.6 48.9945 222.499 49.1091 222.374 49.1866C222.249 49.264 222.105 49.3009 221.959 49.2923C221.769 49.2794 221.592 49.1907 221.463 49.0446C221.334 48.8986 221.265 48.7065 221.269 48.5083Z" fill="black"/>
</g>
<g opacity="0.4">
<path d="M220.281 50.8461C220.353 50.8479 220.422 50.8791 220.472 50.9328C220.522 50.9866 220.55 51.0587 220.55 51.1338C220.549 51.1706 220.542 51.2069 220.527 51.2406C220.513 51.2743 220.492 51.3047 220.467 51.3301C220.441 51.3555 220.411 51.3753 220.378 51.3886C220.345 51.4018 220.309 51.4081 220.274 51.4071C220.238 51.4072 220.203 51.3997 220.17 51.385C220.138 51.3704 220.108 51.349 220.083 51.3221C220.059 51.2951 220.04 51.2633 220.028 51.2284C220.015 51.1936 220.01 51.1565 220.012 51.1194C220.013 51.0463 220.043 50.9767 220.093 50.9257C220.143 50.8746 220.211 50.846 220.281 50.8461Z" fill="black"/>
</g>
<path d="M240.344 108.168C240.274 108.168 240.226 98.0112 240.226 85.488C240.226 72.9648 240.274 62.8082 240.344 62.8082C240.413 62.8082 240.461 72.9576 240.461 85.488C240.461 98.0184 240.406 108.168 240.344 108.168Z" fill="#263238"/>
<path d="M241.642 63.1966C241.087 62.3588 240.593 61.4788 240.164 60.5639H240.371V60.6215C240.015 61.5938 239.592 62.5385 239.107 63.4484C239.38 62.4465 239.731 61.4697 240.157 60.528V60.4704L240.254 60.2402L240.364 60.456C240.86 61.3325 241.287 62.2489 241.642 63.1966Z" fill="#263238"/>
<path d="M240.102 57.4493C240.06 57.4997 239.701 57.2551 239.411 56.802C239.121 56.3488 239.052 55.91 239.114 55.8956C239.176 55.8812 239.342 56.2553 239.605 56.6725C239.867 57.0897 240.143 57.399 240.102 57.4493Z" fill="#263238"/>
<path d="M239.418 58.7585C239.549 58.2009 239.734 57.6586 239.971 57.14C240.128 56.5906 240.341 56.0601 240.606 55.5576C240.564 56.1358 240.421 56.7012 240.185 57.2264C240.022 57.7818 239.762 58.3012 239.418 58.7585Z" fill="#263238"/>
<path d="M237.222 68.7785C237.379 68.3212 237.513 67.8553 237.622 67.383C237.646 66.9038 237.646 66.4236 237.622 65.9444C237.868 66.3991 237.939 66.9334 237.823 67.4406C237.789 67.9488 237.575 68.4258 237.222 68.7785Z" fill="#263238"/>
<path d="M237.65 66.8867C237.65 66.8867 237.595 67.0809 237.319 67.1528C237.155 67.189 236.984 67.1581 236.842 67.0665C236.758 67.0035 236.689 66.9216 236.639 66.8269C236.589 66.7322 236.561 66.627 236.555 66.5193C236.55 66.4115 236.568 66.3039 236.608 66.2044C236.648 66.1048 236.709 66.016 236.787 65.9444C236.923 65.8434 237.09 65.7974 237.256 65.8149C237.54 65.8149 237.636 66.0307 237.609 66.0451C237.581 66.0595 237.464 65.9731 237.25 65.9875C237.185 65.9863 237.121 65.9991 237.062 66.0251C237.003 66.0511 236.949 66.0897 236.905 66.1385C236.861 66.1872 236.827 66.245 236.805 66.3082C236.784 66.3714 236.775 66.4386 236.78 66.5054C236.782 66.5726 236.798 66.6385 236.826 66.6991C236.854 66.7598 236.893 66.814 236.941 66.8584C236.99 66.9027 237.046 66.9364 237.108 66.9574C237.169 66.9783 237.234 66.9861 237.298 66.9802C237.512 66.9874 237.622 66.8579 237.65 66.8867Z" fill="#263238"/>
<path d="M274.246 104.945C274.246 105.01 265.903 105.068 255.599 105.068C245.295 105.068 236.953 105.01 236.953 104.945C236.953 104.881 245.288 104.823 255.599 104.823C265.91 104.823 274.246 104.881 274.246 104.945Z" fill="#263238"/>
<path d="M274.626 104.895C274.085 104.807 273.559 104.638 273.065 104.392C272.552 104.223 272.064 103.981 271.615 103.672C272.147 103.762 272.664 103.934 273.148 104.183C273.671 104.344 274.169 104.584 274.626 104.895Z" fill="#263238"/>
<path d="M275.033 105.039C274.247 105.505 273.386 105.819 272.492 105.967C272.872 105.708 273.289 105.514 273.728 105.391C274.14 105.196 274.582 105.076 275.033 105.039Z" fill="#263238"/>
<path d="M238.589 106.175C238.719 106.268 238.828 106.387 238.911 106.526C238.994 106.665 239.049 106.819 239.073 106.981C239.156 107.333 239.129 107.703 238.997 108.038C238.921 108.245 238.792 108.427 238.624 108.564C238.521 108.633 238.401 108.67 238.279 108.67C238.156 108.67 238.036 108.633 237.933 108.564C237.757 108.428 237.616 108.25 237.522 108.044C237.428 107.838 237.385 107.611 237.395 107.384C237.39 107.2 237.424 107.017 237.496 106.849C237.568 106.681 237.675 106.532 237.809 106.413C237.899 106.332 238.003 106.271 238.115 106.232C238.228 106.194 238.347 106.18 238.465 106.19C238.631 106.19 238.707 106.269 238.7 106.276C238.693 106.283 238.61 106.276 238.465 106.276C238.26 106.295 238.068 106.387 237.919 106.535C237.813 106.643 237.73 106.773 237.676 106.917C237.623 107.061 237.6 107.215 237.609 107.369C237.604 107.557 237.642 107.743 237.719 107.913C237.795 108.083 237.909 108.232 238.051 108.348C238.119 108.393 238.198 108.417 238.279 108.417C238.359 108.417 238.438 108.393 238.506 108.348C238.643 108.239 238.75 108.095 238.817 107.931C238.938 107.636 238.977 107.312 238.928 106.995C238.856 106.706 238.742 106.429 238.589 106.175Z" fill="#263238"/>
<path d="M268.921 106.686C268.921 106.686 269.053 106.607 269.232 106.765C269.285 106.813 269.327 106.873 269.355 106.94C269.382 107.008 269.395 107.081 269.391 107.154C269.374 107.34 269.296 107.515 269.17 107.65C268.908 107.952 268.424 108.067 268.203 108.434C268.152 108.53 268.126 108.638 268.126 108.747C268.126 108.856 268.152 108.964 268.203 109.06C268.261 109.16 268.344 109.241 268.445 109.294C268.545 109.346 268.658 109.367 268.769 109.355C268.882 109.345 268.989 109.3 269.077 109.225C269.164 109.151 269.228 109.051 269.26 108.938C269.293 108.833 269.3 108.721 269.279 108.612C269.259 108.504 269.212 108.403 269.142 108.319C269.003 108.151 268.834 108.012 268.645 107.909C268.542 107.869 268.449 107.806 268.373 107.724C268.296 107.641 268.238 107.543 268.203 107.434C268.183 107.341 268.183 107.244 268.203 107.151C268.223 107.057 268.263 106.97 268.321 106.895C268.402 106.787 268.509 106.703 268.631 106.65C268.832 106.578 268.949 106.593 268.956 106.607C268.963 106.621 268.845 106.607 268.673 106.736C268.572 106.793 268.487 106.875 268.424 106.974C268.385 107.034 268.358 107.103 268.348 107.175C268.337 107.247 268.342 107.321 268.362 107.391C268.431 107.7 268.984 107.744 269.308 108.182C269.402 108.295 269.466 108.431 269.495 108.577C269.524 108.723 269.517 108.874 269.474 109.017C269.426 109.173 269.336 109.311 269.213 109.414C269.09 109.516 268.94 109.578 268.783 109.592C268.628 109.609 268.471 109.58 268.332 109.507C268.192 109.435 268.076 109.322 267.996 109.182C267.925 109.05 267.887 108.902 267.887 108.751C267.887 108.599 267.925 108.451 267.996 108.319C268.137 108.113 268.327 107.949 268.548 107.844C268.718 107.758 268.878 107.652 269.025 107.528C269.135 107.427 269.208 107.29 269.232 107.139C269.238 107.084 269.233 107.028 269.217 106.975C269.202 106.922 269.176 106.873 269.142 106.83C269.06 106.686 268.921 106.708 268.921 106.686Z" fill="#263238"/>
<path d="M268.825 105.78C268.666 105.07 268.666 104.332 268.825 103.622C268.983 104.332 268.983 105.07 268.825 105.78Z" fill="#263238"/>
<path d="M278.79 104.989C278.587 105.064 278.371 105.099 278.155 105.089L277.464 105.132C277.413 105.151 277.357 105.151 277.306 105.132C277.272 105.11 277.246 105.077 277.231 105.038C277.216 105 277.213 104.957 277.223 104.917C277.246 104.826 277.297 104.745 277.368 104.686L277.672 104.356C277.879 104.188 278.015 103.943 278.051 103.672C278.057 103.575 278.032 103.478 277.98 103.397C277.927 103.317 277.85 103.256 277.761 103.226C277.621 103.209 277.479 103.236 277.354 103.305C277.25 103.349 277.195 103.377 277.181 103.363C277.167 103.349 277.216 103.298 277.306 103.226C277.44 103.106 277.613 103.045 277.789 103.054C277.927 103.082 278.05 103.161 278.137 103.276C278.224 103.39 278.27 103.533 278.265 103.679C278.24 104.006 278.091 104.309 277.851 104.521L277.533 104.845C277.478 104.895 277.437 104.945 277.437 104.967H277.478H278.169C278.376 104.938 278.586 104.945 278.79 104.989Z" fill="#263238"/>
<path d="M245.302 104.945C245.302 104.945 245.302 104.701 245.302 104.276C245.302 103.852 245.302 103.226 245.268 102.5C245.268 100.989 245.226 98.9032 245.219 96.5151L245.33 96.6374H243.168L243.286 96.5151V99.0111C243.286 99.8095 243.286 100.572 243.286 101.291C243.286 102.73 243.286 103.953 243.251 104.938L243.182 104.866L244.757 104.902C245.13 104.902 245.337 104.902 245.344 104.938C245.162 104.95 244.98 104.95 244.798 104.938L243.182 104.974H243.113V104.902C243.113 103.917 243.113 102.68 243.113 101.255C243.113 100.536 243.113 99.7736 243.113 98.9751V96.4791L243.23 96.3568H245.44V96.4719C245.44 98.9104 245.44 101.032 245.385 102.536C245.385 103.255 245.385 103.845 245.385 104.291C245.375 104.511 245.348 104.73 245.302 104.945Z" fill="#263238"/>
<path d="M265.917 104.945C265.909 104.859 265.909 104.773 265.917 104.686C265.917 104.499 265.917 104.269 265.917 103.967C265.917 103.32 265.917 102.442 265.883 101.356C265.883 99.1549 265.841 96.1051 265.834 92.6452L265.952 92.7603H263.783L263.901 92.6452V94.5442C263.901 95.17 263.901 95.7814 263.901 96.3784C263.901 97.5796 263.901 98.709 263.901 99.7664C263.901 101.852 263.866 103.622 263.859 104.917L263.797 104.852H265.379H265.807H265.966C265.784 104.865 265.602 104.865 265.42 104.852L263.797 104.888H263.735V104.823C263.735 103.528 263.735 101.759 263.693 99.6728C263.693 98.6155 263.693 97.5149 263.693 96.2849C263.693 95.6879 263.693 95.0764 263.693 94.4506V92.5517L263.811 92.4294H266.09V92.5517C266.09 96.0619 266.09 99.1549 266.042 101.349C266.042 102.421 266.042 103.291 266.007 103.931C266.007 104.204 266.007 104.435 266.007 104.65C266.007 104.866 265.917 104.953 265.917 104.945Z" fill="#263238"/>
<path d="M250.516 104.945C250.508 104.84 250.508 104.734 250.516 104.629C250.516 104.399 250.516 104.104 250.516 103.737C250.516 102.953 250.516 101.852 250.482 100.486C250.482 97.7307 250.482 93.9255 250.433 89.6313L250.551 89.7535H248.382C248.617 89.509 248.444 89.6888 248.5 89.6385V92.0697C248.5 92.8682 248.5 93.645 248.5 94.4075C248.5 95.9252 248.5 97.3567 248.5 98.673C248.5 101.291 248.465 103.449 248.451 104.945L248.396 104.888H249.991H250.413H250.565H250.433H250.019H248.396H248.341V104.83C248.341 103.334 248.341 101.176 248.299 98.5579C248.299 97.2416 248.299 95.8101 248.299 94.2924C248.299 93.5299 248.299 92.7531 248.299 91.9546V89.5234C248.355 89.4658 248.182 89.6385 248.417 89.3939H250.696V89.509C250.696 93.8248 250.661 97.6732 250.648 100.45C250.648 101.802 250.648 102.895 250.613 103.672C250.613 104.032 250.613 104.32 250.613 104.535C250.613 104.751 250.516 104.953 250.516 104.945Z" fill="#263238"/>
<path d="M255.613 104.895C255.61 104.854 255.61 104.813 255.613 104.773V104.392C255.613 104.061 255.613 103.6 255.613 103.018C255.613 101.816 255.613 100.097 255.579 97.9825C255.579 93.7098 255.544 87.8042 255.523 81.1722L255.641 81.2945H253.452L253.562 81.1794V88.7825C253.562 91.185 253.562 93.4436 253.562 95.5008C253.562 99.5865 253.521 102.859 253.507 104.852L253.465 104.809H255.061H255.627C255.627 104.809 255.586 104.809 255.496 104.809H255.109H253.486H253.438V104.758C253.438 102.73 253.438 99.457 253.389 95.4073C253.389 93.3501 253.389 91.0915 253.389 88.689C253.389 87.4805 253.389 86.2433 253.389 84.9701V81.0859C253.438 81.0283 253.272 81.201 253.507 80.9564H255.786V81.0787C255.786 87.7395 255.786 93.681 255.737 97.9753C255.737 100.09 255.737 101.802 255.703 103.01C255.703 103.586 255.703 104.039 255.703 104.363V104.708C255.62 104.866 255.62 104.902 255.613 104.895Z" fill="#263238"/>
<path d="M260.841 104.895C260.841 104.895 260.841 104.823 260.841 104.686C260.841 104.55 260.841 104.334 260.841 104.075C260.841 103.536 260.841 102.751 260.841 101.752C260.841 99.7304 260.841 96.81 260.807 93.2062C260.807 86.0131 260.807 75.9931 260.758 64.8438L260.876 64.9661H258.707C258.935 64.7287 258.776 64.9086 258.824 64.8582V71.742C258.824 73.9863 258.824 76.173 258.824 78.2806C258.824 82.5029 258.824 86.416 258.824 89.919C258.824 96.8963 258.776 102.198 258.762 104.895H260.385H260.931C260.931 104.895 260.889 104.895 260.8 104.895H260.406H258.762H258.728V104.852C258.728 102.154 258.693 96.8531 258.673 89.8758C258.673 86.3728 258.673 82.4597 258.673 78.2374C258.673 76.1298 258.673 73.9215 258.673 71.6989V64.8295C258.728 64.7719 258.555 64.9373 258.79 64.6928H261.069V64.8295C261.069 76.0147 261.069 86.0347 261.021 93.2782C261.021 96.8747 261.021 99.752 260.986 101.795C260.986 102.787 260.986 103.557 260.986 104.097C260.986 104.348 260.986 104.543 260.986 104.686C260.986 104.83 260.841 104.902 260.841 104.895Z" fill="#263238"/>
<path d="M29 107.269L30.844 140.954L84.954 137.739L29 107.269ZM38.0402 120.339L61.3141 133.286L38.8206 134.603L38.0402 120.339Z" fill="#00707E"/>
<path d="M34.373 110.211C34.2005 110.953 33.9112 111.66 33.5167 112.304C33.2255 113.01 32.8215 113.659 32.3219 114.225C32.491 113.474 32.7805 112.759 33.1783 112.11C33.4732 111.412 33.8769 110.771 34.373 110.211Z" fill="#263238"/>
<path d="M42.6743 114.678C42.5015 115.411 42.212 116.109 41.8179 116.742C41.532 117.43 41.1323 118.061 40.6369 118.605C40.804 117.871 41.0914 117.173 41.4864 116.541C41.7709 115.85 42.1734 115.219 42.6743 114.678Z" fill="#263238"/>
<path d="M50.9686 119.145C50.7278 119.852 50.3728 120.511 49.9189 121.094C49.5643 121.753 49.096 122.338 48.5376 122.82C48.7774 122.11 49.1325 121.449 49.5874 120.864C49.9457 120.209 50.4135 119.627 50.9686 119.145Z" fill="#263238"/>
<path d="M59.1318 123.813C58.8989 124.526 58.5431 125.189 58.082 125.769C57.7192 126.423 57.2521 127.006 56.7008 127.496C56.9337 126.783 57.2894 126.12 57.7505 125.539C58.1133 124.886 58.5804 124.302 59.1318 123.813Z" fill="#263238"/>
<path d="M67.654 128.366C67.4519 129.11 67.1296 129.813 66.7009 130.445C66.3806 131.138 65.9511 131.77 65.4302 132.315C65.943 130.873 66.6958 129.536 67.654 128.366Z" fill="#263238"/>
<path d="M76.5008 133.164C76.3377 133.869 76.0521 134.537 75.6583 135.135C75.3708 135.795 74.9733 136.396 74.4842 136.912C74.651 136.204 74.9388 135.534 75.3337 134.933C75.614 134.273 76.0098 133.673 76.5008 133.164Z" fill="#263238"/>
<path d="M36.9628 111.621C37.0526 111.678 36.9007 112.167 36.6175 112.728C36.3344 113.289 36.0305 113.685 35.9269 113.635C35.8233 113.584 35.9891 113.088 36.2722 112.534C36.5554 111.98 36.8731 111.585 36.9628 111.621Z" fill="#263238"/>
<path d="M39.677 113.023C39.7737 113.074 39.6148 113.57 39.3317 114.124C39.0485 114.678 38.7516 115.088 38.6411 115.037C38.5306 114.987 38.7101 114.491 38.9864 113.93C39.2626 113.369 39.5872 112.98 39.677 113.023Z" fill="#263238"/>
<path d="M45.7337 116.368C45.8235 116.426 45.6716 116.915 45.3884 117.476C45.1053 118.037 44.8014 118.44 44.6978 118.382C44.5942 118.325 44.76 117.835 45.0431 117.282C45.3263 116.728 45.644 116.318 45.7337 116.368Z" fill="#263238"/>
<path d="M48.4548 117.785C48.5446 117.835 48.3926 118.332 48.1095 118.886C47.8263 119.439 47.5224 119.849 47.4188 119.799C47.3153 119.749 47.481 119.252 47.7642 118.691C48.0473 118.13 48.3581 117.735 48.4548 117.785Z" fill="#263238"/>
<path d="M53.9314 120.979C54.0281 121.029 53.8692 121.525 53.5861 122.079C53.3029 122.633 53.0059 123.043 52.8954 122.993C52.7849 122.943 52.9576 122.446 53.2408 121.885C53.5239 121.324 53.8416 120.936 53.9314 120.979Z" fill="#263238"/>
<path d="M56.5281 122.374C56.6248 122.425 56.466 122.921 56.1828 123.475C55.8997 124.029 55.6027 124.439 55.4922 124.388C55.3817 124.338 55.5543 123.834 55.8375 123.281C56.1207 122.727 56.4383 122.374 56.5281 122.374Z" fill="#263238"/>
<path d="M62.129 125.424C62.2188 125.482 62.0669 125.971 61.7837 126.532C61.5006 127.093 61.2036 127.489 61.0931 127.438C60.9826 127.388 61.1553 126.892 61.4384 126.338C61.7216 125.784 62.0393 125.374 62.129 125.424Z" fill="#263238"/>
<path d="M65.1401 127.086C65.2299 127.143 65.078 127.632 64.7948 128.194C64.5117 128.755 64.2078 129.157 64.1042 129.1C64.0006 129.042 64.1664 128.553 64.4495 127.999C64.7327 127.445 65.0504 127.035 65.1401 127.086Z" fill="#263238"/>
<path d="M70.5546 130.057C70.6444 130.107 70.4924 130.603 70.2093 131.157C69.9261 131.711 69.6223 132.121 69.5187 132.071C69.4151 132.02 69.5808 131.524 69.864 130.963C70.1471 130.402 70.4579 130.006 70.5546 130.057Z" fill="#263238"/>
<path d="M73.6762 131.725C73.766 131.783 73.6141 132.279 73.3309 132.833C73.0478 133.387 72.7439 133.797 72.6403 133.739C72.5367 133.682 72.7024 133.193 72.9856 132.639C73.2687 132.085 73.5864 131.675 73.6762 131.725Z" fill="#263238"/>
<path d="M121.543 60.3985C121.543 60.3985 121.543 60.3553 121.543 60.2762C121.543 60.1971 121.543 60.0676 121.543 59.9166C121.543 59.6001 121.543 59.1397 121.543 58.5427C121.543 57.3342 121.543 55.5791 121.543 53.3493C121.543 48.8895 121.509 42.5596 121.488 34.9061L121.591 35.0068H97.1158L97.2263 34.8846C97.2263 44.2356 97.2263 52.968 97.2263 60.3769L97.1297 60.269L114.837 60.3266H119.823H119.865H114.906L97.1297 60.3769H96.957V60.269C96.957 52.8601 96.957 44.1133 96.957 34.7767V34.6544H97.0744H121.55H121.647V34.7623C121.647 42.4157 121.612 48.796 121.598 53.2773C121.598 55.4928 121.598 57.2407 121.598 58.442C121.598 59.0318 121.598 59.4778 121.598 59.7943V60.2546L121.543 60.3985Z" fill="#00707E"/>
<path d="M121.543 60.3985C121.602 60.3485 121.664 60.3029 121.73 60.2618L122.289 59.8878L124.457 58.4492L132.427 53.3205L132.386 53.3996C132.386 46.746 132.386 37.9344 132.386 28.2885L132.496 28.4108H132.434H108.304H108.345L100.106 33.1798L97.8548 34.4889L97.2678 34.8198L97.0675 34.9277C97.1275 34.8813 97.1898 34.8381 97.254 34.7983L97.8341 34.4386L100.058 33.0935L108.235 28.2022H132.365H132.545V28.3245C132.545 37.9704 132.545 46.782 132.545 53.4356V53.4859H132.503L124.492 58.5858L122.303 59.9669L121.73 60.3194L121.543 60.3985Z" fill="#00707E"/>
<path d="M132.469 28.2597C132.503 28.3173 130.086 29.8494 127.068 31.6836C124.05 33.5179 121.543 34.9637 121.543 34.9062C121.543 34.8486 123.926 33.3165 126.951 31.475C129.976 29.6336 132.441 28.2022 132.469 28.2597Z" fill="#00707E"/>
<path d="M98.2277 59.3483C98.2277 59.4059 98.0206 59.6144 97.7029 59.8015C97.3852 59.9885 97.0951 60.1036 97.0675 60.046C97.0399 59.9885 97.2678 59.7871 97.5855 59.5929C97.9032 59.3987 98.1932 59.2908 98.2277 59.3483Z" fill="#00707E"/>
<path d="M100.548 57.96C100.583 58.0176 100.348 58.2262 100.023 58.4132C99.6988 58.6002 99.4156 58.7153 99.388 58.6578C99.3604 58.6002 99.5883 58.3988 99.9129 58.2046C100.237 58.0104 100.514 57.9025 100.548 57.96Z" fill="#00707E"/>
<path d="M102.869 56.5718C102.903 56.6293 102.668 56.8379 102.351 57.0249C102.033 57.212 101.743 57.327 101.708 57.2695C101.674 57.2119 101.909 57.0105 102.233 56.8163C102.558 56.6221 102.841 56.5142 102.869 56.5718Z" fill="#00707E"/>
<path d="M105.196 55.1835C105.196 55.241 104.989 55.4424 104.671 55.6367C104.354 55.8309 104.063 55.9388 104.029 55.8812C103.994 55.8237 104.236 55.6223 104.554 55.4281C104.872 55.2338 105.162 55.1259 105.196 55.1835Z" fill="#00707E"/>
<path d="M107.517 53.7952C107.517 53.8528 107.316 54.0542 106.992 54.2484C106.667 54.4426 106.384 54.5505 106.356 54.493C106.329 54.4354 106.557 54.234 106.874 54.0398C107.192 53.8456 107.482 53.7377 107.517 53.7952Z" fill="#00707E"/>
<path d="M108.104 51.3568C108.166 51.3568 108.214 51.6661 108.214 52.0761C108.214 52.4861 108.159 52.7954 108.09 52.7954C108.021 52.7954 107.979 52.4861 107.979 52.0761C107.979 51.6661 108.041 51.3496 108.104 51.3568Z" fill="#00707E"/>
<path d="M108.124 48.5659C108.186 48.5659 108.242 48.8752 108.235 49.2852C108.228 49.6952 108.18 50.0045 108.117 50.0045C108.055 50.0045 108 49.688 108 49.2852C108 48.8824 108.062 48.5659 108.124 48.5659Z" fill="#00707E"/>
<path d="M108.145 45.7749C108.207 45.7749 108.262 46.0914 108.256 46.4942C108.249 46.8971 108.2 47.2136 108.138 47.2136C108.076 47.2136 108.021 46.8971 108.021 46.4942C108.021 46.0914 108.083 45.7749 108.145 45.7749Z" fill="#00707E"/>
<path d="M108.166 42.984C108.228 42.984 108.283 43.3005 108.276 43.7033C108.269 44.1061 108.221 44.4226 108.159 44.4226C108.097 44.4226 108.041 44.1133 108.048 43.7033C108.055 43.2933 108.104 42.984 108.166 42.984Z" fill="#00707E"/>
<path d="M108.186 40.2003C108.249 40.2003 108.304 40.5096 108.297 40.9196C108.29 41.3296 108.242 41.6389 108.18 41.6389C108.117 41.6389 108.062 41.3296 108.069 40.9196C108.076 40.5096 108.124 40.2003 108.186 40.2003Z" fill="#00707E"/>
<path d="M108.207 37.4094C108.276 37.4094 108.325 37.7187 108.318 38.1287C108.311 38.5387 108.262 38.848 108.2 38.848C108.138 38.848 108.083 38.5315 108.09 38.1287C108.097 37.7259 108.145 37.4094 108.207 37.4094Z" fill="#00707E"/>
<path d="M108.228 34.6184C108.297 34.6184 108.345 34.9349 108.338 35.3377C108.332 35.7405 108.283 36.057 108.221 36.057C108.159 36.057 108.104 35.7405 108.111 35.3377C108.117 34.9349 108.166 34.6184 108.228 34.6184Z" fill="#00707E"/>
<path d="M108.249 31.8275C108.318 31.8275 108.366 32.144 108.359 32.5468C108.352 32.9496 108.304 33.2661 108.242 33.2661C108.18 33.2661 108.124 32.9568 108.131 32.5468C108.138 32.1368 108.186 31.8275 108.249 31.8275Z" fill="#00707E"/>
<path d="M108.269 29.0438C108.338 29.0438 108.387 29.3531 108.38 29.7631C108.373 30.1731 108.325 30.4824 108.262 30.4824C108.2 30.4824 108.145 30.1731 108.152 29.7631C108.159 29.3531 108.207 29.0438 108.269 29.0438Z" fill="#00707E"/>
<path d="M131.136 53.378C131.136 53.3205 131.433 53.2701 131.826 53.2701C132.22 53.2701 132.517 53.3205 132.517 53.378C132.517 53.4356 132.22 53.4931 131.826 53.4931C131.433 53.4931 131.136 53.4428 131.136 53.378Z" fill="#00707E"/>
<path d="M128.456 53.378C128.456 53.3205 128.753 53.2701 129.147 53.2701C129.54 53.2701 129.837 53.3205 129.837 53.378C129.837 53.4356 129.534 53.4931 129.147 53.4931C128.76 53.4931 128.456 53.4428 128.456 53.378Z" fill="#00707E"/>
<path d="M125.777 53.378C125.777 53.3205 126.074 53.2701 126.467 53.2701C126.861 53.2701 127.158 53.3205 127.158 53.378C127.158 53.4356 126.861 53.4931 126.467 53.4931C126.074 53.4931 125.777 53.4428 125.777 53.378Z" fill="#00707E"/>
<path d="M123.097 53.378C123.097 53.3205 123.401 53.2701 123.788 53.2701C124.174 53.2701 124.478 53.3205 124.478 53.378C124.478 53.4356 124.181 53.4931 123.788 53.4931C123.394 53.4931 123.097 53.4428 123.097 53.378Z" fill="#00707E"/>
<path d="M120.438 53.378C120.438 53.3205 120.735 53.2701 121.129 53.2701C121.522 53.2701 121.819 53.3205 121.819 53.378C121.819 53.4356 121.522 53.4931 121.129 53.4931C120.735 53.4931 120.438 53.4428 120.438 53.378Z" fill="#00707E"/>
<path d="M117.745 53.378C117.745 53.3205 118.042 53.2701 118.435 53.2701C118.829 53.2701 119.126 53.3205 119.126 53.378C119.126 53.4356 118.822 53.4931 118.435 53.4931C118.049 53.4931 117.745 53.4428 117.745 53.378Z" fill="#00707E"/>
<path d="M115.065 53.378C115.065 53.3205 115.362 53.2701 115.756 53.2701C116.149 53.2701 116.446 53.3205 116.446 53.378C116.446 53.4356 116.149 53.4931 115.756 53.4931C115.362 53.4931 115.065 53.4428 115.065 53.378Z" fill="#00707E"/>
<path d="M112.385 53.378C112.385 53.3205 112.689 53.2701 113.076 53.2701C113.463 53.2701 113.767 53.3205 113.767 53.378C113.767 53.4356 113.47 53.4931 113.076 53.4931C112.682 53.4931 112.385 53.4428 112.385 53.378Z" fill="#00707E"/>
<path d="M109.713 53.378C109.713 53.3205 110.01 53.2701 110.403 53.2701C110.797 53.2701 111.094 53.3205 111.094 53.378C111.094 53.4356 110.797 53.4931 110.403 53.4931C110.01 53.4931 109.713 53.4428 109.713 53.378Z" fill="#00707E"/>
<path d="M108.09 53.378C108.09 53.3205 108.152 53.2701 108.228 53.2701C108.304 53.2701 108.373 53.3205 108.373 53.378C108.373 53.4356 108.311 53.4931 108.228 53.4931C108.212 53.4951 108.195 53.4937 108.179 53.489C108.163 53.4843 108.149 53.4763 108.136 53.4656C108.123 53.4549 108.112 53.4417 108.104 53.4266C108.096 53.4116 108.092 53.3951 108.09 53.378Z" fill="#00707E"/>
<path d="M135.431 44.883C135.636 44.9037 135.842 44.9037 136.046 44.883C136.314 44.8212 136.567 44.6999 136.786 44.5273C137.005 44.3548 137.186 44.1351 137.317 43.8831C137.489 43.502 137.573 43.0837 137.561 42.6625C137.549 42.2412 137.442 41.8289 137.248 41.4591C137.203 41.3574 137.136 41.268 137.052 41.1981C136.968 41.1282 136.869 41.0796 136.764 41.0563C136.543 41.0275 136.321 41.0894 136.143 41.2289C135.774 41.6014 135.505 42.0675 135.362 42.5812C135.169 43.1391 135.053 43.7228 135.017 44.3147H134.789C134.789 42.4661 134.755 40.8548 134.755 39.704C134.755 39.1645 134.755 38.7113 134.755 38.3516C134.736 38.1892 134.736 38.025 134.755 37.8625C134.786 38.0235 134.803 38.1873 134.803 38.3516C134.803 38.7113 134.803 39.1645 134.858 39.704C134.9 40.8548 134.941 42.4661 134.976 44.3147H134.748C134.785 43.7006 134.906 43.0951 135.107 42.5165C135.202 42.246 135.313 41.9817 135.438 41.7252C135.563 41.4644 135.743 41.2359 135.963 41.0563C136.076 40.9667 136.205 40.9015 136.343 40.8645C136.48 40.8274 136.624 40.8193 136.764 40.8405C136.898 40.8741 137.023 40.9379 137.13 41.0274C137.238 41.1169 137.325 41.2299 137.386 41.3584C137.59 41.7632 137.697 42.2137 137.697 42.6711C137.697 43.1285 137.59 43.579 137.386 43.9838C137.243 44.2484 137.045 44.4759 136.806 44.649C136.566 44.8222 136.292 44.9366 136.005 44.9837C135.849 45.0103 135.691 45.0103 135.535 44.9837C135.495 44.9563 135.46 44.9223 135.431 44.883Z" fill="#00707E"/>
<path d="M67.5504 164.26C67.5504 164.26 67.6471 164.26 67.8336 164.346C68.0201 164.432 68.2963 164.497 68.6485 164.648C69.68 165.072 70.6661 165.607 71.5906 166.245C73.0634 167.254 74.3694 168.505 75.458 169.949C76.9191 171.859 77.9101 174.111 78.3448 176.51C78.8383 179.433 78.4649 182.444 77.2744 185.141C76.6191 186.643 75.7063 188.008 74.5809 189.169C73.9919 189.776 73.3464 190.321 72.6541 190.795C72.2881 191.011 71.9635 191.241 71.5491 191.442C71.1347 191.644 70.7894 191.838 70.382 191.989C67.1637 193.32 63.4758 193.377 59.774 193.011C57.9232 192.824 56.0585 192.543 54.1593 192.234C52.2304 191.946 50.3288 191.487 48.4755 190.86C46.6015 190.24 44.8692 189.226 43.3856 187.882C42.6746 187.204 42.0481 186.435 41.521 185.594C41.0211 184.753 40.6199 183.852 40.3262 182.911C39.7697 181.079 39.584 179.147 39.7806 177.236C39.975 175.413 40.4851 173.641 41.2861 172.007C42.8635 169.021 45.2449 166.58 48.1371 164.986C50.629 163.585 53.351 162.682 56.1621 162.325C58.4736 162.039 60.8085 162.022 63.1236 162.274C64.8671 162.467 66.5987 162.763 68.3101 163.159C69.6913 163.49 70.7963 163.792 71.5284 164.001L72.3571 164.253L72.6403 164.353L72.3502 164.281L71.5146 164.058C70.7825 163.864 69.6983 163.576 68.2894 163.267C66.5769 162.89 64.8453 162.614 63.1028 162.44C60.805 162.199 58.4883 162.228 56.1966 162.526C53.4158 162.896 50.7251 163.801 48.2614 165.195C45.4173 166.775 43.0772 169.185 41.5279 172.129C40.7455 173.739 40.2517 175.484 40.0707 177.279C39.8818 179.152 40.0652 181.044 40.6093 182.84C40.892 183.758 41.2816 184.638 41.7696 185.458C42.2799 186.278 42.8879 187.027 43.579 187.688C45.037 189.002 46.7356 189.996 48.5722 190.608C50.4146 191.228 52.3046 191.683 54.2215 191.968C56.1069 192.277 57.9784 192.557 59.8155 192.744C63.4758 193.111 67.143 193.061 70.306 191.752C73.3222 190.539 75.7569 188.135 77.081 185.062C78.2604 182.408 78.6408 179.444 78.1722 176.56C77.7451 174.196 76.7761 171.976 75.3475 170.086C74.2778 168.649 72.9957 167.399 71.5491 166.382C70.6326 165.739 69.6589 165.19 68.6416 164.742C68.2894 164.591 68.0201 164.497 67.8336 164.418L67.5504 164.26Z" fill="#263238"/>
<path d="M49.1109 182.847C48.9281 182.895 48.7401 182.92 48.5515 182.919L47.0114 182.998H46.5003C46.3056 183.026 46.1081 183.026 45.9133 182.998C45.7901 182.958 45.6863 182.87 45.6232 182.753C45.571 182.646 45.5405 182.528 45.5334 182.408L45.492 181.753C45.4437 180.847 45.3884 179.869 45.3332 178.876C45.2779 177.883 45.2158 176.869 45.2089 175.956C45.1972 175.508 45.2972 175.064 45.4989 174.668C45.6986 174.341 45.9939 174.089 46.3415 173.949C46.8399 173.768 47.371 173.707 47.8954 173.769C48.0861 173.774 48.2749 173.81 48.4548 173.877C48.2664 173.894 48.0769 173.894 47.8885 173.877C47.3867 173.854 46.8859 173.94 46.4174 174.129C46.1217 174.272 45.8791 174.512 45.7268 174.812C45.5541 175.173 45.471 175.574 45.4851 175.977C45.4851 176.855 45.5887 177.855 45.6301 178.855C45.6716 179.854 45.7268 180.861 45.7752 181.732C45.8166 182.156 45.7268 182.688 46.01 182.76C46.1817 182.786 46.3562 182.786 46.5279 182.76H48.5998C48.773 182.766 48.9448 182.795 49.1109 182.847Z" fill="#263238"/>
<path d="M48.3374 178.135C47.8725 178.283 47.3858 178.341 46.9009 178.308C46.4171 178.362 45.9277 178.323 45.4575 178.193C45.9216 178.041 46.409 177.983 46.894 178.02C47.3778 177.965 47.8673 178.004 48.3374 178.135Z" fill="#263238"/>
<path d="M55.5198 176.797C54.7948 176.904 54.0621 176.942 53.3306 176.912C52.6042 176.972 51.8745 176.972 51.1482 176.912C51.8512 176.681 52.5869 176.577 53.3236 176.603C54.061 176.543 54.8028 176.608 55.5198 176.797Z" fill="#263238"/>
<path d="M55.948 180.236C55.2374 180.405 54.5058 180.458 53.7795 180.394C53.0545 180.424 52.3296 180.334 51.6316 180.128C52.3482 180.056 53.0698 180.056 53.7864 180.128C54.5085 180.096 55.2321 180.132 55.948 180.236Z" fill="#263238"/>
<path d="M67.5573 182.3C67.5573 182.3 67.5573 181.991 67.5573 181.422C67.5241 180.62 67.3847 179.826 67.1429 179.063C67.0323 178.528 66.7497 178.049 66.3418 177.704C66.2252 177.635 66.0919 177.603 65.9582 177.612C65.8246 177.621 65.6963 177.67 65.589 177.754C65.3453 177.942 65.1487 178.189 65.0158 178.473C64.4633 179.888 64.2271 181.416 64.3252 182.94H64.0559C64.1348 181.838 64.1209 180.731 64.0144 179.631C63.9763 179.185 63.9164 178.741 63.8349 178.301C63.7665 177.894 63.5607 177.527 63.2547 177.265C63.1079 177.155 62.9315 177.096 62.7506 177.096C62.5697 177.096 62.3933 177.155 62.2464 177.265C61.9363 177.477 61.7106 177.799 61.6111 178.171C61.5121 178.545 61.4473 178.928 61.4177 179.315C61.3762 179.696 61.3417 180.07 61.3279 180.437C61.2899 181.12 61.2899 181.804 61.3279 182.487H61.1138C61.0586 180.869 61.0102 179.545 60.9757 178.574C60.9757 178.142 60.9757 177.79 60.9757 177.509C60.9607 177.385 60.9607 177.26 60.9757 177.135C61.0032 177.258 61.0194 177.383 61.024 177.509L61.1069 178.574C61.1622 179.538 61.245 180.861 61.3417 182.473H61.1276C61.0924 181.783 61.0924 181.091 61.1276 180.401C61.1276 180.034 61.1691 179.682 61.2105 179.265C61.2386 178.861 61.3057 178.46 61.4108 178.07C61.5242 177.636 61.7841 177.258 62.1428 177.006C62.3494 176.87 62.5894 176.8 62.8335 176.804C63.082 176.805 63.3238 176.889 63.5241 177.042C63.8853 177.343 64.1304 177.769 64.2147 178.243C64.3028 178.695 64.3673 179.151 64.4081 179.61C64.5008 180.727 64.5008 181.851 64.4081 182.969H64.1387C64.0475 181.406 64.3076 179.842 64.8984 178.401C65.0555 178.07 65.2937 177.787 65.589 177.581C65.7305 177.476 65.8983 177.414 66.0722 177.406C66.2462 177.397 66.4189 177.44 66.5697 177.531C67.0159 177.907 67.3214 178.434 67.433 179.02C67.6611 179.804 67.7775 180.618 67.7783 181.437C67.7783 181.725 67.7783 181.948 67.7438 182.091C67.6927 182.171 67.6298 182.241 67.5573 182.3Z" fill="#263238"/>
<path d="M73.6072 181.847C73.6072 181.847 73.5105 181.969 73.2757 182.091C72.9415 182.261 72.5766 182.354 72.2052 182.365C71.6441 182.383 71.0907 182.225 70.6168 181.912C70.0356 181.511 69.6216 180.895 69.4576 180.19C69.2937 179.484 69.392 178.74 69.7328 178.106C70.0188 177.603 70.4419 177.2 70.9483 176.948C71.2826 176.781 71.6477 176.69 72.0187 176.682C72.1547 176.672 72.2912 176.691 72.4193 176.74C71.9401 176.781 71.4721 176.913 71.038 177.128C70.5869 177.386 70.2138 177.769 69.9607 178.236C69.6712 178.816 69.5928 179.486 69.74 180.122C69.8873 180.758 70.2501 181.317 70.7618 181.696C71.1928 181.992 71.6959 182.154 72.2121 182.163C72.6922 182.151 73.1656 182.043 73.6072 181.847Z" fill="#263238"/>
<path d="M75.237 173.697C74.1961 173.763 73.1654 173.949 72.1638 174.251L71.701 174.409L72.0464 174.042C72.7114 173.41 73.288 172.684 73.7591 171.884C74.1273 171.216 74.2546 170.433 74.1182 169.676C74.0422 169.338 73.8489 169.072 73.5864 169.065C73.3134 169.07 73.0455 169.144 72.806 169.281C72.4398 169.477 72.1156 169.748 71.853 170.079C71.6665 170.316 71.5905 170.475 71.5698 170.46C71.5981 170.296 71.6671 170.142 71.7701 170.014C72.0083 169.635 72.3334 169.323 72.7163 169.108C72.9821 168.935 73.287 168.838 73.6002 168.827C73.6965 168.83 73.7911 168.854 73.8779 168.898C73.9647 168.941 74.0419 169.003 74.1044 169.079C74.2282 169.231 74.3158 169.411 74.3599 169.604C74.5306 170.428 74.4027 171.289 74.0008 172.021C73.5199 172.855 72.9163 173.605 72.2121 174.244L72.0947 174.028C72.8302 173.798 73.5921 173.672 74.3599 173.654C74.6524 173.614 74.9494 173.629 75.237 173.697Z" fill="#263238"/>
<path d="M97.0409 165.188L111.758 162.231L139.991 168.978L154.3 172.086L154.507 192.449L122.587 198.571L101.047 191.924L92.9041 179.444L97.0409 165.188Z" fill="#FFBE9D"/>
<path d="M86.585 167.216L100.473 163.807C100.473 163.807 110.294 195.456 134.528 194.068C154.28 192.953 154.3 172.086 154.3 172.086L168.741 174.74C168.741 174.74 174.798 212.928 168.161 239.715C162.636 262.014 157.733 292.57 157.733 292.57H61.7986L86.585 167.216Z" fill="#00707E"/>
<path d="M227.313 265.064C227.313 265.064 187.747 192.867 180.627 183.602C172.83 173.46 166.607 174.632 166.607 174.632L162.422 223.265L196.062 272.976L204.08 275.99L227.313 265.064Z" fill="#00707E"/>
<path d="M88.2424 166.813C88.2424 166.813 65.7558 168.683 57.6894 207.095C54.0429 224.452 49.402 244.794 48.1036 258.461C47.1367 268.38 53.0139 278.695 62.5099 279.961L74.43 282.263C77.5792 282.871 80.8327 282.199 83.5204 280.385C86.2081 278.57 88.1256 275.751 88.8778 272.509L92.9041 255.145L82.1788 251.39L84.6581 199.664L88.2424 166.813Z" fill="#00707E"/>
<path d="M170.578 201.585C170.631 201.758 170.666 201.936 170.682 202.117C170.744 202.505 170.813 203.023 170.91 203.664C170.958 204.002 171.006 204.383 171.068 204.786C171.131 205.188 171.151 205.642 171.193 206.124C171.29 207.08 171.4 208.174 171.448 209.389C171.615 212.232 171.633 215.082 171.504 217.927C171.342 221.41 171.01 224.881 170.509 228.329C169.991 231.997 169.342 235.464 168.686 238.6C168.03 241.737 167.374 244.549 166.814 246.908C166.255 249.268 165.765 251.16 165.433 252.469C165.267 253.095 165.136 253.598 165.032 253.972C164.991 254.148 164.938 254.321 164.874 254.49C164.888 254.31 164.918 254.132 164.963 253.958C165.046 253.569 165.164 253.066 165.302 252.433L166.573 246.815C167.104 244.448 167.74 241.636 168.368 238.5C168.997 235.364 169.646 231.904 170.164 228.242C170.682 224.581 171.034 221.049 171.179 217.877C171.324 214.705 171.338 211.792 171.179 209.375C171.179 208.166 171.055 207.073 170.979 206.109C170.944 205.634 170.91 205.188 170.882 204.771C170.854 204.354 170.792 203.994 170.758 203.649C170.689 203.009 170.64 202.491 170.599 202.103C170.581 201.931 170.574 201.758 170.578 201.585Z" fill="#263238"/>
<path d="M93.9539 257C93.9062 256.899 93.8669 256.793 93.8365 256.684C93.7674 256.447 93.6707 256.144 93.5533 255.756L93.1113 254.267C92.9869 253.59 92.7126 252.952 92.3102 252.404C91.7187 251.813 91.0121 251.362 90.2383 251.08C89.3285 250.722 88.3903 250.448 87.4344 250.26C85.1556 249.821 82.8455 249.58 80.5282 249.541H80.3417V249.354L82.3722 235.565C83.6774 226.883 84.8653 219.021 85.7286 213.266C86.1775 210.447 86.5366 208.152 86.7921 206.526C86.9164 205.757 87.02 205.145 87.096 204.692C87.096 204.505 87.1582 204.347 87.1858 204.217C87.1907 204.163 87.2047 204.109 87.2272 204.059C87.2378 204.114 87.2378 204.17 87.2272 204.225C87.2272 204.354 87.2272 204.512 87.172 204.707C87.1167 205.16 87.0338 205.771 86.9372 206.548C86.7093 208.181 86.3847 210.483 85.991 213.309C85.1485 219.064 84.002 226.912 82.7313 235.608C81.9854 240.571 81.2879 245.268 80.6594 249.39L80.5006 249.196C82.846 249.259 85.1819 249.531 87.4827 250.009C88.4519 250.21 89.4018 250.501 90.3212 250.879C91.1267 251.187 91.8559 251.678 92.4552 252.318C92.702 252.607 92.8858 252.948 92.9939 253.318L93.2494 254.274C93.4083 254.857 93.5395 255.36 93.65 255.778C93.7605 256.195 93.8295 256.497 93.8848 256.72C93.9162 256.811 93.9393 256.905 93.9539 257Z" fill="#263238"/>
<path d="M62.9796 262.87C63.0017 262.542 63.062 262.219 63.1591 261.906C63.3763 261.039 63.6675 260.194 64.0293 259.381C65.207 256.665 67.043 254.314 69.3569 252.559C71.6707 250.805 74.3829 249.708 77.227 249.376C78.0792 249.267 78.939 249.238 79.7962 249.289C80.1127 249.293 80.4277 249.334 80.7354 249.412C79.5813 249.418 78.4284 249.493 77.2823 249.635C74.5029 250.034 71.8612 251.142 69.5924 252.862C67.3236 254.581 65.498 256.858 64.2779 259.489C63.7875 260.591 63.3541 261.72 62.9796 262.87Z" fill="#263238"/>
<path d="M68.1799 243.751C68.3558 243.704 68.5376 243.687 68.7186 243.7C69.2145 243.691 69.7105 243.715 70.2035 243.772C71.8341 243.943 73.4323 244.36 74.948 245.009C76.4633 245.663 77.8818 246.537 79.1608 247.606C79.5485 247.926 79.9154 248.272 80.2589 248.642C80.5006 248.908 80.6318 249.059 80.6111 249.081C80.5904 249.102 80.0034 248.577 79.0089 247.815C76.401 245.825 73.3669 244.526 70.1689 244.031C68.9465 243.844 68.1799 243.815 68.1799 243.751Z" fill="#263238"/>
<path d="M91.4538 194.068C91.4086 193.727 91.3924 193.383 91.4055 193.039C91.4055 192.378 91.364 191.428 91.2812 190.256C91.0739 187.196 90.5694 184.167 89.7756 181.214C88.9705 178.265 87.8855 175.407 86.5366 172.683C86.0117 171.64 85.5697 170.805 85.2451 170.244C85.0632 169.957 84.906 169.654 84.7755 169.338C84.9959 169.594 85.1925 169.871 85.3625 170.165C85.7286 170.712 86.2051 171.525 86.7438 172.561C89.6181 177.993 91.2489 184.044 91.5091 190.241C91.5574 191.421 91.5505 192.399 91.5091 193.039C91.5233 193.383 91.5048 193.728 91.4538 194.068Z" fill="#263238"/>
<g opacity="0.3">
<path d="M169.556 233.803C175.288 223.682 175.412 210.533 170.406 199.995C172.016 211.222 171.67 222.66 169.383 233.759" fill="black"/>
</g>
<g opacity="0.3">
<path d="M118.519 245.247C114.168 246.578 108.16 246.901 103.899 245.247C107.221 250.16 113.623 251.936 119.175 250.34C124.728 248.743 129.852 242.952 130.28 236.96C127.594 240.744 122.877 243.938 118.519 245.247Z" fill="black"/>
</g>
<path d="M134.528 228.904C134.508 229.042 134.473 229.177 134.424 229.307C134.341 229.566 134.245 229.962 134.051 230.436C133.548 231.811 132.921 233.133 132.18 234.385C131.086 236.252 129.766 237.964 128.25 239.478C124.532 243.248 119.732 245.647 114.583 246.311C112.501 246.593 110.393 246.593 108.312 246.311C106.906 246.129 105.519 245.814 104.168 245.369C103.685 245.218 103.332 245.053 103.084 244.959C102.958 244.915 102.835 244.859 102.718 244.794C103.219 244.911 103.715 245.055 104.203 245.225C110.05 246.919 116.286 246.38 121.786 243.708C127.231 240.92 131.532 236.187 133.906 230.372C134.307 229.436 134.493 228.89 134.528 228.904Z" fill="#263238"/>
<path d="M86.0186 279.263C86.0186 279.263 85.9703 279.342 85.846 279.457C85.6721 279.637 85.4851 279.803 85.2866 279.954C84.5641 280.515 83.7628 280.956 82.9109 281.263C81.6442 281.701 80.3225 281.944 78.9881 281.982C77.3746 282.035 75.7595 281.975 74.1538 281.802C70.7007 281.493 67.6343 280.968 65.4174 280.558C64.3056 280.349 63.4077 280.169 62.7931 280.033C62.4657 279.987 62.144 279.905 61.8331 279.788C62.1621 279.793 62.4902 279.827 62.8138 279.889L65.4589 280.292C67.6827 280.644 70.7628 281.119 74.1883 281.428C75.7941 281.601 77.4086 281.671 79.0227 281.637C80.3298 281.608 81.6268 281.39 82.8763 280.989C84.0009 280.581 85.0602 279.999 86.0186 279.263Z" fill="#263238"/>
<path d="M164.017 90.0053L166.856 87.1281C170.633 88.84 172.381 93.4076 173.023 97.6516C173.665 101.896 173.569 106.355 175.302 110.254C176.628 113.253 179.038 116.008 178.755 119.324C178.486 122.453 175.765 124.985 175.751 128.129C175.751 131.157 178.168 133.48 179.577 136.127C182.429 141.486 184.28 163.411 182.788 169.345C170.24 168.216 148.016 166.82 135.46 163.814C138.768 141.285 152.698 109.491 164.017 90.0053Z" fill="#263238"/>
<path d="M169.632 110.088C170.502 94.7743 159.825 80.7622 144.942 78.9135C129.148 76.957 115.177 88.7393 113.864 104.766L110.163 169.46C110.095 170.711 110.431 171.949 111.116 172.978C114.762 178.531 121.365 182.875 127.269 183.731C132.981 184.559 138.775 183.012 143.637 180.192C144.444 179.718 145.116 179.03 145.588 178.2C146.059 177.369 146.313 176.424 146.324 175.459L146.579 160.98C146.578 160.967 146.58 160.954 146.584 160.943C146.588 160.931 146.595 160.92 146.603 160.911C146.612 160.902 146.622 160.895 146.633 160.891C146.645 160.887 146.657 160.885 146.669 160.886C147.97 160.988 149.278 160.95 150.571 160.771C154.245 159.836 163.617 156.081 166.766 141.753C167.816 137.005 168.865 123.518 169.632 110.088Z" fill="#FFBE9D"/>
<path d="M149.203 131.243C149.203 131.1 150.744 130.941 153.237 130.797C153.865 130.797 154.466 130.69 154.618 130.258C154.711 129.598 154.604 128.925 154.314 128.33L152.767 123.295C150.626 116.159 149.121 110.311 149.397 110.232C149.673 110.153 151.641 115.857 153.782 122.993C154.293 124.755 154.784 126.431 155.253 128.028C155.447 128.747 155.799 129.625 155.419 130.567C155.313 130.787 155.161 130.978 154.973 131.127C154.785 131.275 154.566 131.377 154.335 131.423C153.983 131.496 153.623 131.523 153.264 131.502C150.75 131.488 149.21 131.387 149.203 131.243Z" fill="#263238"/>
<path d="M165.571 115.505C165.302 115.814 163.672 114.39 161.338 114.318C159.003 114.246 157.263 115.519 157.014 115.188C156.89 115.037 157.173 114.469 157.933 113.879C158.937 113.128 160.151 112.744 161.386 112.786C162.62 112.83 163.804 113.304 164.749 114.131C165.474 114.778 165.744 115.368 165.571 115.505Z" fill="#263238"/>
<path d="M141.855 116.123C141.538 116.433 139.839 114.829 137.29 114.599C134.742 114.368 132.76 115.584 132.504 115.224C132.38 115.059 132.725 114.505 133.589 113.915C134.745 113.201 136.09 112.889 137.428 113.023C138.768 113.147 140.033 113.72 141.033 114.656C141.786 115.354 142.007 115.987 141.855 116.123Z" fill="#263238"/>
<path d="M146.579 160.879C146.579 160.879 137.062 160.987 125.681 152.844C125.681 152.844 128.623 165.921 146.503 165.511L146.579 160.879Z" fill="#EB996E"/>
<path d="M147.788 137.214C147.354 136.577 146.774 136.063 146.101 135.72C145.428 135.377 144.683 135.216 143.934 135.25C143.393 135.258 142.86 135.38 142.365 135.607C141.87 135.834 141.424 136.163 141.054 136.573C140.701 136.967 140.474 137.465 140.406 137.999C140.338 138.533 140.432 139.076 140.674 139.551C141.275 140.551 142.643 140.875 143.837 140.616C145.021 140.279 146.128 139.702 147.097 138.918C147.385 138.727 147.637 138.483 147.843 138.199C147.94 138.066 147.997 137.907 148.007 137.74C148.017 137.574 147.979 137.408 147.898 137.264" fill="#EB996E"/>
<path d="M141.883 132.445C142.283 132.445 142.125 135.178 144.279 137.278C146.434 139.379 149.286 139.278 149.286 139.659C149.286 139.839 148.596 140.148 147.422 140.091C145.865 140.001 144.387 139.353 143.237 138.257C142.141 137.213 141.482 135.765 141.399 134.221C141.365 133.078 141.703 132.445 141.883 132.445Z" fill="#263238"/>
<path d="M142.263 106.096C141.973 106.758 139.549 106.247 136.655 106.37C133.761 106.492 131.379 107.089 131.033 106.478C130.888 106.168 131.33 105.564 132.318 104.974C133.631 104.262 135.081 103.866 136.561 103.816C138.041 103.766 139.513 104.064 140.868 104.686C141.869 105.204 142.359 105.78 142.263 106.096Z" fill="#263238"/>
<path d="M166.075 106.636C165.578 107.211 163.61 106.636 161.241 106.636C158.872 106.636 156.883 107.046 156.407 106.449C156.199 106.161 156.51 105.586 157.38 105.01C158.585 104.353 159.93 104.023 161.29 104.054C162.65 104.084 163.98 104.472 165.157 105.183C166.013 105.765 166.296 106.355 166.075 106.636Z" fill="#263238"/>
<path d="M147.097 75.6766C145.813 73.4036 143.43 72.3678 140.764 71.9506C129.88 70.2314 117.739 77.0577 111.641 86.5958C105.542 96.1338 105.218 110.369 109.679 120.842L116.468 116.426C130.094 110.57 139.714 96.8963 148.478 82.769C149.701 80.8485 148.237 77.6547 147.097 75.6766Z" fill="#263238"/>
<path d="M163.865 81.9131C159.314 76.5183 156.006 71.1234 146.558 74.8926C145.177 77.6476 147.94 81.2225 150.315 83.3085C153.768 86.3728 156.731 88.4372 158.983 90.6311C163.527 95.0549 168.693 109.937 169.142 118.058C169.142 118.569 170.005 111.088 170.523 111.009C171.158 110.908 173.72 107.643 173.368 103.183C172.153 87.9409 168.417 87.3007 163.865 81.9131Z" fill="#263238"/>
<path d="M140.792 71.9506C141.501 71.8064 142.236 71.8712 142.912 72.1376C144.584 72.6717 146.074 73.6925 147.208 75.0796C147.531 75.4696 147.818 75.8911 148.064 76.3384C148.279 76.7705 148.445 77.2266 148.561 77.6979C148.808 78.4578 148.995 79.2372 149.121 80.0285C149.307 81.4167 148.989 82.2583 148.92 82.2367C148.851 82.2152 148.955 81.388 148.665 80.1148C148.473 79.3615 148.243 78.6196 147.974 77.8921C147.851 77.4668 147.69 77.0549 147.491 76.6621C147.257 76.2498 146.989 75.8599 146.69 75.4968C145.62 74.2065 144.267 73.2046 142.746 72.5764C141.572 72.1376 140.778 72.0657 140.792 71.9506Z" fill="#455A64"/>
<path d="M163.416 120.216C163.417 120.768 163.215 121.299 162.852 121.701C162.488 122.102 161.991 122.343 161.462 122.374C161.199 122.4 160.934 122.371 160.683 122.288C160.431 122.206 160.198 122.072 159.996 121.894C159.795 121.717 159.63 121.499 159.51 121.254C159.391 121.009 159.319 120.742 159.3 120.468C159.287 119.908 159.483 119.364 159.848 118.952C160.213 118.54 160.717 118.291 161.255 118.26C161.521 118.233 161.791 118.263 162.046 118.348C162.301 118.434 162.537 118.572 162.739 118.755C162.941 118.938 163.105 119.162 163.222 119.413C163.338 119.664 163.405 119.938 163.416 120.216Z" fill="#263238"/>
<path d="M140.667 120.331C140.681 120.892 140.484 121.436 140.12 121.848C139.755 122.26 139.25 122.508 138.713 122.54C138.451 122.566 138.186 122.538 137.934 122.456C137.683 122.375 137.449 122.242 137.248 122.065C137.046 121.888 136.881 121.671 136.761 121.426C136.642 121.182 136.57 120.914 136.551 120.641C136.536 120.079 136.732 119.533 137.097 119.12C137.462 118.706 137.967 118.457 138.506 118.425C138.769 118.399 139.034 118.427 139.286 118.509C139.538 118.591 139.772 118.725 139.973 118.903C140.175 119.08 140.34 119.298 140.459 119.544C140.578 119.789 140.649 120.057 140.667 120.331Z" fill="#263238"/>
<path d="M78.0696 138.336C79.3542 136.135 80.8321 134.063 83.1802 133.15C85.5283 132.236 88.1941 131.711 90.0381 129.927C92.9318 127.158 92.8005 122.554 92.5381 118.54C92.2757 114.527 92.2066 109.909 95.1625 107.211C97.6349 104.96 101.565 104.758 103.705 102.176C105.135 100.457 105.418 98.0832 105.915 95.8893C107.297 90.0125 110.384 79.7479 127.014 73.8424L112.304 132.063C113.402 132.387 116.026 134.991 116.171 136.753C116.302 138.401 115.619 140.069 115.605 141.724C115.605 143.745 117.718 144.953 119.058 146.45C120.757 148.356 121.282 151.104 121.019 153.643C120.475 157.113 119.583 160.515 118.36 163.792C104.714 162.354 84.7963 161.893 74.3955 152.83C72.5101 151.19 75.2105 143.234 78.0696 138.336Z" fill="#263238"/>
<path d="M116.496 116.426C116.24 116.282 106.192 112.11 105.549 123.151C104.907 134.193 115.66 132.553 115.695 132.243C115.729 131.934 116.496 116.426 116.496 116.426Z" fill="#FFBE9D"/>
<path d="M112.711 127.87C112.663 127.827 112.518 127.992 112.193 128.114C111.744 128.285 111.248 128.267 110.812 128.064C109.721 127.561 108.885 125.654 108.947 123.669C108.982 122.723 109.218 121.797 109.638 120.957C109.758 120.62 109.955 120.318 110.211 120.076C110.467 119.835 110.775 119.661 111.109 119.569C111.324 119.524 111.548 119.559 111.741 119.668C111.934 119.777 112.084 119.953 112.166 120.166C112.29 120.482 112.207 120.698 112.262 120.72C112.317 120.741 112.504 120.547 112.442 120.087C112.402 119.809 112.27 119.555 112.069 119.368C111.792 119.119 111.432 118.995 111.067 119.022C110.628 119.083 110.211 119.261 109.857 119.538C109.502 119.815 109.223 120.182 109.044 120.605C108.539 121.532 108.259 122.574 108.229 123.64C108.167 125.863 109.134 128.006 110.639 128.56C110.917 128.666 111.215 128.704 111.509 128.671C111.804 128.639 112.087 128.537 112.338 128.373C112.677 128.129 112.746 127.891 112.711 127.87Z" fill="#EB996E"/>
<path d="M154.1 119.31C154.156 118.48 154.269 117.656 154.438 116.843C154.758 115.482 155.346 114.207 156.166 113.096C156.985 111.986 158.018 111.066 159.199 110.396C160.379 109.725 161.681 109.318 163.02 109.2C164.36 109.083 165.709 109.258 166.98 109.714C167.855 110.022 168.68 110.468 169.425 111.038C170.22 111.611 170.92 112.315 171.497 113.124C172.734 114.812 173.419 116.868 173.452 118.991C173.484 121.115 172.862 123.193 171.676 124.921C171.129 125.746 170.457 126.475 169.687 127.079C168.962 127.674 168.151 128.148 167.284 128.481C165.682 129.124 163.943 129.308 162.249 129.014C160.772 128.76 159.374 128.146 158.168 127.222C156.402 125.884 155.12 123.966 154.528 121.777C154.338 120.968 154.199 120.146 154.114 119.317C154.111 119.372 154.111 119.428 154.114 119.483C154.114 119.619 154.114 119.778 154.114 119.972C154.12 120.235 154.145 120.497 154.19 120.756C154.228 121.113 154.292 121.467 154.383 121.813C154.937 124.065 156.217 126.051 158.009 127.438C159.336 128.472 160.892 129.14 162.533 129.379C164.174 129.618 165.846 129.42 167.394 128.805C169.232 128.081 170.821 126.804 171.959 125.136C173.191 123.347 173.837 121.192 173.804 118.99C173.77 116.789 173.058 114.656 171.773 112.908C171.175 112.074 170.452 111.346 169.632 110.75C168.866 110.178 168.021 109.731 167.125 109.427C165.559 108.863 163.882 108.721 162.25 109.014C160.617 109.307 159.082 110.026 157.788 111.103C156.036 112.55 154.816 114.582 154.335 116.857C154.256 117.208 154.2 117.563 154.169 117.922C154.135 118.184 154.119 118.448 154.121 118.713C154.121 118.907 154.121 119.065 154.121 119.195C154.112 119.233 154.105 119.271 154.1 119.31Z" fill="#455A64"/>
<path d="M127.414 119.756C127.47 118.927 127.581 118.102 127.746 117.289C128.265 115.082 129.481 113.122 131.199 111.721C132.377 110.759 133.757 110.098 135.225 109.794C136.91 109.447 138.652 109.573 140.274 110.16C141.148 110.471 141.972 110.917 142.719 111.484C143.513 112.059 144.212 112.763 144.79 113.57C146.026 115.257 146.711 117.311 146.745 119.433C146.778 121.554 146.159 123.631 144.977 125.359C144.426 126.185 143.753 126.914 142.981 127.517C142.256 128.113 141.444 128.587 140.578 128.92C138.975 129.563 137.237 129.747 135.543 129.452C134.068 129.199 132.672 128.585 131.468 127.661C129.701 126.323 128.417 124.406 127.822 122.216C127.632 121.407 127.495 120.585 127.414 119.756C127.407 119.811 127.407 119.867 127.414 119.921C127.414 120.051 127.414 120.216 127.414 120.411C127.414 120.674 127.437 120.936 127.483 121.195C127.521 121.552 127.588 121.906 127.684 122.252C128.232 124.507 129.513 126.494 131.31 127.877C132.531 128.833 133.95 129.478 135.453 129.762C137.2 130.075 138.996 129.896 140.654 129.244C142.494 128.526 144.085 127.247 145.219 125.575C146.45 123.785 147.097 121.631 147.063 119.429C147.03 117.227 146.318 115.095 145.032 113.347C143.844 111.716 142.216 110.492 140.357 109.83C138.679 109.232 136.878 109.116 135.142 109.491C133.294 109.887 131.594 110.83 130.246 112.207C128.899 113.583 127.961 115.335 127.546 117.253C127.46 117.602 127.404 117.958 127.38 118.317C127.339 118.579 127.323 118.844 127.332 119.109V119.591C127.347 119.651 127.376 119.708 127.414 119.756Z" fill="#455A64"/>
<path d="M146.476 119.001C146.531 119.037 146.807 118.569 147.449 118.03C148.273 117.318 149.304 116.92 150.373 116.901C151.443 116.881 152.487 117.241 153.333 117.922C154.024 118.432 154.286 118.893 154.335 118.85C154.163 118.395 153.871 118.001 153.492 117.713C152.627 116.925 151.511 116.5 150.362 116.523C149.212 116.545 148.112 117.013 147.277 117.835C146.91 118.138 146.632 118.542 146.476 119.001Z" fill="#455A64"/>
<path d="M114.065 115.721C114.7 115.931 115.355 116.07 116.019 116.138C117.242 116.339 118.934 116.526 120.798 116.699L125.584 117.145C126.24 117.25 126.903 117.303 127.566 117.303C126.931 117.091 126.276 116.949 125.612 116.879C124.396 116.685 122.704 116.498 120.833 116.325L116.054 115.879C115.396 115.769 114.731 115.716 114.065 115.721Z" fill="#455A64"/>
<path d="M169.515 125.532C170.376 124.495 171.076 123.322 171.586 122.058C171.988 120.749 172.19 119.382 172.187 118.008C172.341 118.395 172.412 118.812 172.394 119.231C172.419 120.238 172.26 121.242 171.925 122.187C171.591 123.133 171.084 124.003 170.433 124.748C169.929 125.309 169.542 125.568 169.515 125.532Z" fill="white"/>
<path d="M171.186 114.167C171.241 114.081 171.635 114.289 171.877 114.778C172.118 115.267 172.015 115.713 171.918 115.706C171.821 115.699 171.738 115.332 171.552 114.937C171.365 114.541 171.124 114.246 171.186 114.167Z" fill="white"/>
<path d="M145.136 123.353C145.08 123.353 145.274 122.777 145.433 121.849C145.84 119.415 145.391 116.91 144.169 114.793C143.706 113.987 143.333 113.541 143.375 113.498C143.782 113.807 144.124 114.199 144.383 114.649C145.076 115.695 145.553 116.88 145.783 118.128C146.012 119.376 145.989 120.661 145.716 121.9C145.619 122.42 145.421 122.914 145.136 123.353Z" fill="white"/>
<path d="M108.422 132.092C108.422 132.092 108.277 132.308 108.07 132.704C107.773 133.266 107.616 133.896 107.614 134.538C107.603 135.003 107.685 135.465 107.853 135.896C108.022 136.327 108.275 136.717 108.595 137.041C108.981 137.441 109.453 137.74 109.972 137.914C110.49 138.088 111.041 138.131 111.579 138.041C112.113 137.926 112.614 137.684 113.043 137.333C113.472 136.983 113.817 136.533 114.051 136.02C114.24 135.598 114.344 135.141 114.357 134.675C114.37 134.21 114.292 133.747 114.127 133.315C113.909 132.716 113.553 132.183 113.091 131.761C112.759 131.466 112.538 131.344 112.552 131.315C112.78 131.376 112.993 131.489 113.174 131.646C113.701 132.045 114.112 132.588 114.362 133.214C114.562 133.678 114.665 134.181 114.665 134.689C114.665 135.197 114.562 135.7 114.362 136.163C114.124 136.742 113.752 137.249 113.28 137.641C112.807 138.032 112.249 138.295 111.655 138.406C111.06 138.518 110.449 138.474 109.875 138.278C109.301 138.082 108.783 137.741 108.367 137.286C108.023 136.926 107.756 136.495 107.583 136.02C107.411 135.545 107.336 135.037 107.366 134.531C107.39 133.853 107.593 133.196 107.953 132.632C108.194 132.236 108.422 132.078 108.422 132.092Z" fill="#E0E0E0"/>
<path d="M166.759 140.58C167.343 140.824 167.988 140.864 168.596 140.695C169.247 140.505 169.833 140.129 170.288 139.609C170.849 138.978 171.227 138.195 171.379 137.35C171.537 136.505 171.436 135.629 171.089 134.847C170.805 134.206 170.382 133.642 169.853 133.2C169.343 132.811 168.785 132.494 168.196 132.258C168.371 132.241 168.548 132.266 168.713 132.33C169.181 132.465 169.62 132.686 170.012 132.984C170.598 133.433 171.072 134.023 171.393 134.703C171.787 135.544 171.909 136.496 171.738 137.415C171.569 138.334 171.147 139.181 170.523 139.854C170.016 140.404 169.365 140.786 168.651 140.954C168.173 141.072 167.672 141.044 167.208 140.875C166.883 140.738 166.745 140.594 166.759 140.58Z" fill="#E0E0E0"/>
<path d="M128.45 283.406L138.692 286.564C138.692 286.564 144.341 289.089 147.09 289.743C150.502 290.556 152.829 289.456 152.954 287.478C153.078 285.499 150.426 285.248 150.426 285.248C148.172 284.353 145.98 283.298 143.865 282.09C142.329 280.979 141.074 279.498 140.205 277.774L143.865 278.299C143.865 278.299 151.565 284.054 154.466 285.794C157.367 287.535 158.002 284.478 158.251 283.557C158.499 282.637 149.673 273.307 149.673 273.307C149.673 273.307 158.126 278.961 159.639 280.371C161.151 281.781 163.43 282.241 163.934 281.327C164.439 280.414 165.827 280.407 163.934 276.508C162.042 272.609 146.897 262.122 146.897 262.122L151.041 261.201L155.585 263.309C155.901 264.933 156.546 266.468 157.477 267.812C159.114 270.344 162.021 267.812 162.021 267.812L160.219 258.101L151.241 252.246C151.241 252.246 141.904 253.433 140.515 254.087C139.127 254.742 137.608 257.497 137.608 257.497L135.087 258.561C131.171 259.741 131.303 263.819 130.039 263.949C128.775 264.078 91.9373 256.598 91.9373 256.598L88.6016 255.691C83.0766 260.057 80.8735 267.272 79.8998 273.674C79.8998 273.674 78.8845 276.81 79.8998 278.537L128.45 283.406Z" fill="#FFBE9D"/>
<path d="M121.689 276.58C121.646 276.375 121.634 276.163 121.655 275.954C121.652 275.713 121.673 275.472 121.717 275.235C121.749 274.909 121.809 274.586 121.896 274.271C122.415 272.455 123.292 270.772 124.472 269.329C125.618 267.88 126.895 266.548 128.285 265.352C128.835 264.828 129.435 264.363 130.073 263.963C129.562 264.514 129.02 265.033 128.45 265.517C127.122 266.757 125.885 268.098 124.749 269.531C123.602 270.942 122.719 272.564 122.145 274.314C121.738 275.688 121.765 276.587 121.689 276.58Z" fill="#EB996E"/>
<path d="M137.642 257.497C137.642 257.497 137.339 257.662 136.869 258.058C136.214 258.634 135.648 259.31 135.191 260.065C134.86 260.575 134.578 261.117 134.348 261.683C134.136 262.35 134.001 263.04 133.948 263.74C133.853 264.555 133.573 265.334 133.133 266.013C132.633 266.671 132.222 267.397 131.91 268.171C131.437 269.479 131.437 270.921 131.91 272.228L131.959 272.365L131.841 272.444C130.24 273.521 129.081 275.18 128.588 277.098C128.419 277.854 128.315 278.624 128.278 279.4C128.222 279.199 128.198 278.99 128.209 278.781C128.201 278.198 128.261 277.616 128.388 277.048C128.829 275.033 130.002 273.274 131.662 272.142L131.593 272.358C131.093 270.966 131.093 269.433 131.593 268.042C131.911 267.245 132.339 266.502 132.863 265.834C133.283 265.189 133.549 264.449 133.637 263.676C133.72 262.305 134.202 260.993 135.018 259.914C135.506 259.149 136.118 258.48 136.828 257.935C137.019 257.786 137.228 257.662 137.449 257.569C137.51 257.536 137.575 257.512 137.642 257.497Z" fill="#EB996E"/>
<path d="M146.51 261.798C145.626 261.917 144.728 261.818 143.888 261.508C143.048 261.198 142.29 260.686 141.676 260.014C141.745 259.928 142.67 260.669 144.003 261.151C145.336 261.633 146.51 261.69 146.51 261.798Z" fill="#EB996E"/>
<path d="M148.872 272.422C147.538 272.033 146.242 271.517 144.998 270.883C143.705 270.366 142.458 269.736 141.268 268.998C142.598 269.399 143.894 269.914 145.143 270.538C146.435 271.055 147.682 271.685 148.872 272.422Z" fill="#EB996E"/>
<path d="M140.564 277.673C139.223 277.2 137.913 276.638 136.641 275.99C137.362 276.023 138.068 276.215 138.713 276.551C139.401 276.78 140.033 277.163 140.564 277.673Z" fill="#EB996E"/>
<path d="M147.601 273.106C147.007 273.438 146.484 273.893 146.065 274.444C145.645 274.994 145.339 275.628 145.163 276.307C145.115 276.307 145.074 276.055 145.163 275.652C145.261 275.124 145.479 274.629 145.799 274.207C146.118 273.785 146.53 273.45 147 273.228C147.339 273.077 147.587 273.063 147.601 273.106Z" fill="#EB996E"/>
<path d="M151.303 267.272C151.344 267.373 150.668 267.733 150.212 268.538C149.98 269.049 149.786 269.578 149.632 270.121C149.534 269.824 149.508 269.506 149.556 269.196C149.604 268.886 149.725 268.593 149.908 268.344C150.433 267.423 151.289 267.171 151.303 267.272Z" fill="#EB996E"/>
<path d="M150.26 256.705C150.226 256.705 150.087 256.54 149.984 256.195C149.86 255.724 149.86 255.227 149.984 254.756C150.104 254.291 150.343 253.869 150.674 253.533C150.923 253.282 151.13 253.195 151.151 253.231C150.822 253.734 150.555 254.277 150.357 254.85C150.254 255.462 150.222 256.085 150.26 256.705Z" fill="#EB996E"/>
<path d="M224.923 260.014C224.923 260.014 224.46 250.577 215.068 248.62C205.675 246.664 189.225 254.979 189.225 254.979L143.133 288.434L144.514 292.57L191.297 285.78L195.579 287.492L228.438 265.006L259.447 241.658L255.994 238.845C255.994 238.845 247.306 245.081 241.56 247.764C235.814 250.447 227.506 255.152 224.923 260.014Z" fill="#F5F5F5"/>
<path d="M142.422 293.937L181.428 268.696L222.665 261.798C222.665 261.798 224.737 264.92 228.238 264.158L262.147 239.701L262.79 241.176L197.029 289.297C196.063 289.665 195.019 289.751 194.01 289.545C193.001 289.34 192.065 288.851 191.304 288.132L142.422 293.937Z" fill="#455A64"/>
<path d="M222.665 261.798C222.571 261.904 222.464 261.996 222.347 262.072L221.394 262.791C220.565 263.409 219.37 264.309 217.941 265.445C215.013 267.711 211.035 270.941 206.739 274.602C202.443 278.263 198.583 281.666 195.82 284.147L192.526 287.096L191.628 287.888C191.531 287.988 191.422 288.075 191.304 288.147C191.304 288.147 191.387 288.031 191.58 287.837L192.429 286.988C193.175 286.269 194.26 285.219 195.627 283.96C198.348 281.428 202.167 278.004 206.483 274.329C210.8 270.653 214.771 267.459 217.761 265.244C219.239 264.129 220.462 263.266 221.318 262.683L222.306 262.021C222.418 261.936 222.539 261.861 222.665 261.798Z" fill="#263238"/>
<path d="M222.243 256.547C218.507 252.368 212.623 250.879 207.153 251.325C201.684 251.771 196.497 253.893 191.393 256.001L143.678 290.017L144.107 291.297L192.077 257.49C192.077 257.49 202.796 253.893 207.54 253.274C215.468 252.246 222.243 256.547 222.243 256.547Z" fill="#E0E0E0"/>
<path d="M229.73 261.021L252.672 244.902C252.672 244.902 233.873 255.087 229.73 261.021Z" fill="#E0E0E0"/>
<path d="M143.678 290.017C143.737 289.955 143.802 289.899 143.872 289.851L144.466 289.413L146.752 287.737L155.205 281.637L183.175 261.633L191.297 255.878C195.918 253.707 200.795 252.18 205.8 251.339C209.843 250.745 213.965 251.351 217.692 253.087C219.086 253.762 220.37 254.66 221.498 255.749C222.341 256.567 223.058 257.516 223.625 258.561C223.981 259.217 224.259 259.915 224.453 260.64C224.502 260.877 224.543 261.064 224.578 261.208C224.593 261.272 224.604 261.337 224.612 261.403C224.364 260.432 223.997 259.499 223.521 258.626C222.941 257.608 222.219 256.684 221.38 255.885C220.25 254.831 218.974 253.958 217.596 253.296C213.904 251.625 209.839 251.057 205.855 251.656C200.89 252.503 196.052 254.019 191.462 256.166H191.497L183.375 261.92L155.385 281.853L146.862 287.859L144.542 289.47L143.927 289.887C143.849 289.939 143.765 289.983 143.678 290.017Z" fill="#263238"/>
<path d="M185.447 264.301C185.556 264.208 185.677 264.13 185.806 264.071C186.048 263.935 186.407 263.726 186.87 263.481C187.802 262.978 189.163 262.273 190.875 261.467C195.317 259.299 200.029 257.795 204.874 257C209.745 256.235 214.721 256.709 219.377 258.381C220.777 258.907 222.121 259.58 223.39 260.388C223.846 260.662 224.17 260.928 224.398 261.108C224.519 261.185 224.632 261.274 224.737 261.374C224.737 261.374 224.232 261.072 223.321 260.532C222.036 259.781 220.688 259.152 219.294 258.655C214.659 257.071 209.733 256.64 204.909 257.396C200.099 258.188 195.41 259.639 190.965 261.712C189.246 262.489 187.871 263.15 186.918 263.618L185.827 264.143C185.706 264.209 185.579 264.262 185.447 264.301Z" fill="#263238"/>
<path d="M258.218 240.643C258.218 240.643 258.121 240.737 257.921 240.881L257.03 241.499L253.722 243.715C250.918 245.585 247.057 248.167 242.824 251.073C238.59 253.979 234.806 256.648 232.043 258.59L228.777 260.877L227.879 261.489C227.779 261.565 227.67 261.628 227.554 261.676C227.64 261.582 227.735 261.497 227.837 261.424L228.701 260.755C229.447 260.18 230.538 259.367 231.898 258.367C234.619 256.375 238.404 253.663 242.644 250.757C246.885 247.851 250.773 245.304 253.604 243.492C255.02 242.585 256.174 241.866 256.975 241.377L257.907 240.816C258.005 240.748 258.109 240.691 258.218 240.643Z" fill="#263238"/>
<path d="M237.347 266.51C236.879 267.684 236.283 268.799 235.572 269.833C234.688 270.926 231.802 272.451 231.574 274.53C231.346 276.609 231.815 281.486 228.694 285.197C226.682 287.506 224.135 289.24 221.297 290.233L208.984 288.981L189.315 280.917C188.875 280.802 188.497 280.511 188.262 280.107C188.026 279.703 187.953 279.219 188.058 278.76C188.18 278.26 188.442 277.81 188.811 277.466C189.18 277.123 189.639 276.902 190.13 276.832L190.599 276.753C190.599 276.753 189.467 275.789 191.09 274.098C192.471 272.66 195.42 273.473 196.939 273.998C198.459 274.523 207.367 278.4 208.963 278.997C210.379 279.522 211.47 279.99 211.47 279.99C211.47 279.99 200.068 271.976 199.909 270.926C199.722 269.667 199.847 269.092 201.014 268.214C202.395 267.171 204.66 268.286 206.856 269.25C208.493 269.97 218.928 275.336 218.928 275.336C218.928 275.336 219.398 274.861 218.928 273.897C218.459 272.933 214.992 268.286 214.446 267.423C213.901 266.56 213.756 266.071 214.301 265.344C215.061 264.316 217.064 263.827 218.908 265.582C220.075 266.704 224.226 269.61 224.226 269.61L243.383 255.051C243.383 255.051 245.766 254.986 244.937 258.446C244.108 261.906 237.347 266.51 237.347 266.51Z" fill="#FFBE9D"/>
<path d="M223.065 278.644C222.299 278.467 221.585 278.1 220.984 277.574C220.383 277.048 219.912 276.379 219.612 275.623C219.702 275.566 220.261 276.458 221.214 277.285C222.167 278.112 223.114 278.537 223.065 278.644Z" fill="#EB996E"/>
<path d="M224.64 269.962C224.64 269.919 224.895 269.84 225.331 269.898C225.873 269.98 226.384 270.216 226.807 270.58C227.229 270.944 227.548 271.422 227.727 271.962C227.858 272.379 227.837 272.681 227.789 272.681C227.5 272.01 227.087 271.404 226.574 270.897C225.993 270.458 225.337 270.14 224.64 269.962Z" fill="#EB996E"/>
<path d="M225.545 273.969C225.441 273.969 225.393 272.897 224.985 271.674C224.578 270.451 224.005 269.552 224.087 269.516C224.694 270.055 225.126 270.776 225.324 271.581C225.632 272.334 225.71 273.168 225.545 273.969Z" fill="#EB996E"/>
<path d="M236.878 265.474C236.878 265.51 236.636 265.366 236.387 265.021C236.072 264.562 235.875 264.027 235.814 263.467C235.754 262.907 235.832 262.34 236.042 261.82C236.208 261.431 236.394 261.237 236.429 261.266C236.183 261.955 236.095 262.695 236.173 263.425C236.251 264.156 236.492 264.858 236.878 265.474Z" fill="#EB996E"/>
<path d="M219.564 283.665C219.121 283.771 218.66 283.771 218.217 283.665C217.144 283.467 216.114 283.068 215.178 282.486C214.247 281.915 213.37 281.253 212.561 280.507C212.201 280.232 211.882 279.902 211.615 279.529C212.012 279.737 212.383 279.996 212.72 280.299C213.562 280.976 214.443 281.598 215.358 282.162C216.264 282.721 217.244 283.14 218.265 283.406C219.053 283.579 219.564 283.608 219.564 283.665Z" fill="#EB996E"/>
<path d="M222.768 281.608C222.865 281.608 222.872 282.327 222.292 282.924C221.712 283.521 221.007 283.493 221.021 283.392C221.035 283.291 221.567 283.147 222.036 282.673C222.506 282.198 222.665 281.594 222.768 281.608Z" fill="#EB996E"/>
<path d="M227.471 278.011C227.513 278.011 227.513 278.206 227.382 278.465C227.2 278.784 226.927 279.035 226.601 279.184C226.278 279.348 225.913 279.403 225.558 279.342C225.282 279.285 225.144 279.17 225.165 279.126C225.186 279.083 225.8 279.184 226.449 278.846C227.099 278.508 227.375 277.975 227.471 278.011Z" fill="#EB996E"/>
<path d="M210.883 286.176C210.848 286.269 206.269 284.284 200.662 281.73C195.054 279.177 190.537 277.026 190.606 276.94C190.675 276.853 195.226 278.839 200.834 281.392C206.442 283.946 210.924 286.082 210.883 286.176Z" fill="#EB996E"/>
<path d="M311 292.592C311 292.693 241.372 292.779 155.507 292.779C69.6421 292.779 0 292.693 0 292.592C0 292.491 69.6145 292.405 155.507 292.405C241.399 292.405 311 292.484 311 292.592Z" fill="#263238"/>
<path d="M82.0625 215.964L97.049 292.592H227.127C227.816 292.592 228.476 292.307 228.963 291.8C229.45 291.293 229.724 290.605 229.724 289.887C229.725 289.531 229.658 289.179 229.528 288.85C229.398 288.521 229.207 288.222 228.966 287.97C228.725 287.718 228.438 287.518 228.123 287.382C227.807 287.246 227.469 287.175 227.127 287.175H200.939L187.044 215.885C186.915 215.219 186.57 214.621 186.067 214.19C185.563 213.758 184.933 213.521 184.281 213.518L84.8802 212.41C84.4561 212.406 84.0363 212.5 83.6517 212.686C83.267 212.872 82.9272 213.146 82.6571 213.487C82.3869 213.827 82.1934 214.226 82.0905 214.655C81.9876 215.084 81.9781 215.531 82.0625 215.964Z" fill="#E0E0E0"/>
<path d="M82.0625 215.964L82.0211 215.734C81.993 215.495 81.993 215.253 82.0211 215.014C82.0701 214.556 82.2203 214.115 82.46 213.727C82.6996 213.339 83.0221 213.014 83.4023 212.777C83.6664 212.608 83.9559 212.487 84.2587 212.418C84.5963 212.359 84.9389 212.337 85.2808 212.353H87.622L93.4785 212.403L131.069 212.77L157.271 213.051L171.954 213.202L179.647 213.288L183.584 213.331C183.922 213.331 184.233 213.331 184.592 213.331C184.943 213.372 185.284 213.477 185.6 213.64C186.238 213.964 186.743 214.515 187.023 215.194C187.152 215.53 187.245 215.88 187.299 216.237L187.499 217.266C187.631 217.985 187.769 218.647 187.907 219.337C188.174 220.723 188.446 222.119 188.722 223.524C189.27 226.329 189.825 229.17 190.386 232.048C191.51 237.802 192.661 243.684 193.839 249.692C196.181 261.705 198.625 274.199 201.132 287.096L200.96 286.952H226.713C227.053 286.939 227.393 286.961 227.728 287.017C228.419 287.172 229.027 287.597 229.427 288.204C229.831 288.81 229.997 289.554 229.89 290.283C229.827 290.724 229.666 291.145 229.421 291.511C229.175 291.876 228.851 292.178 228.474 292.39C228.095 292.601 227.674 292.719 227.245 292.736H158.121H97.049H96.9385V292.621C92.3528 269.063 88.651 249.908 86.0474 236.63C84.7628 229.997 83.7684 224.833 83.0915 221.323C82.76 219.567 82.5068 218.237 82.3319 217.33C82.1592 216.424 82.0832 215.964 82.0832 215.964C82.0832 215.964 82.1868 216.424 82.3664 217.316C82.546 218.208 82.8222 219.56 83.1675 221.301C83.8581 224.811 84.8872 229.969 86.1993 236.601C88.8099 249.872 92.5738 269.02 97.2078 292.563L97.0697 292.448L158.141 292.412H227.217C227.588 292.397 227.951 292.296 228.281 292.117C228.607 291.93 228.889 291.667 229.103 291.349C229.317 291.031 229.459 290.667 229.517 290.283C229.606 289.645 229.463 288.996 229.116 288.463C228.763 287.938 228.233 287.571 227.631 287.434C227.321 287.386 227.006 287.366 226.692 287.377H200.794V287.233C198.287 274.35 195.849 261.856 193.515 249.829C192.341 243.815 191.19 237.931 190.062 232.177L188.404 223.653C188.135 222.25 187.859 220.855 187.589 219.474C187.458 218.755 187.32 218.086 187.189 217.402L186.988 216.367C186.937 216.033 186.853 215.705 186.74 215.388C186.55 214.934 186.248 214.541 185.865 214.248C185.481 213.954 185.03 213.772 184.557 213.719C184.254 213.719 183.908 213.719 183.584 213.719L179.647 213.669L171.947 213.583L157.271 213.403L131.062 213.079L93.4716 212.597L87.622 212.518L85.2808 212.482C84.9437 212.461 84.6053 212.48 84.2725 212.54C83.9757 212.604 83.6911 212.718 83.4299 212.878C83.0574 213.105 82.7393 213.417 82.5 213.791C82.2607 214.165 82.1063 214.59 82.0487 215.036C82.0213 215.345 82.0259 215.656 82.0625 215.964Z" fill="#263238"/>
<path d="M137.706 255.504C140.078 255.504 142.001 253.501 142.001 251.03C142.001 248.559 140.078 246.556 137.706 246.556C135.333 246.556 133.41 248.559 133.41 251.03C133.41 253.501 135.333 255.504 137.706 255.504Z" fill="white"/>
<path d="M82.1868 216.604C82.1868 216.604 82.3388 216.604 82.6357 216.604H89.0032L107.602 216.697L168.963 217.143L177.838 217.223H180.02C180.392 217.208 180.765 217.232 181.132 217.294C181.694 217.414 182.213 217.692 182.633 218.1C183.052 218.507 183.355 219.028 183.508 219.603C183.673 220.323 183.791 221.042 183.936 221.761L187.106 238.406C189.116 249.016 190.932 258.547 192.451 266.596C193.971 274.645 195.214 281.104 196.029 285.6C196.443 287.837 196.761 289.578 196.982 290.772C197.085 291.355 197.168 291.808 197.223 292.124C197.279 292.441 197.292 292.585 197.292 292.585C197.292 292.585 197.251 292.434 197.189 292.132C197.127 291.829 197.03 291.369 196.913 290.786L195.89 285.658C195.02 281.162 193.763 274.681 192.203 266.675C190.642 258.669 188.819 249.102 186.781 238.5C185.766 233.198 184.709 227.631 183.591 221.862C183.446 221.143 183.321 220.423 183.169 219.704C182.987 219.021 182.569 218.432 181.995 218.05C181.711 217.86 181.394 217.728 181.063 217.661C180.716 217.602 180.364 217.581 180.013 217.597H177.838L168.963 217.525L107.602 216.964L89.0032 216.748L83.9479 216.604H82.6288H82.1868Z" fill="#263238"/>
</svg>
