<svg width="14" height="15" viewBox="0 0 14 15" fill="none" xmlns="http://www.w3.org/2000/svg">
<path d="M1.24884 1.99876C1.1774 2.07019 1.13396 2.16489 1.12642 2.26564C1.11888 2.36639 1.14775 2.4665 1.20778 2.54776L1.24884 2.59501L3.51797 4.8647C2.41155 5.64018 1.62172 6.78848 1.29328 8.09908C1.26796 8.20697 1.2861 8.32049 1.3438 8.41511C1.40149 8.50973 1.4941 8.57785 1.60161 8.60474C1.70912 8.63164 1.82289 8.61515 1.91834 8.55884C2.01379 8.50254 2.08326 8.41093 2.11172 8.30383C2.4036 7.14058 3.12248 6.12973 4.12547 5.4722L5.14359 6.49033C4.7369 6.91529 4.5128 7.48262 4.51929 8.0708C4.52578 8.65897 4.76234 9.22122 5.1783 9.63711C5.59427 10.053 6.15656 10.2895 6.74473 10.2958C7.33291 10.3022 7.9002 10.078 8.32509 9.67126L11.6545 13.0013C11.7298 13.0767 11.8309 13.1209 11.9374 13.1249C12.0439 13.1289 12.148 13.0925 12.2288 13.0229C12.3095 12.9532 12.3609 12.8556 12.3726 12.7497C12.3843 12.6437 12.3554 12.5373 12.2918 12.4517L12.2508 12.4045L8.81222 8.96533L8.81278 8.9642L4.90341 5.05708L4.90453 5.05595L4.26722 4.42033L1.84509 1.99876C1.76599 1.91976 1.65877 1.87539 1.54697 1.87539C1.43517 1.87539 1.32795 1.91976 1.24884 1.99876ZM6.75009 3.84376C6.18759 3.84376 5.64197 3.92701 5.12503 4.08283L5.82084 4.77808C7.02434 4.53978 8.27339 4.77306 9.30974 5.42969C10.3461 6.08632 11.0905 7.11609 11.389 8.30608C11.4182 8.41235 11.4877 8.503 11.5829 8.55865C11.678 8.61429 11.7911 8.63051 11.898 8.60383C12.0049 8.57716 12.0972 8.50971 12.155 8.41591C12.2128 8.3221 12.2317 8.2094 12.2075 8.10189C11.9024 6.88546 11.1998 5.8058 10.211 5.03434C9.22231 4.26288 8.00419 3.84384 6.75009 3.84376ZM6.85978 5.81814L8.99784 7.95564C8.97019 7.39758 8.73603 6.86974 8.34089 6.4747C7.94575 6.07966 7.41785 5.84565 6.85978 5.81814Z" fill="black"/>
</svg>
