<svg width="27" height="27" viewBox="0 0 27 27" fill="none" xmlns="http://www.w3.org/2000/svg">
<g clip-path="url(#clip0_7_1113)">
<path fill-rule="evenodd" clip-rule="evenodd" d="M22.3594 24.3H4.64153C3.68791 24.3 2.98371 23.359 3.34338 22.4937C5.01223 18.4923 8.93286 16.2 13.4998 16.2C18.0681 16.2 21.9887 18.4923 23.6576 22.4937C24.0173 23.359 23.3131 24.3 22.3594 24.3ZM7.9875 8.09998C7.9875 5.12188 10.4611 2.69998 13.4998 2.69998C16.5398 2.69998 19.0121 5.12188 19.0121 8.09998C19.0121 11.0781 16.5398 13.5 13.4998 13.5C10.4611 13.5 7.9875 11.0781 7.9875 8.09998ZM26.9402 23.8086C25.9383 19.2739 22.8046 15.9272 18.68 14.4085C20.8656 12.6845 22.1403 9.89676 21.6718 6.84441C21.1288 3.30336 18.1219 0.469769 14.492 0.0566688C9.48134 -0.514381 5.23135 3.30613 5.23135 8.09998C5.23135 10.6515 6.43854 12.9248 8.32099 14.4085C4.19504 15.9272 1.06267 19.2739 0.0594324 23.8086C-0.304379 25.4569 1.05165 27 2.77286 27H24.2267C25.9493 27 27.3054 25.4569 26.9402 23.8086Z" fill="#F7EFB3" fill-opacity="0.5"/>
</g>
<defs>
<clipPath id="clip0_7_1113">
<rect width="27" height="27" fill="white"/>
</clipPath>
</defs>
</svg>
