<svg width="350" height="268" viewBox="0 0 350 268" fill="none" xmlns="http://www.w3.org/2000/svg">
<g opacity="0.6">
<path d="M343.099 244.977C343.464 245.07 343.782 245.294 343.992 245.606C344.202 245.919 344.289 246.298 344.237 246.671C344.161 247.041 343.946 247.368 343.635 247.583C343.324 247.798 342.943 247.885 342.569 247.826C342.182 247.725 341.846 247.485 341.625 247.152C341.403 246.819 341.313 246.415 341.371 246.019C341.493 245.644 341.755 245.33 342.104 245.144C342.452 244.958 342.858 244.914 343.238 245.02" fill="white"/>
</g>
<path d="M0 136.561L0.192367 140.039C1.89401 169.381 19.1472 195.675 45.678 207.66C49.0946 209.21 52.6209 210.506 56.2281 211.537C69.3797 215.09 83.2054 215.339 96.4764 212.262C109.747 209.185 122.053 202.877 132.299 193.899C144.299 183.231 153.799 168.656 168.803 163.077C188.305 155.827 209.302 166.407 227.25 176.661C245.199 186.915 266.225 197.377 285.713 190.111C297.905 185.524 306.843 174.515 312.347 162.634C326.967 131.146 320.145 92.452 300.229 64.4563C280.312 36.4607 249.031 18.2901 216.212 8.53896C170.12 -5.13335 118.345 -3.10618 75.6416 19.8586C32.9378 42.8233 1.33172 88.0869 0 136.561Z" fill="#F5F5F5"/>
<path d="M333.697 256.588C342.343 250.313 344.265 238.218 337.991 229.573C331.716 220.928 319.621 219.005 310.976 225.28C302.33 231.554 300.408 243.649 306.683 252.294C312.957 260.94 325.052 262.862 333.697 256.588Z" fill="#00707E"/>
<path d="M1.23292 243.166L42.5692 260.724L315.27 260.207L314.254 221.329L43.2807 222.179L1.22368 240.126C0.926654 240.254 0.673844 240.467 0.496562 240.738C0.31928 241.008 0.225312 241.325 0.226295 241.649C0.227279 241.973 0.323172 242.289 0.502097 242.558C0.681021 242.828 0.93512 243.039 1.23292 243.166Z" fill="#00707E"/>
<g opacity="0.7">
<path d="M43.2808 222.179C44.3898 223.778 44.1033 225.876 42.3567 226.652C44.1244 227.075 45.7149 228.042 46.904 229.417C48.0932 230.792 48.8212 232.505 48.9855 234.315C49.1498 236.125 48.7421 237.941 47.8198 239.508C46.8976 241.074 45.5072 242.311 43.8446 243.046C45.3094 244.071 46.4779 245.465 47.2321 247.086C47.9863 248.707 48.2995 250.499 48.1402 252.28C47.9808 254.061 47.3546 255.768 46.3245 257.23C45.2945 258.691 43.8972 259.855 42.2735 260.604L1.51951 243.268C1.20021 243.131 0.92806 242.904 0.736805 242.614C0.545551 242.324 0.443604 241.984 0.443604 241.637C0.443604 241.289 0.545551 240.95 0.736805 240.66C0.92806 240.37 1.20021 240.142 1.51951 240.006L43.2808 222.179Z" fill="white"/>
</g>
<path d="M16.5181 248.729C18.2647 247.214 21.9058 242.787 17.1003 234.867C16.9024 234.544 16.5951 234.301 16.2341 234.184C15.8731 234.067 15.4821 234.084 15.1319 234.23L1.04823 240.237C0.767624 240.36 0.529023 240.563 0.361507 240.819C0.193992 241.076 0.104797 241.376 0.104797 241.683C0.104797 241.989 0.193992 242.289 0.361507 242.546C0.529023 242.803 0.767624 243.006 1.04823 243.129L14.9101 249.016C15.1787 249.12 15.4707 249.148 15.7543 249.098C16.0379 249.047 16.3021 248.92 16.5181 248.729Z" fill="#00707E"/>
<g opacity="0.3">
<path d="M43.8076 243.046L313.061 241.29L313.986 260.17L42.5323 260.752L42.1996 260.614C43.5872 260.003 44.8144 259.08 45.7852 257.915C47.0465 256.388 47.8534 254.537 48.114 252.574C48.4115 250.175 47.8305 247.749 46.4783 245.744C45.7654 244.685 44.8594 243.77 43.8076 243.046Z" fill="black"/>
</g>
<g opacity="0.3">
<path d="M42.3199 226.652L314.291 226.125L314.041 221.126L43.2718 222.179C43.7381 222.785 43.9624 223.542 43.9009 224.304C43.8394 225.066 43.4965 225.778 42.9391 226.301C42.7457 226.439 42.5381 226.557 42.3199 226.652Z" fill="black"/>
</g>
<path d="M34.3722 248.193C34.5519 248.236 34.741 248.217 34.9081 248.138C35.1376 248.014 35.3134 247.81 35.4021 247.564C35.4907 247.319 35.4859 247.049 35.3887 246.807C35.0275 246.05 34.4439 245.422 33.716 245.005C33.2765 244.732 32.7637 244.599 32.2467 244.626C31.9636 244.634 31.6872 244.714 31.4443 244.86C31.2015 245.006 31.0004 245.212 30.8605 245.458C30.7293 245.748 30.6615 246.063 30.6615 246.382C30.6615 246.701 30.7293 247.016 30.8605 247.306C31.1267 247.957 31.4846 248.567 31.9232 249.117C32.8424 250.364 34.0137 251.403 35.361 252.167C35.7088 252.376 36.0967 252.51 36.4995 252.559C36.9023 252.609 37.311 252.573 37.699 252.454C38.0802 252.275 38.4117 252.005 38.6647 251.668C38.9176 251.332 39.0842 250.938 39.1499 250.522C39.4179 248.785 38.4753 246.992 37.3016 245.56C36.1864 244.182 34.7139 243.137 33.0451 242.538C31.3763 241.94 29.5752 241.812 27.8386 242.168C27.4661 242.273 27.1224 242.461 26.8341 242.719C26.5457 242.977 26.3203 243.297 26.1751 243.656C25.9242 244.354 25.845 245.102 25.9441 245.837C26.1131 247.179 26.4839 248.487 27.0438 249.718C27.8564 251.511 29.0153 253.125 30.4539 254.468C30.9714 254.93 31.378 255.272 31.6829 255.494C31.9879 255.716 32.1265 255.836 32.1265 255.836C31.503 255.463 30.9179 255.03 30.3799 254.542C28.897 253.219 27.7018 251.605 26.8682 249.801C26.2914 248.554 25.9051 247.227 25.7223 245.865C25.6116 245.09 25.6909 244.3 25.9534 243.563C26.1153 243.168 26.3664 242.816 26.687 242.534C27.0076 242.252 27.3891 242.047 27.8016 241.937C29.5879 241.554 31.4454 241.673 33.168 242.282C34.8906 242.89 36.411 243.964 37.5604 245.384C38.1709 246.118 38.6664 246.941 39.0298 247.824C39.4257 248.691 39.5636 249.653 39.4271 250.596C39.3569 251.056 39.1719 251.491 38.8893 251.861C38.6067 252.231 38.2355 252.524 37.8099 252.712C37.3889 252.844 36.9446 252.886 36.5065 252.833C36.0683 252.78 35.6464 252.635 35.2686 252.407C33.8921 251.62 32.6959 250.553 31.7569 249.275C31.3126 248.713 30.9515 248.091 30.6849 247.426C30.5451 247.115 30.4729 246.778 30.4729 246.438C30.4729 246.097 30.5451 245.76 30.6849 245.449C30.8421 245.176 31.0664 244.948 31.3365 244.786C31.6066 244.625 31.9135 244.534 32.2282 244.525C32.777 244.504 33.319 244.652 33.7807 244.95C34.5359 245.387 35.1317 246.054 35.4811 246.853C35.5803 247.116 35.5774 247.405 35.473 247.666C35.3686 247.926 35.1703 248.137 34.9174 248.258C34.8282 248.293 34.7318 248.305 34.6367 248.294C34.5416 248.283 34.4507 248.248 34.3722 248.193Z" fill="white"/>
<path d="M24.5857 230.635C24.5857 230.635 24.7613 231.162 25.2511 232.03C25.9639 233.231 26.9059 234.28 28.0235 235.117C29.7151 236.333 31.5416 237.351 33.4666 238.148C35.8627 239.095 38.0859 240.432 40.0464 242.103C41.9044 243.911 43.19 246.225 43.7429 248.757C44.1218 250.484 44.1409 252.27 43.7991 254.005C43.4573 255.74 42.7618 257.385 41.756 258.839C41.4685 259.27 41.1405 259.672 40.7764 260.041C40.8441 259.926 40.9214 259.818 41.0075 259.717C41.2421 259.421 41.4611 259.112 41.6636 258.793C42.4299 257.615 43.0068 256.324 43.3732 254.967C43.9138 252.96 43.9582 250.85 43.5026 248.822C42.9301 246.337 41.6455 244.073 39.8061 242.307C37.8746 240.659 35.6904 239.333 33.3372 238.379C31.4163 237.559 29.6012 236.51 27.9311 235.256C26.7919 234.401 25.847 233.314 25.1587 232.067C24.9026 231.619 24.7098 231.137 24.5857 230.635Z" fill="white"/>
<path d="M34.7418 225.645C34.4152 226.573 34.4415 227.59 34.8158 228.5C35.8821 230.617 37.2658 232.559 38.9189 234.258C40.5188 236.013 42.2758 237.618 44.1679 239.054C44.8888 239.608 45.4987 240.033 45.9145 240.329C46.1446 240.465 46.3612 240.623 46.5614 240.8C46.3162 240.692 46.0812 240.562 45.8591 240.412C45.4248 240.144 44.7964 239.747 44.0108 239.211C42.0673 237.811 40.2769 236.209 38.6694 234.433C37.7853 233.46 36.9554 232.439 36.1835 231.374C35.5266 230.529 34.9915 229.596 34.594 228.602C34.3276 227.91 34.2604 227.158 34.3999 226.43C34.4679 226.151 34.5836 225.885 34.7418 225.645Z" fill="white"/>
<path d="M48.9087 235.875C48.3955 235.713 47.9026 235.493 47.4394 235.219C46.254 234.646 45.2143 233.812 44.399 232.779C43.9756 232.263 43.6729 231.66 43.513 231.012C43.3531 230.365 43.34 229.689 43.4748 229.036C43.5692 228.647 43.7319 228.278 43.9554 227.946C44.1217 227.715 44.2511 227.622 44.2604 227.632C43.9828 228.079 43.7799 228.569 43.6597 229.082C43.5556 229.704 43.5841 230.341 43.7434 230.951C43.9026 231.561 44.189 232.13 44.5838 232.622C45.3872 233.617 46.3797 234.443 47.504 235.052C47.988 235.299 48.457 235.573 48.9087 235.875Z" fill="white"/>
<path d="M18.1631 232.797C18.1631 232.797 18.2463 232.797 18.3757 232.89C18.505 232.982 18.7176 233.056 18.9671 233.204C19.2838 233.375 19.5658 233.604 19.7988 233.879C20.0857 234.261 20.2816 234.703 20.3718 235.172C20.6305 236.189 20.6952 237.427 20.8801 238.767C21.0903 240.226 21.4273 241.664 21.8874 243.064C22.7487 245.609 23.8118 248.082 25.0664 250.457L26.1753 252.638C26.3251 252.898 26.4519 253.17 26.5542 253.452C26.3766 253.209 26.2189 252.953 26.0829 252.685C25.7964 252.186 25.3806 251.456 24.8908 250.55C23.5814 248.19 22.4896 245.715 21.6286 243.157C21.1633 241.743 20.8292 240.289 20.6305 238.813C20.455 237.455 20.418 236.226 20.1777 235.228C20.13 234.831 19.9908 234.451 19.7711 234.118C19.5514 233.784 19.2572 233.506 18.9117 233.306C18.6529 233.15 18.403 232.981 18.1631 232.797Z" fill="white"/>
<path d="M313.412 221.271L312.602 260.27C312.59 260.821 313.028 261.277 313.579 261.288L325.59 261.538C326.141 261.549 326.597 261.112 326.608 260.561L327.418 221.562C327.43 221.011 326.992 220.555 326.441 220.543L314.43 220.294C313.879 220.282 313.423 220.72 313.412 221.271Z" fill="#E0E0E0"/>
<path d="M312.618 260.3C312.618 260.3 312.618 260.401 312.682 260.568C312.762 260.819 312.938 261.028 313.172 261.15C313.594 261.262 314.032 261.297 314.466 261.251H316.314L321.314 261.307L324.428 261.353H325.269C325.524 261.39 325.785 261.362 326.027 261.27C326.134 261.215 326.228 261.137 326.302 261.041C326.375 260.945 326.427 260.834 326.452 260.715C326.467 260.426 326.467 260.136 326.452 259.847C326.637 250.014 326.895 236.494 327.173 221.56C327.174 221.389 327.116 221.222 327.008 221.089C326.9 220.956 326.749 220.864 326.581 220.83C326.211 220.83 325.657 220.83 325.241 220.83L322.469 220.775L317.09 220.655L314.466 220.599C314.305 220.587 314.144 220.627 314.007 220.713C313.87 220.8 313.765 220.928 313.708 221.08C313.699 221.156 313.699 221.234 313.708 221.311V221.634V222.272C313.708 223.963 313.634 225.626 313.597 227.244C313.44 233.712 313.301 239.544 313.181 244.46C313.061 249.376 312.932 253.276 312.849 256.058C312.802 257.398 312.765 258.451 312.738 259.209C312.738 259.542 312.738 259.819 312.692 260.032C312.707 260.123 312.707 260.217 312.692 260.309C312.683 260.217 312.683 260.124 312.692 260.032C312.692 259.81 312.692 259.542 312.692 259.209C312.692 258.442 312.692 257.361 312.692 256.049C312.692 253.276 312.784 249.312 312.849 244.451C312.913 239.59 313.043 233.703 313.154 227.234C313.154 225.617 313.218 223.954 313.246 222.263V221.338C313.247 221.203 313.272 221.068 313.32 220.941C313.414 220.687 313.586 220.469 313.812 220.32C314.038 220.17 314.306 220.096 314.577 220.109L317.201 220.165L322.58 220.266L325.352 220.322C325.842 220.322 326.276 220.322 326.794 220.377C327.086 220.435 327.348 220.594 327.535 220.825C327.722 221.056 327.823 221.346 327.819 221.643C327.478 236.577 327.163 250.097 326.942 259.93C326.943 260.239 326.927 260.547 326.895 260.854C326.855 261.025 326.778 261.184 326.67 261.322C326.561 261.459 326.424 261.571 326.267 261.649C325.974 261.767 325.656 261.809 325.343 261.769H324.502L321.388 261.686L316.397 261.538L314.549 261.473C314.096 261.506 313.64 261.45 313.209 261.307C313.084 261.237 312.976 261.141 312.89 261.027C312.804 260.912 312.743 260.781 312.71 260.642C312.649 260.538 312.617 260.42 312.618 260.3Z" fill="#263238"/>
<path d="M327.071 226.014C327.071 226.171 324.022 226.292 320.251 226.282C317.971 226.371 315.688 226.282 313.422 226.014C313.422 225.857 316.472 225.737 320.251 225.746C322.528 225.657 324.808 225.747 327.071 226.014Z" fill="#263238"/>
<path d="M327.238 240.874C327.238 241.031 324.077 241.161 320.177 241.346C317.826 241.546 315.466 241.611 313.108 241.54C317.776 240.776 322.518 240.553 327.238 240.874Z" fill="#263238"/>
<path d="M312.748 258.174C315.042 257.88 317.356 257.759 319.669 257.814C321.981 257.697 324.298 257.759 326.6 257.998C326.6 258.156 323.504 258.313 319.679 258.359C317.367 258.476 315.05 258.414 312.748 258.174Z" fill="#263238"/>
<path d="M260.34 257.139C260.34 257.259 244.399 257.361 224.724 257.361C205.049 257.361 189.108 257.259 189.108 257.139C189.108 257.019 205.049 256.917 224.724 256.917C244.399 256.917 260.34 257.019 260.34 257.139Z" fill="#263238"/>
<path d="M20.113 37.0024H190.578C191.997 37.0024 193.358 37.5661 194.361 38.5696C195.365 39.573 195.928 40.934 195.928 42.3531V181.97C195.928 183.686 195.247 185.331 194.034 186.545C192.82 187.758 191.175 188.439 189.459 188.439H19.2905C17.8861 188.439 16.5392 187.881 15.5462 186.888C14.5531 185.895 13.9952 184.548 13.9952 183.144V43.1201C13.9952 42.3167 14.1535 41.5212 14.4609 40.779C14.7684 40.0367 15.219 39.3623 15.7871 38.7942C16.3552 38.2261 17.0296 37.7755 17.7718 37.4681C18.5141 37.1606 19.3096 37.0024 20.113 37.0024Z" fill="#FAFAFA"/>
<path d="M19.2536 36.9655H189.404C191.058 36.9655 192.645 37.6227 193.815 38.7925C194.985 39.9623 195.642 41.5489 195.642 43.2033V58.9782H13.6627V42.5657C13.6627 41.082 14.2514 39.659 15.2997 38.609C16.3479 37.559 17.77 36.9679 19.2536 36.9655Z" fill="#E0E0E0"/>
<path d="M189.69 188.402H190.116C190.536 188.371 190.951 188.294 191.354 188.171C192.02 187.974 192.645 187.661 193.202 187.247C193.972 186.673 194.588 185.917 194.995 185.048C195.467 183.925 195.654 182.703 195.54 181.49C195.54 180.141 195.54 178.662 195.54 177.063C195.54 173.866 195.54 170.178 195.54 165.974C195.54 149.339 195.54 125.312 195.457 95.6198C195.457 80.7691 195.457 64.4952 195.457 47.0292V43.7485C195.544 42.6681 195.376 41.5824 194.967 40.5787C194.527 39.5852 193.812 38.7382 192.907 38.1373C192.001 37.5364 190.943 37.2068 189.857 37.1872H147.347H19.577C18.2176 37.2043 16.9081 37.7019 15.8805 38.5919C14.8582 39.4874 14.2005 40.7273 14.0322 42.0758C13.9763 42.7674 13.9578 43.4615 13.9768 44.1551V67.1567C13.9768 78.2031 13.9768 89.0708 13.9768 99.7599C13.9768 121.135 13.9768 141.752 13.9768 161.39C13.9768 166.319 13.9768 171.167 13.9768 175.936C13.9768 178.32 13.9768 180.723 13.9768 183.042C14.0872 184.174 14.5333 185.246 15.2579 186.122C15.9824 186.998 16.9523 187.638 18.0429 187.959C19.1569 188.195 20.2987 188.273 21.4345 188.19H44.9535H93.5442L163.898 188.264L183.018 188.31H163.898L93.5442 188.384H44.9535H19.6232C19.0233 188.379 18.4267 188.295 17.8489 188.134C16.7005 187.815 15.671 187.165 14.8876 186.267C14.1042 185.369 13.6012 184.26 13.4408 183.079C13.3761 180.686 13.4408 178.338 13.4408 175.936V161.39C13.4408 141.752 13.4408 121.135 13.4408 99.7599V44.1736C13.4167 43.4583 13.4383 42.7422 13.5055 42.0296C13.699 40.5591 14.4258 39.2108 15.5478 38.2407C16.6712 37.2657 18.108 36.7277 19.5955 36.7251H147.365H176.013H189.764C190.931 36.7435 192.067 37.0965 193.038 37.7419C194.01 38.3874 194.776 39.2982 195.244 40.3662C195.68 41.4181 195.857 42.5587 195.762 43.6931V46.9737C195.762 64.4397 195.762 80.7136 195.762 95.5643C195.762 125.266 195.707 149.302 195.688 165.918C195.688 170.077 195.688 173.764 195.688 177.008C195.688 178.606 195.688 180.085 195.688 181.434C195.804 182.666 195.604 183.906 195.106 185.038C194.681 185.918 194.046 186.68 193.258 187.256C192.701 187.671 192.075 187.984 191.409 188.18C191 188.298 190.578 188.37 190.152 188.393L189.69 188.402Z" fill="#263238"/>
<path d="M64.1754 118.566C61.8698 121.755 59.7916 125.103 57.956 128.583C55.8952 132.871 37.8747 166.593 36.2113 170.068C34.2059 174.282 32.5148 185.51 40.3329 188.227H56.3942L72.511 156.603L68.8145 129.6L64.1754 118.566Z" fill="#AE7461"/>
<path d="M151.016 110.822C151.016 110.822 159.093 113.123 161.865 123.066C164.637 133.01 173.537 154.986 173.537 154.986C173.537 154.986 178.915 164.892 179.433 169.125C179.95 173.357 178.795 181.952 177.233 183.865C176.778 184.417 176.196 184.851 175.535 185.128C174.875 185.405 174.158 185.517 173.444 185.454L152.984 183.504L144.926 129.572L151.016 110.822Z" fill="#AE7461"/>
<path d="M82.2512 106.608C82.2512 106.608 67.1787 111.228 63.4267 115.184L75.7638 170.899L75.5698 188.458H147.042C147.042 187.589 147.679 130.099 147.679 130.099L148.363 105.591L119.41 101.451L95.2075 102.791L89.0066 104.953L82.2512 106.608Z" fill="#00707E"/>
<g opacity="0.3">
<path d="M89.8846 154.94C89.672 154.468 89.3671 153.96 88.8588 153.858C88.0271 153.683 87.4634 154.672 87.1861 155.476C84.9312 161.852 79.6175 168.099 75.7362 173.644L75.6345 182.931C79.673 179.531 85.9201 174.771 88.4984 170.151C91.0767 165.53 92.0655 159.754 89.8846 154.94Z" fill="black"/>
</g>
<g opacity="0.3">
<path d="M129.373 153.174C128.739 159.667 130.137 166.196 133.374 171.86C136.599 177.47 141.331 182.469 147.236 185.149C147.43 179.438 147.153 172.701 147.347 166.981L129.373 153.174Z" fill="black"/>
</g>
<path d="M147.329 105.462C147.329 105.462 155.415 106.848 161.865 119.398C164.795 125.09 171.106 144.515 171.106 144.515L147.375 154.246L144.972 132.003L147.329 105.462Z" fill="#00707E"/>
<path d="M145.443 131.273C145.487 131.056 145.555 130.845 145.646 130.644L146.303 128.972C146.857 127.567 147.624 125.617 148.428 123.427C149.232 121.237 149.934 119.287 150.433 117.882L151.034 116.182C151.099 115.971 151.182 115.767 151.284 115.572C151.265 115.792 151.218 116.01 151.145 116.219C151.034 116.634 150.859 117.217 150.637 117.947C150.184 119.398 149.519 121.384 148.715 123.556C147.911 125.728 147.107 127.669 146.497 129.101C146.192 129.794 145.942 130.358 145.757 130.737C145.674 130.927 145.569 131.107 145.443 131.273Z" fill="#263238"/>
<path d="M72.8622 131.846C72.7791 131.846 72.1506 129.073 71.4575 125.719C70.7645 122.364 70.2747 119.564 70.3578 119.546C70.9255 121.56 71.3913 123.602 71.7533 125.663C72.4464 129.055 72.9362 131.827 72.8622 131.846Z" fill="#263238"/>
<path d="M46.543 144.035C46.543 144.035 60.405 116.561 64.7114 114.084C69.0178 111.607 70.3578 119.546 70.3578 119.546L75.9765 150.679L72.0212 158.387L46.543 144.035Z" fill="#00707E"/>
<path d="M98.3406 37.0486C98.7872 36.0247 99.5391 35.1637 100.493 34.5831C101.448 34.0026 102.558 33.7308 103.673 33.805C104.892 32.6974 106.446 32.0287 108.088 31.9048C109.73 31.7809 111.367 32.209 112.738 33.1211C113.668 32.4636 114.748 32.0518 115.879 31.9242C117.01 31.7965 118.155 31.9571 119.207 32.391C120.24 32.8395 121.142 33.5428 121.829 34.435C122.516 35.3272 122.965 36.3791 123.135 37.4922C124.249 37.2241 125.419 37.3025 126.487 37.717C127.556 38.1315 128.472 38.8624 129.114 39.8118C129.718 40.7774 130.011 41.9057 129.951 43.0433C129.892 44.1809 129.483 45.2725 128.781 46.1698C130.045 46.4551 131.157 47.1989 131.903 48.2572C132.65 49.3156 132.977 50.6132 132.822 51.8989C132.667 53.1846 132.04 54.367 131.063 55.2173C130.086 56.0675 128.829 56.5251 127.534 56.5015L99.9023 43.037C99.0526 42.3245 98.4457 41.3651 98.1658 40.2921C97.886 39.219 97.947 38.0854 98.3406 37.0486Z" fill="#263238"/>
<path d="M132.653 85.2142C132.182 79.4846 130.232 67.7574 128.356 57.1669C127.355 51.6519 124.315 46.7157 119.841 43.3392C115.367 39.9628 109.787 38.3934 104.209 38.9431L103.054 39.054C90.6795 40.9484 85.3843 52.4261 87.6299 64.6431L94.4592 106.534C95.0456 110.125 97.0013 113.35 99.9154 115.53C102.829 117.71 106.475 118.676 110.086 118.224C111.994 117.985 113.832 117.358 115.487 116.381C117.142 115.403 118.579 114.097 119.709 112.542C120.84 110.988 121.639 109.218 122.058 107.342C122.477 105.466 122.507 103.524 122.146 101.636L121.85 100.065C121.85 100.065 133.578 97.0892 132.653 85.2142Z" fill="#AE7461"/>
<path d="M121.924 100.037C116.385 100.557 110.812 99.4933 105.854 96.969C105.854 96.969 110.354 105.157 122.183 102.957L121.924 100.037Z" fill="#6F4439"/>
<path d="M124.207 68.7184C124.248 69.1596 124.116 69.5997 123.838 69.9449C123.561 70.2901 123.159 70.5132 122.719 70.5666C122.504 70.6049 122.284 70.6 122.072 70.5521C121.859 70.5043 121.659 70.4144 121.481 70.2879C121.304 70.1613 121.154 70.0006 121.039 69.8152C120.925 69.6298 120.849 69.4234 120.815 69.2082C120.773 68.7684 120.904 68.3295 121.18 67.9846C121.456 67.6396 121.855 67.4156 122.294 67.3599C122.509 67.3216 122.729 67.3264 122.942 67.3742C123.155 67.422 123.357 67.5117 123.535 67.6382C123.713 67.7646 123.864 67.9253 123.98 68.1107C124.095 68.2962 124.172 68.5028 124.207 68.7184Z" fill="#263238"/>
<path d="M126.314 63.2106C126.129 63.4509 124.743 62.6192 122.904 62.804C121.065 62.9888 119.808 64.0146 119.586 63.8113C119.364 63.608 119.66 63.303 120.205 62.8225C120.949 62.202 121.865 61.8246 122.83 61.7413C123.795 61.6394 124.766 61.85 125.602 62.3419C126.185 62.7208 126.406 63.0997 126.314 63.2106Z" fill="#263238"/>
<path d="M107.517 70.3541C107.557 70.7935 107.425 71.2311 107.149 71.5755C106.874 71.92 106.476 72.1446 106.039 72.2024C105.823 72.2406 105.603 72.2354 105.39 72.1869C105.177 72.1385 104.975 72.0478 104.798 71.9203C104.621 71.7928 104.47 71.6311 104.357 71.4446C104.243 71.2582 104.167 71.0508 104.135 70.8347C104.093 70.3949 104.224 69.9561 104.5 69.6111C104.776 69.2661 105.175 69.0421 105.613 68.9864C105.829 68.9469 106.05 68.9512 106.263 68.9991C106.477 69.047 106.679 69.1375 106.856 69.2652C107.034 69.3929 107.184 69.5552 107.298 69.7423C107.411 69.9294 107.486 70.1375 107.517 70.3541Z" fill="#263238"/>
<path d="M108.284 65.216C108.09 65.4563 106.704 64.6338 104.874 64.8094C103.044 64.985 101.778 66.0293 101.556 65.826C101.335 65.6227 101.621 65.3177 102.176 64.8371C102.918 64.2133 103.834 63.8326 104.8 63.7467C105.764 63.6513 106.734 63.8614 107.573 64.3474C108.146 64.7632 108.377 65.1421 108.284 65.216Z" fill="#263238"/>
<path d="M116.241 78.1537C117.179 77.7614 118.164 77.4882 119.17 77.3405C119.642 77.2481 120.094 77.1187 120.094 76.786C120.114 76.2902 119.982 75.8002 119.715 75.3814L117.987 71.9713C115.585 67.1104 113.792 63.0905 113.995 62.9981C114.198 62.9056 116.305 66.7685 118.708 71.6294C119.29 72.8308 119.845 73.9767 120.381 75.0672C120.732 75.6153 120.879 76.2696 120.797 76.9154C120.743 77.0873 120.651 77.2447 120.528 77.3759C120.405 77.5072 120.253 77.6088 120.085 77.6732C119.832 77.7679 119.568 77.83 119.3 77.858C118.297 78.0883 117.269 78.1877 116.241 78.1537Z" fill="#263238"/>
<path d="M108.081 58.0726C107.942 58.5809 106.085 58.5162 103.959 58.9967C101.834 59.4773 100.133 60.2073 99.81 59.7915C99.6621 59.5882 99.9209 59.0984 100.577 58.5531C101.461 57.8749 102.488 57.4055 103.579 57.1798C104.67 56.9542 105.799 56.9782 106.88 57.2501C107.702 57.4719 108.136 57.8231 108.081 58.0726Z" fill="#263238"/>
<path d="M125.14 57.9985C124.854 58.4421 123.551 58.1279 122.026 58.2573C120.501 58.3867 119.254 58.8025 118.902 58.3959C118.754 58.1926 118.902 57.7675 119.438 57.3147C120.153 56.7738 121.01 56.4555 121.905 56.3997C122.799 56.3438 123.69 56.5528 124.466 57.0005C125.048 57.3701 125.26 57.823 125.14 57.9985Z" fill="#263238"/>
<path d="M126.665 51.8347C126.665 51.8347 122.802 44.7096 119.032 43.3142C114.457 41.6323 113.034 46.5671 108.755 45.8001C104.477 45.0331 100.115 43.4251 96.1595 47.0199C91.8346 50.9567 94.2466 53.2024 94.4591 58.4884C95.3278 79.9374 91.9732 86.3324 89.894 76.398C89.6722 75.3075 86.5024 74.7253 85.606 70.1139C84.4416 64.1348 83.5082 56.8342 84.4601 52.4261C85.2641 48.7296 87.0938 46.0219 90.5593 42.9261C96.0117 38.0374 104.07 37.178 109.596 37.2057C115.123 37.2334 126.286 42.4917 126.665 51.8347Z" fill="#263238"/>
<path d="M90.624 76.0006C90.5647 75.5655 90.4182 75.1469 90.1933 74.7698C89.9683 74.3927 89.6696 74.0649 89.3149 73.806C88.9603 73.5471 88.557 73.3625 88.1293 73.2632C87.7016 73.1639 87.2582 73.152 86.8258 73.2282C84.6171 73.6533 82.2052 75.1411 82.8336 79.6971C83.8686 87.7832 91.8438 85.0755 91.8253 84.8445C91.8069 84.6134 91.0675 79.3736 90.624 76.0006Z" fill="#AE7461"/>
<path d="M89.663 82.0258C89.663 82.0258 89.5336 82.146 89.3026 82.2846C88.9837 82.4678 88.6075 82.5239 88.2491 82.4417C87.3249 82.2291 86.4008 80.9723 86.2252 79.5214C86.1139 78.8298 86.1613 78.122 86.3638 77.4514C86.4089 77.1901 86.5164 76.9435 86.6774 76.7327C86.8383 76.5219 87.0478 76.3531 87.288 76.2408C87.4494 76.1667 87.6322 76.154 87.8024 76.205C87.9725 76.256 88.1181 76.3673 88.2121 76.518C88.3507 76.7306 88.3137 76.8969 88.36 76.9062C88.4062 76.9154 88.5171 76.7491 88.36 76.4256C88.2901 76.2305 88.1566 76.0645 87.9811 75.9543C87.7332 75.8169 87.4419 75.7805 87.1678 75.8527C86.8415 75.9578 86.5481 76.146 86.3164 76.3987C86.0847 76.6514 85.9227 76.9601 85.8463 77.2943C85.5895 78.036 85.5196 78.8295 85.643 79.6046C85.9018 81.2311 86.9368 82.645 88.1566 82.8298C88.3826 82.8671 88.6141 82.8523 88.8334 82.7866C89.0528 82.721 89.2543 82.6062 89.4227 82.4509C89.6722 82.2199 89.6907 82.0351 89.663 82.0258Z" fill="#6F4439"/>
<path d="M89.2932 60.2811C90.3801 60.9863 91.6246 61.4117 92.9158 61.5194C94.2095 61.5194 95.605 60.6508 95.6881 59.3755C95.7343 58.8025 95.531 58.1649 95.8637 57.6936C96.1964 57.2223 97.1021 57.213 97.7859 57.2223C98.9861 57.2048 100.144 56.7759 101.066 56.0071C101.987 55.2384 102.617 54.1765 102.85 52.999C103.543 53.8399 104.957 53.6736 105.817 52.999C106.599 52.2349 107.274 51.3674 107.822 50.4207C108.101 49.9505 108.49 49.5547 108.955 49.2667C109.42 48.9788 109.947 48.8071 110.493 48.7665C111.098 48.9107 111.718 48.9851 112.341 48.9883C113.413 48.7942 113.82 47.4912 113.875 46.4192C113.93 45.3472 113.949 44.1089 114.799 43.4435C115.649 42.7781 116.721 43.0369 117.719 43.0923C118.717 43.1478 119.974 42.7874 120.141 41.8078C120.158 41.547 120.122 41.2853 120.035 41.039C119.947 40.7926 119.81 40.5668 119.632 40.3754C118.868 39.4494 117.814 38.8074 116.641 38.5527C115.468 38.2979 114.243 38.4451 113.163 38.9707C112.621 37.6592 111.704 36.5362 110.528 35.7417C109.351 34.9472 107.967 34.5162 106.548 34.5024C105.128 34.4887 103.736 34.8927 102.545 35.6641C101.353 36.4356 100.415 37.5406 99.8467 38.8414C98.9025 38.1519 97.8083 37.6962 96.6538 37.5116C95.4993 37.3271 94.3175 37.4189 93.2055 37.7797C92.0934 38.1405 91.0827 38.7599 90.2564 39.587C89.4302 40.4141 88.8118 41.4254 88.4522 42.5379C87.4296 42.3866 86.3851 42.5296 85.4408 42.9501C84.4965 43.3707 83.6915 44.0515 83.12 44.9129C82.5782 45.7884 82.3004 46.8016 82.3201 47.831C82.3398 48.8604 82.656 49.8622 83.2309 50.7164C82.5072 51.1595 81.9084 51.7799 81.4912 52.5189C81.074 53.2579 80.8522 54.0911 80.8466 54.9397C80.976 56.6123 82.7873 58.1279 84.3768 57.5365C84.1322 58.2312 84.1514 58.9917 84.4309 59.6732C84.7103 60.3548 85.2304 60.9099 85.8924 61.233C86.5763 61.5172 87.34 61.5436 88.0419 61.3074C88.7438 61.0711 89.3362 60.5883 89.709 59.9484" fill="#263238"/>
<path d="M83.767 57.6289C83.767 57.6289 83.6746 58.322 84.4232 59.1444C84.8798 59.6185 85.4949 59.908 86.1513 59.9577C86.5735 59.9803 86.9954 59.9091 87.3869 59.7493C87.7783 59.5896 88.1296 59.3451 88.4154 59.0336H88.0642C88.5739 59.7475 89.1985 60.3721 89.9125 60.8818C90.3809 61.24 90.9144 61.5036 91.4835 61.6581C92.0281 61.8062 92.6023 61.8062 93.1469 61.6581C93.6101 61.574 94.0497 61.3909 94.4357 61.1214C94.8216 60.8519 95.1449 60.5022 95.3833 60.0963C95.6595 59.548 95.8288 58.9521 95.8823 58.3405C95.924 58.1237 95.924 57.9011 95.8823 57.6843C95.8823 57.6843 95.7992 57.9061 95.6975 58.3127C95.5818 58.8809 95.3759 59.4269 95.0876 59.93C94.8134 60.3024 94.4656 60.6145 94.0657 60.8468C93.6658 61.0791 93.2225 61.2267 92.7631 61.2805C92.3038 61.3342 91.8383 61.2929 91.3956 61.1591C90.9529 61.0254 90.5424 60.802 90.1897 60.5029C89.5236 60.0142 88.9375 59.425 88.4523 58.7563L88.286 58.5345L88.1012 58.7378C87.8588 59.002 87.5627 59.2112 87.2327 59.3514C86.9028 59.4917 86.5466 59.5598 86.1882 59.5511C85.6116 59.5288 85.0615 59.3029 84.6357 58.9134C84.2586 58.5515 83.9625 58.1137 83.767 57.6289Z" fill="#455A64"/>
<path d="M119.577 32.5758C119.577 32.4926 120.501 32.9732 121.231 34.2854C121.698 35.0362 122.012 35.8715 122.155 36.7436C122.326 37.8447 122.093 38.9704 121.499 39.9134C120.873 40.8089 120.035 41.5359 119.059 42.0296C118.297 42.4367 117.506 42.7888 116.694 43.0831C115.974 43.4125 115.217 43.6545 114.439 43.8039C115.087 43.3469 115.792 42.9772 116.537 42.7042C117.307 42.3642 118.06 41.9848 118.791 41.5676C119.673 41.092 120.432 40.4182 121.009 39.5992C121.53 38.7742 121.748 37.7947 121.629 36.8268C121.524 36.0131 121.283 35.2228 120.917 34.4887C120.545 33.8017 120.096 33.1598 119.577 32.5758Z" fill="#E0E0E0"/>
<path d="M125.094 37.6031C125.159 37.6031 125.242 38.1113 125.094 38.9246C124.833 39.9742 124.299 40.9359 123.546 41.7119C122.793 42.4879 121.847 43.0503 120.806 43.3419C120.002 43.5452 119.484 43.4898 119.484 43.4251C119.484 43.3604 119.965 43.2402 120.677 42.9538C121.602 42.5862 122.439 42.0263 123.132 41.3109C123.825 40.5956 124.359 39.7413 124.697 38.8044C124.937 38.0836 125.002 37.6031 125.094 37.6031Z" fill="#E0E0E0"/>
<path d="M116.823 81.8503L112.48 80.9261C112.232 80.8522 111.969 80.8522 111.722 80.9261C111.46 81.0484 111.254 81.2668 111.149 81.5361C110.812 82.1924 110.676 82.9335 110.759 83.6665C110.841 84.3996 111.137 85.0922 111.611 85.6577C112.109 86.1991 112.782 86.5484 113.512 86.6447C114.241 86.7409 114.981 86.578 115.603 86.1844C116.869 85.2603 117.183 83.5322 116.952 81.9981L116.823 81.8503Z" fill="#6F4439"/>
<path d="M115.788 86.3694C115.788 86.3694 115.64 86.5542 115.261 86.7205C114.72 86.9538 114.128 87.043 113.542 86.9793C112.65 86.8769 111.825 86.4532 111.223 85.7872C110.851 85.38 110.575 84.8947 110.415 84.3671C110.255 83.8394 110.215 83.2826 110.298 82.7376C110.381 82.1733 110.586 81.6339 110.899 81.1573C111.055 80.9322 111.235 80.7246 111.435 80.5381C111.549 80.4194 111.693 80.3333 111.851 80.2886C112.009 80.2519 112.173 80.2519 112.332 80.2886C112.567 80.3431 112.799 80.4141 113.025 80.5012L113.625 80.7045L114.725 81.0926C115.468 81.3057 116.18 81.6165 116.841 82.0167C116.074 81.9582 115.318 81.7934 114.596 81.527L113.477 81.2128L112.858 81.0279C112.646 80.9725 112.415 80.8893 112.239 80.8616C112.162 80.8429 112.082 80.846 112.007 80.8705C111.932 80.895 111.865 80.9399 111.814 81.0002C111.309 81.4962 110.984 82.1467 110.89 82.8485C110.821 83.3097 110.853 83.7802 110.982 84.2283C111.111 84.6763 111.335 85.0914 111.638 85.4453C112.139 86.0388 112.833 86.4378 113.598 86.5727C114.125 86.6677 114.667 86.6488 115.187 86.5172C115.557 86.4063 115.76 86.3232 115.788 86.3694Z" fill="#263238"/>
<path d="M128.717 145.615C128.717 145.615 126.194 146.318 128.088 151.474C129.983 156.631 130.602 156.326 131.868 161.15C133.134 165.974 134.594 170.391 136.793 173.163C138.993 175.936 147.19 181.481 147.19 181.481L154.583 174.55C153.918 171.709 153.607 168.798 153.659 165.881C153.945 162.379 154.685 153.775 154.583 152.306C154.202 150.572 153.638 148.884 152.901 147.269V144.783L149.121 133.158C149.121 133.158 147.024 132.234 146.284 135.57L145.027 132.003C145.027 132.003 143.031 131.689 142.514 135.782C142.264 139.04 142.404 142.316 142.93 145.541L141.876 152.676L140.305 157.509L138.947 157.712C138.947 157.712 136.886 157.158 135.768 153.285C134.649 149.413 131.554 144.802 128.717 145.615Z" fill="#AE7461"/>
<path d="M152.06 163.904C152.054 163.814 152.054 163.725 152.06 163.636C152.06 163.432 152.06 163.183 152.005 162.869C152.005 162.166 151.912 161.187 151.848 159.976C151.737 157.472 151.579 153.978 151.395 149.912V149.996C151.207 149.8 150.968 149.66 150.706 149.591C150.443 149.523 150.166 149.528 149.907 149.607C149.337 149.746 148.845 150.105 148.539 150.605C147.996 151.767 147.682 153.022 147.615 154.302C147.218 157.241 146.839 160.041 146.497 162.619C146.321 163.894 146.136 165.105 145.887 166.223C145.647 167.265 145.338 168.29 144.963 169.291C144.652 170.105 144.387 170.935 144.168 171.777C144.009 172.415 143.928 173.07 143.928 173.727C143.953 174.286 144.052 174.839 144.223 175.372C144.152 175.242 144.094 175.106 144.048 174.965C143.908 174.567 143.83 174.149 143.817 173.727C143.787 173.059 143.849 172.391 144.002 171.74C144.209 170.886 144.462 170.044 144.759 169.217C145.114 168.224 145.404 167.208 145.628 166.177C145.859 165.059 146.035 163.857 146.201 162.582C146.543 160.022 146.913 157.222 147.301 154.265C147.393 153.609 147.467 152.962 147.578 152.315C147.674 151.663 147.894 151.036 148.225 150.467C148.397 150.187 148.622 149.944 148.889 149.752C149.155 149.56 149.457 149.423 149.777 149.349C150.088 149.259 150.418 149.257 150.729 149.344C151.041 149.43 151.323 149.601 151.543 149.838V149.885C151.69 153.951 151.811 157.444 151.894 159.948C151.894 161.168 151.949 162.139 151.968 162.841C151.968 163.155 151.968 163.414 151.968 163.617C152.015 163.707 152.046 163.804 152.06 163.904Z" fill="#6F4439"/>
<path d="M148.059 150.679C147.929 150.47 147.824 150.247 147.744 150.014C147.508 149.409 147.304 148.792 147.134 148.166C146.884 147.217 146.708 146.249 146.608 145.273C146.547 144.689 146.547 144.101 146.608 143.517C146.664 142.875 146.884 142.258 147.245 141.724C147.565 141.246 148.037 140.891 148.585 140.717H148.696L148.761 140.819C149.824 142.667 150.748 144.349 151.395 145.541L152.143 146.955C152.243 147.122 152.327 147.299 152.393 147.482C152.258 147.339 152.146 147.177 152.06 147.001L151.228 145.643C150.535 144.478 149.574 142.87 148.502 140.967L148.669 141.031C148.183 141.2 147.767 141.525 147.486 141.956C147.154 142.452 146.954 143.024 146.903 143.619C146.848 144.181 146.848 144.748 146.903 145.31C146.994 146.274 147.148 147.231 147.366 148.175C147.55 148.988 147.744 149.626 147.883 150.069C147.955 150.268 148.014 150.472 148.059 150.679Z" fill="#6F4439"/>
<path d="M146.303 151.622C146.254 151.4 146.229 151.174 146.229 150.947C146.229 150.458 146.229 149.848 146.155 149.099C146.109 147.556 146.062 145.403 146.025 143.065C145.938 141.053 145.969 139.038 146.118 137.03C146.193 136.418 146.326 135.815 146.515 135.228C146.574 135.01 146.664 134.801 146.783 134.609C146.575 135.41 146.423 136.226 146.33 137.049C146.183 138.573 146.33 140.745 146.33 143.065C146.33 145.384 146.33 147.547 146.33 149.09C146.33 149.811 146.33 150.43 146.33 150.938C146.347 151.166 146.338 151.396 146.303 151.622Z" fill="#6F4439"/>
<path d="M140.093 170.973C140.046 170.973 140.508 170.391 141.072 169.411C141.402 168.835 141.689 168.236 141.932 167.619C142.517 166.104 142.808 164.492 142.791 162.869C142.783 162.206 142.724 161.545 142.615 160.891C142.421 159.773 142.181 159.107 142.237 159.089C142.33 159.227 142.399 159.38 142.44 159.542C142.606 159.967 142.733 160.406 142.819 160.854C142.96 161.514 143.044 162.185 143.068 162.859C143.103 164.526 142.788 166.182 142.144 167.72C141.891 168.348 141.582 168.951 141.22 169.522C140.98 169.911 140.708 170.278 140.407 170.622C140.317 170.751 140.211 170.869 140.093 170.973Z" fill="#6F4439"/>
<path d="M152.984 167.36L159.361 169.569C159.361 169.569 165.451 166.427 169.646 169.569C173.842 172.711 177.492 181.019 176.337 184.355C176.337 184.355 173.435 187.931 171.236 188.458C169.036 188.985 160.46 186.905 156.893 186.157C153.326 185.408 147.19 181.416 147.19 181.416L152.984 167.36Z" fill="#AE7461"/>
<path d="M154.537 174.503C154.537 174.503 154.315 174.503 154.195 174.235C154.031 173.852 153.922 173.448 153.871 173.034C153.671 171.527 153.566 170.008 153.557 168.487C153.492 164.643 153.631 159.338 153.991 153.489C154.181 151.353 153.717 149.209 152.661 147.343V147.279V147.223C152.661 146.382 152.661 145.569 152.661 144.783V144.848C151.598 141.447 150.692 138.555 150.018 136.429C149.731 135.45 149.491 134.655 149.306 134.027C149.21 133.744 149.138 133.453 149.094 133.158C149.238 133.418 149.353 133.694 149.435 133.98C149.648 134.6 149.925 135.385 150.267 136.346C150.979 138.462 151.94 141.336 153.04 144.663V144.737C153.04 145.523 153.04 146.336 153.04 147.177V147.048C154.167 149.006 154.664 151.265 154.463 153.516C154.102 159.348 153.908 164.606 153.89 168.469C153.89 170.391 153.89 171.934 154.047 172.997C154.075 173.402 154.153 173.803 154.278 174.189C154.291 174.259 154.322 174.324 154.367 174.379C154.412 174.434 154.471 174.477 154.537 174.503Z" fill="#6F4439"/>
<path d="M174.988 168.792C174.133 168.009 173.164 167.361 172.114 166.87C170.959 166.38 169.718 166.125 168.463 166.122C166.935 166.118 165.425 166.459 164.046 167.12C162.482 167.99 160.972 168.956 159.527 170.012L159.435 170.068H159.333C157.806 169.546 156.335 168.871 154.943 168.053C153.927 167.434 153.529 166.842 153.566 166.815C154.039 167.196 154.543 167.536 155.073 167.831C156.486 168.566 157.957 169.184 159.472 169.679H159.287C160.728 168.584 162.247 167.595 163.833 166.722C165.272 166.023 166.855 165.674 168.454 165.706C169.762 165.73 171.049 166.029 172.234 166.584C173.029 166.957 173.754 167.463 174.378 168.081C174.625 168.276 174.832 168.518 174.988 168.792Z" fill="#6F4439"/>
<path d="M71.7719 166.085C71.9567 166.177 69.6649 148.147 69.6649 148.147C69.6649 148.147 71.1065 134.461 71.9198 133.833V128.999C71.9198 128.999 74.1562 127.65 74.7568 129.831C74.7568 129.831 76.7437 128.112 77.0856 132.215C77.4276 136.318 77.5107 140.532 77.5107 140.532L80.7729 151.973C81.1802 151.968 81.5726 151.82 81.8817 151.555C82.1908 151.289 82.3969 150.924 82.4641 150.522C82.8753 147.66 83.4398 144.822 84.1552 142.02C84.7004 140.745 85.0793 137.649 87.1771 138.121C89.2749 138.592 89.4412 140.311 89.0716 143.139C88.7019 145.966 88.2214 148.877 88.397 150.698C88.5725 152.518 89.4043 156.538 89.1455 159.727C88.709 162.992 87.3822 166.074 85.3104 168.635C83.4621 171.001 79.9782 175.88 78.0745 177.35C77.4368 177.84 71.7719 166.085 71.7719 166.085Z" fill="#AE7461"/>
<path d="M71.7995 163.645L60.3496 168.718H53.4001C53.4001 168.718 46.5246 170.862 45.4619 177.303C44.3991 183.745 44.2513 187.071 47.3101 187.866C50.369 188.661 58.871 188.79 63.1035 187.349C67.336 185.907 78.3886 177.035 78.3886 177.035L79.4605 170.567L71.7995 163.645Z" fill="#AE7461"/>
<path d="M71.6055 163.848C71.4014 163.988 71.1811 164.103 70.9494 164.19L69.0457 165.059L62.2256 168.016L62.1332 168.062L62.0408 167.998C59.2518 166.406 56.1194 165.512 52.9104 165.391C51.5889 165.334 50.266 165.468 48.9828 165.789C47.8053 166.151 46.6638 166.621 45.5728 167.194C43.6719 168.084 41.895 169.218 40.2868 170.567C39.2055 171.48 38.3192 172.602 37.6808 173.866C37.5142 174.212 37.3751 174.57 37.2649 174.938C37.2341 175.071 37.1843 175.198 37.117 175.317C37.1103 175.179 37.1291 175.041 37.1725 174.91C37.2425 174.522 37.3573 174.144 37.5144 173.783C38.0959 172.454 38.9637 171.271 40.0558 170.317C41.6564 168.902 43.4445 167.714 45.3695 166.787C46.4838 166.186 47.6536 165.694 48.8627 165.318C50.1863 164.974 51.5537 164.831 52.9196 164.892C56.2143 165.018 59.4241 165.972 62.2533 167.665H62.0685L68.9532 164.892L70.9032 164.135C71.1253 164.012 71.361 163.916 71.6055 163.848Z" fill="#6F4439"/>
<path d="M73.1949 173.053C72.9186 172.855 72.6962 172.591 72.548 172.285C72.1196 171.467 71.8589 170.572 71.781 169.652C71.5037 167.369 71.1341 164.227 70.7644 160.752C70.3948 157.278 70.0898 154.126 69.8403 151.853C69.7386 150.707 69.6647 149.783 69.6278 149.145C69.5836 148.814 69.5836 148.479 69.6278 148.147C69.7349 148.464 69.8001 148.793 69.8218 149.127C69.9235 149.764 70.0436 150.679 70.1915 151.816C70.478 154.089 70.8384 157.241 71.208 160.715C71.5777 164.19 71.8919 167.341 72.0767 169.615C72.1267 170.502 72.3299 171.375 72.6774 172.193C72.9823 172.766 73.2319 173.025 73.1949 173.053Z" fill="#6F4439"/>
<path d="M77.409 144.414C76.2636 146.212 75.3331 148.138 74.6366 150.153C74.1054 152.219 73.814 154.34 73.7679 156.474C73.5777 155.861 73.4964 155.22 73.5276 154.579C73.491 151.47 74.4104 148.425 76.1614 145.855C76.4869 145.304 76.9096 144.815 77.409 144.414Z" fill="#6F4439"/>
<path d="M76.1892 143.406C76.0413 143.406 76.1892 140.237 75.801 136.374C75.4129 132.511 74.535 129.461 74.6828 129.415C74.9948 130.039 75.2247 130.701 75.3667 131.383C75.7974 133.003 76.1063 134.653 76.2908 136.318C76.4724 137.984 76.5249 139.662 76.4479 141.336C76.4587 142.035 76.3716 142.732 76.1892 143.406Z" fill="#6F4439"/>
<path d="M74.4332 148.101C74.1028 147.404 73.9625 146.633 74.0266 145.865C74.1352 144.046 74.345 142.235 74.655 140.44C74.7742 139.47 74.7368 138.487 74.5441 137.529C74.372 136.757 74.0346 136.032 73.5553 135.404C73.0851 134.838 72.5111 134.367 71.8641 134.017C72.2522 134.07 72.6258 134.2 72.9624 134.4C73.299 134.6 73.5918 134.866 73.8233 135.182C74.3726 135.832 74.7647 136.601 74.9692 137.427C75.2037 138.429 75.26 139.465 75.1355 140.486C74.8953 142.63 74.4055 144.488 74.3593 145.865C74.3131 147.242 74.5071 148.083 74.4332 148.101Z" fill="#6F4439"/>
<path d="M75.4775 155.18C75.7503 156.092 75.9755 157.017 76.1521 157.952C76.3712 158.947 76.649 159.929 76.9838 160.891C77.463 162.023 78.1892 163.033 79.1093 163.848C79.6193 164.297 80.0504 164.828 80.3846 165.419C80.6656 165.978 80.8826 166.567 81.0315 167.175C81.2886 168.195 81.3791 169.25 81.2995 170.299C81.2578 171.003 81.1242 171.699 80.9021 172.369C80.8397 172.619 80.7333 172.857 80.5879 173.071C80.7657 172.155 80.8922 171.229 80.9668 170.299C80.989 169.291 80.8676 168.286 80.6064 167.314C80.4555 166.74 80.2416 166.186 79.9688 165.659C79.653 165.119 79.2538 164.633 78.7859 164.218C77.8101 163.355 77.0504 162.276 76.568 161.067C76.2484 160.078 75.9983 159.068 75.8194 158.045C75.5908 157.107 75.476 156.145 75.4775 155.18Z" fill="#6F4439"/>
<path d="M26.7575 46.9276C26.7484 47.4647 26.5808 47.9871 26.2758 48.4293C25.9707 48.8715 25.5418 49.2138 25.043 49.413C24.5441 49.6123 23.9975 49.6597 23.4717 49.5494C22.946 49.439 22.4645 49.1758 22.0879 48.7928C21.7112 48.4097 21.4561 47.924 21.3546 47.3964C21.2531 46.8689 21.3098 46.3232 21.5174 45.8277C21.725 45.3322 22.0744 44.9092 22.5217 44.6116C22.9689 44.314 23.4941 44.1553 24.0313 44.1552C24.3933 44.1551 24.7516 44.2271 25.0854 44.367C25.4192 44.5069 25.7218 44.7119 25.9755 44.9699C26.2293 45.228 26.4291 45.534 26.5634 45.8701C26.6977 46.2062 26.7636 46.5657 26.7575 46.9276Z" fill="white"/>
<path d="M34.8437 46.9275C34.8436 47.4777 34.6798 48.0155 34.373 48.4724C34.0663 48.9293 33.6306 49.2845 33.1213 49.4929C32.612 49.7013 32.0522 49.7535 31.5132 49.6427C30.9742 49.5319 30.4803 49.2633 30.0945 48.8709C29.7087 48.4785 29.4483 47.9802 29.3466 47.4394C29.245 46.8986 29.3065 46.3398 29.5234 45.8341C29.7404 45.3284 30.1029 44.8987 30.5648 44.5997C31.0268 44.3007 31.5673 44.1459 32.1175 44.1551C32.4794 44.155 32.8377 44.227 33.1715 44.3669C33.5053 44.5068 33.8079 44.7118 34.0617 44.9698C34.3155 45.2279 34.5153 45.5339 34.6496 45.87C34.7838 46.2061 34.8498 46.5656 34.8437 46.9275Z" fill="white"/>
<path d="M42.9205 46.9276C42.9114 47.4651 42.7435 47.9879 42.4381 48.4303C42.1326 48.8727 41.7032 49.2149 41.2038 49.4139C40.7044 49.6129 40.1573 49.6598 39.6313 49.5487C39.1053 49.4376 38.6239 49.1734 38.2476 48.7895C37.8713 48.4055 37.617 47.9189 37.5165 47.3908C37.4161 46.8626 37.474 46.3166 37.683 45.8213C37.8921 45.326 38.2429 44.9036 38.6914 44.6071C39.1398 44.3107 39.6659 44.1535 40.2035 44.1552C40.565 44.1551 40.9229 44.2272 41.2562 44.3672C41.5895 44.5072 41.8915 44.7123 42.1446 44.9705C42.3976 45.2287 42.5966 45.5348 42.7298 45.8708C42.863 46.2069 42.9278 46.5661 42.9205 46.9276Z" fill="white"/>
<path d="M72.8714 92.8192L65.1272 94.1962C61.2375 98.5883 55.8455 101.367 50.0112 101.985C44.1769 102.604 38.3223 101.017 33.5982 97.5382C28.8742 94.0591 25.6223 88.9388 24.4818 83.1837C23.3413 77.4287 24.3948 71.4552 27.4351 66.4374C30.4753 61.4196 35.2826 57.7206 40.9118 56.0673C46.541 54.414 52.585 54.9261 57.8558 57.503C63.1266 60.0798 67.2429 64.535 69.3956 69.9927C71.5483 75.4505 71.5816 81.5161 69.4891 86.9972L72.8714 92.8192Z" fill="#FAFAFA"/>
<path d="M72.8715 92.8197C72.8715 92.8197 72.7883 92.6903 72.6404 92.4316L71.975 91.3134L69.4429 87.0162H69.5446C69.5329 87.026 69.5182 87.0313 69.503 87.0313C69.4878 87.0313 69.4731 87.026 69.4614 87.0162C69.4557 87.0064 69.4528 86.9952 69.4528 86.9838C69.4528 86.9725 69.4557 86.9613 69.4614 86.9515C71.266 82.1896 71.4671 76.9689 70.0344 72.0823C69.8588 71.4816 69.6185 70.8902 69.406 70.234C69.183 69.6007 68.9175 68.9832 68.6112 68.3858C67.3747 65.806 65.6665 63.4803 63.5747 61.5287C61.2693 59.3626 58.5461 57.6897 55.5718 56.6124C52.3545 55.4392 48.9201 54.982 45.508 55.2724C41.8809 55.6372 38.3851 56.8257 35.2872 58.7471C34.4872 59.2333 33.7215 59.7736 32.9953 60.3643C32.6072 60.6323 32.2838 60.9928 31.9234 61.2885C31.5629 61.5842 31.2118 61.9169 30.8976 62.268C30.2397 62.9618 29.6225 63.6931 29.0493 64.4582C28.7721 64.8556 28.4764 65.2345 28.1991 65.6319C27.9219 66.0292 27.7093 66.4636 27.4598 66.8795C25.6485 70.0363 24.5992 73.5724 24.3955 77.2063C24.1917 80.8401 24.8391 84.4714 26.2862 87.811C27.5763 90.7655 29.4628 93.4216 31.8275 95.6129C34.1921 97.8043 36.984 99.4835 40.028 100.545C42.6983 101.479 45.5175 101.915 48.3451 101.83C49.6317 101.794 50.9137 101.662 52.1802 101.433C53.3556 101.193 54.5158 100.884 55.655 100.508C59.3044 99.1913 62.569 96.9874 65.155 94.095L70.9031 93.1154L72.3909 92.8659L72.9084 92.7827L72.4186 92.8752L70.9493 93.1524L65.1735 94.2244C62.5954 97.1621 59.3186 99.4028 55.6457 100.739C54.5013 101.136 53.3349 101.466 52.1525 101.728C50.8733 101.958 49.5793 102.097 48.2804 102.144C45.4537 102.226 42.6355 101.794 39.9633 100.869C36.8819 99.8028 34.0546 98.1103 31.6593 95.898C29.2641 93.6857 27.3529 91.0015 26.0459 88.0143C24.5743 84.6356 23.914 80.9594 24.1178 77.2798C24.3216 73.6003 25.3838 70.0195 27.2195 66.824L27.9773 65.5672C28.2546 65.1606 28.5503 64.7817 28.8368 64.3843C29.4078 63.6086 30.025 62.868 30.685 62.1664C30.9992 61.806 31.3781 61.5103 31.7293 61.1776C32.0805 60.8449 32.4131 60.503 32.8013 60.2535C33.5438 59.6616 34.3215 59.1154 35.1301 58.6177C38.2655 56.6782 41.8024 55.4802 45.4711 55.1153C48.9187 54.8271 52.3876 55.2939 55.6365 56.483C58.6396 57.5766 61.3879 59.2716 63.7134 61.4641C65.8187 63.4421 67.5362 65.7958 68.7776 68.4043C69.0819 69.0014 69.3444 69.619 69.5631 70.2525C69.7756 70.8717 70.0251 71.4724 70.2007 72.1008C71.6249 77.0254 71.3944 82.2813 69.5446 87.0624L69.4429 87.0069C69.4472 87.0012 69.4528 86.9966 69.4592 86.9933C69.4657 86.9901 69.4727 86.9885 69.4799 86.9885C69.4871 86.9885 69.4942 86.9901 69.5006 86.9933C69.507 86.9966 69.5126 87.0012 69.5169 87.0069C70.5981 88.9106 71.4391 90.3708 72.0028 91.3781L72.6404 92.4963L72.8715 92.8197Z" fill="#263238"/>
<path d="M51.7551 75.6402C51.7551 75.6864 51.0713 75.0488 49.8329 73.986C49.2138 73.45 48.4375 72.8216 47.5041 72.1378C46.4534 71.3651 45.3477 70.6702 44.1958 70.0585C43.5281 69.7026 42.8364 69.3938 42.1257 69.1344C41.3763 68.8614 40.5852 68.7207 39.7877 68.7185C39.3928 68.7248 39.0044 68.8196 38.651 68.9957C38.3073 69.1751 38.0339 69.4648 37.8747 69.8182C37.7106 70.2034 37.6318 70.6196 37.6437 71.0381C37.6492 71.4931 37.7081 71.946 37.8193 72.3873C38.0509 73.3252 38.3889 74.2337 38.8266 75.095C39.2783 76.0074 39.7876 76.8902 40.3514 77.738C41.5556 79.522 42.9163 81.1951 44.4175 82.7375C45.9114 84.2889 47.5447 85.6995 49.297 86.9515C50.1244 87.5419 50.9887 88.079 51.8845 88.5595C52.7377 89.0149 53.6358 89.3803 54.5645 89.65C55.0025 89.7659 55.4518 89.8341 55.9045 89.8533C56.3237 89.8856 56.7447 89.8191 57.1336 89.6593C57.493 89.5124 57.7925 89.2487 57.9837 88.9107C58.1668 88.5623 58.2679 88.1767 58.2795 87.7833C58.3054 86.9868 58.1896 86.192 57.9375 85.436C57.7165 84.7187 57.4384 84.0203 57.1058 83.3474C56.5275 82.1864 55.8666 81.0685 55.1282 80.0021C54.4721 79.078 53.8621 78.2647 53.3539 77.6271C52.3281 76.3518 51.7089 75.6957 51.7551 75.6495C51.9435 75.7705 52.1145 75.9166 52.2634 76.0838C52.5684 76.3795 53.0212 76.8323 53.5664 77.4423C54.1117 78.0522 54.7678 78.8285 55.4147 79.7711C56.2026 80.8411 56.9041 81.9721 57.5124 83.1534C57.8793 83.8445 58.1884 84.5646 58.4366 85.3066C58.7239 86.1258 58.8646 86.9892 58.8524 87.8572C58.8345 88.3429 58.7116 88.819 58.492 89.2526C58.2346 89.7089 57.8356 90.069 57.3553 90.2784C56.8822 90.4772 56.371 90.5687 55.8583 90.5464C55.3561 90.5233 54.8575 90.449 54.3704 90.3246C53.4001 90.0683 52.4611 89.7057 51.5703 89.2434C50.6408 88.7564 49.7454 88.2068 48.8903 87.5984C47.0933 86.3325 45.4221 84.8965 43.9 83.3105C42.3631 81.7237 40.9771 79.9974 39.76 78.1539C39.1789 77.2668 38.6602 76.3404 38.2074 75.3815C37.754 74.4693 37.4067 73.508 37.1724 72.5167C37.0588 72.0288 36.9999 71.5298 36.9968 71.0288C36.9903 70.5128 37.0975 70.0016 37.311 69.5317C37.5462 69.0693 37.9258 68.6962 38.3922 68.469C38.8323 68.2641 39.3115 68.1569 39.7969 68.1548C40.664 68.1593 41.5228 68.3254 42.329 68.6446C43.0632 68.8898 43.7744 69.1991 44.4545 69.5687C45.6167 70.2131 46.7261 70.9486 47.7721 71.7681C48.6963 72.4889 49.4448 73.1636 50.0455 73.7273C50.6462 74.291 51.0805 74.7623 51.367 75.0765C51.5192 75.2477 51.6495 75.437 51.7551 75.6402Z" fill="#00707E"/>
<path d="M43.475 77.7102C43.5304 77.7102 43.2809 78.5696 42.9482 80.1129C42.7819 80.8892 42.5971 81.8318 42.4585 82.9408C42.2873 84.193 42.2162 85.4569 42.2459 86.7204C42.2667 87.4488 42.3409 88.1746 42.4677 88.8921C42.5981 89.6499 42.8609 90.3787 43.244 91.0454C43.4403 91.3723 43.7052 91.6529 44.0202 91.8678C44.3372 92.069 44.7079 92.169 45.083 92.1543C45.4865 92.1292 45.8802 92.019 46.2381 91.8309C46.6276 91.6287 46.9933 91.3839 47.3286 91.1008C48.0184 90.4837 48.6382 89.7926 49.1769 89.04C49.761 88.2461 50.2891 87.4123 50.7571 86.5448C52.725 82.8664 53.997 78.8563 54.5091 74.716C54.6266 73.738 54.676 72.7529 54.6569 71.7681C54.6468 70.8335 54.529 69.9032 54.3058 68.9957C54.1947 68.5698 54.0366 68.1576 53.8345 67.7666C53.6541 67.4058 53.3952 67.09 53.0767 66.8425C52.7806 66.6095 52.4181 66.4768 52.0417 66.4636C51.6636 66.4594 51.2889 66.5349 50.942 66.6854C50.2527 67.0134 49.627 67.4608 49.0937 68.0069C48.5616 68.5098 48.0731 69.057 47.6336 69.6426C46.8813 70.6586 46.2078 71.7306 45.619 72.8493C45.1015 73.8381 44.6948 74.6975 44.3899 75.4461C43.7707 76.897 43.4658 77.7287 43.4658 77.7102C43.4728 77.4949 43.5166 77.2824 43.5951 77.0818C43.706 76.6844 43.8816 76.093 44.1588 75.3444C44.4915 74.4352 44.8709 73.5438 45.2955 72.6737C45.8505 71.5117 46.5028 70.3988 47.2454 69.3468C47.6838 68.7288 48.1722 68.1477 48.7056 67.6095C49.2863 66.9979 49.9757 66.4996 50.7386 66.1401C51.1688 65.9468 51.6348 65.846 52.1063 65.8444C52.6077 65.8618 53.0915 66.0328 53.4925 66.3342C53.8793 66.6417 54.1946 67.0295 54.4167 67.4709C54.6505 67.8999 54.8305 68.3562 54.9527 68.8293C55.2003 69.7838 55.3368 70.7637 55.3593 71.7496C55.3817 72.7681 55.3354 73.7869 55.2207 74.7992C54.7132 79.0336 53.4121 83.1344 51.3855 86.8868C50.8938 87.7802 50.3411 88.6386 49.7313 89.4559C49.1479 90.2512 48.4716 90.9741 47.7167 91.6091C47.3418 91.9223 46.9326 92.192 46.4969 92.4131C46.0554 92.6392 45.5695 92.7653 45.0737 92.7827C44.5695 92.8024 44.0717 92.6634 43.6506 92.3853C43.2736 92.1124 42.9587 91.7629 42.7265 91.3596C42.31 90.6254 42.0342 89.8199 41.9132 88.9846C41.7897 88.2393 41.7279 87.4851 41.7284 86.7297C41.7262 85.4413 41.8344 84.1552 42.0518 82.8853C42.2367 81.7671 42.4585 80.8153 42.6618 80.0482C42.8651 79.2812 43.0684 78.6898 43.207 78.3016C43.3456 77.9135 43.4473 77.701 43.475 77.7102Z" fill="#00707E"/>
<path d="M46.3029 73.7181C46.3029 73.7735 45.4712 74.0046 43.9833 74.5405C43.244 74.7993 42.3384 75.1505 41.3218 75.6033C40.169 76.1369 39.0571 76.7546 37.995 77.4516C37.3901 77.8524 36.8156 78.2971 36.2761 78.7823C35.6928 79.2871 35.2073 79.8948 34.8437 80.5751C34.6725 80.9144 34.5749 81.286 34.5572 81.6656C34.5527 82.0405 34.6623 82.4079 34.8714 82.7191C35.1125 83.058 35.4288 83.3363 35.7956 83.5323C36.1702 83.7601 36.5703 83.9431 36.9877 84.0775C37.8892 84.3545 38.8193 84.5281 39.7601 84.5951C40.7415 84.6647 41.7266 84.6647 42.708 84.5951C44.7841 84.4811 46.8448 84.1717 48.8627 83.6709C50.8842 83.1726 52.8526 82.4793 54.7402 81.6009C55.6361 81.1865 56.5009 80.7077 57.3277 80.1685C58.1174 79.6696 58.8463 79.0804 59.4994 78.4126C59.8015 78.0979 60.0681 77.7508 60.2942 77.3776C60.5051 77.0316 60.6376 76.6436 60.6823 76.2409C60.7279 75.866 60.65 75.4864 60.4605 75.1597C60.2705 74.8309 60.0082 74.5497 59.6935 74.3372C59.052 73.9058 58.3384 73.5928 57.5865 73.4131C56.879 73.2399 56.1591 73.1225 55.4333 73.0619C54.1754 72.9607 52.9115 72.9607 51.6536 73.0619C50.5354 73.1359 49.5836 73.256 48.798 73.3761C47.2363 73.6164 46.3861 73.8105 46.3676 73.755C46.5553 73.6508 46.7579 73.576 46.9683 73.5332C47.3749 73.4224 47.9756 73.256 48.7518 73.0989C49.5281 72.9418 50.4892 72.7755 51.6166 72.6553C52.8995 72.5178 54.1918 72.4899 55.4795 72.5722C56.2324 72.6203 56.9802 72.7285 57.7159 72.8956C58.5398 73.0566 59.3265 73.37 60.0354 73.8197C60.4115 74.086 60.7266 74.4294 60.9596 74.827C61.2144 75.2624 61.3274 75.7662 61.283 76.2687C61.2293 76.7642 61.0719 77.2428 60.8209 77.6733C60.5735 78.0936 60.279 78.4843 59.943 78.8377C59.2582 79.5385 58.4955 80.1586 57.6697 80.686C56.824 81.2505 55.941 81.7569 55.0267 82.2016C53.0982 83.1037 51.0864 83.8155 49.0198 84.3271C46.9593 84.8577 44.8512 85.1828 42.7265 85.2974C41.71 85.3532 40.6907 85.3347 39.6769 85.242C38.6935 85.1654 37.7227 84.9731 36.7844 84.669C36.3216 84.5138 35.8782 84.3061 35.4629 84.0498C35.0356 83.7934 34.6696 83.4464 34.3909 83.0333C34.1124 82.6119 33.9704 82.115 33.9843 81.6101C34.0115 81.1412 34.1408 80.6839 34.3632 80.2701C34.7674 79.5325 35.3066 78.8773 35.9527 78.3387C36.5285 77.8363 37.147 77.3849 37.8009 76.9895C38.8954 76.3085 40.0454 75.7211 41.2387 75.2336C42.146 74.8773 43.0714 74.5688 44.0111 74.3095C44.7688 74.0785 45.3695 73.9399 45.7854 73.8474C45.9514 73.7817 46.1254 73.7382 46.3029 73.7181Z" fill="#00707E"/>
<path d="M50.6556 78.7176C50.7703 79.1641 50.7494 79.6347 50.5955 80.0693C50.4415 80.5039 50.1616 80.8827 49.7914 81.1575C49.4212 81.4322 48.9775 81.5905 48.517 81.6119C48.0565 81.6334 47.6 81.5172 47.2059 81.278C46.8117 81.0389 46.4977 80.6878 46.3041 80.2694C46.1104 79.851 46.0457 79.3845 46.1184 78.9292C46.1911 78.4739 46.3978 78.0507 46.7121 77.7134C47.0265 77.3762 47.4342 77.1402 47.8832 77.0357C48.4736 76.8959 49.0953 76.9939 49.614 77.3086C50.1327 77.6233 50.5069 78.1294 50.6556 78.7176Z" fill="#00707E"/>
<path d="M210.012 152.084L208.432 135.579L183.684 105C182.039 112.569 180.2 127.179 182.667 134.48C183.591 137.252 184.811 140.024 184.515 142.926C184.229 145.606 182.667 148.11 182.843 150.8C183 152.805 184.155 154.579 185.273 156.261C185.431 156.677 185.669 157.058 185.975 157.381C186.28 157.705 186.647 157.965 187.053 158.146C187.459 158.327 187.897 158.426 188.342 158.437C188.787 158.449 189.229 158.372 189.644 158.211L208.265 154.515C208.862 154.472 209.42 154.204 209.827 153.766C210.09 153.246 210.155 152.649 210.012 152.084Z" fill="#263238"/>
<path d="M150.831 206.543L166.708 200.139L178.86 168.451L195.023 176.768C195.023 176.768 193.461 179.901 190.125 187.645C188.831 190.63 184.58 198.965 182.815 203.022C181.209 206.776 178.561 209.99 175.183 212.283C171.805 214.576 167.841 215.852 163.76 215.96L148.863 216.348L150.831 206.543Z" fill="#FFBF9D"/>
<path d="M142.939 200.407L140.545 197.884C140.083 197.589 139.541 197.441 138.993 197.459L131.387 197.69C130.68 197.759 129.998 197.986 129.39 198.354C128.782 198.722 128.265 199.221 127.876 199.815L125.103 204.519C125.103 204.519 123.255 207.744 123.477 208.521C123.585 208.845 123.809 209.118 124.105 209.289C124.401 209.459 124.75 209.515 125.085 209.445C125.085 209.445 125.344 210.933 125.843 211.238C126.127 211.381 126.438 211.464 126.755 211.483C127.073 211.502 127.391 211.456 127.691 211.349C127.819 211.635 128.03 211.877 128.297 212.042C128.564 212.206 128.874 212.287 129.188 212.273C129.319 212.264 129.449 212.242 129.576 212.208C130.5 211.931 130.888 210.184 130.888 210.184L134.742 209.473C134.742 209.473 140.287 213.169 142.227 215.59C144.168 218.012 149.288 216.163 149.288 216.163L151.201 207.024L142.939 200.407Z" fill="#FFBF9D"/>
<path d="M137.339 201.497C136.801 201.671 136.24 201.764 135.675 201.775C134.631 201.895 133.143 201.932 131.48 202.154L131.655 202.024C131.37 202.663 131.04 203.281 130.666 203.872C129.661 205.48 128.432 206.936 127.016 208.197C126.459 208.753 125.816 209.214 125.112 209.565C125.066 209.5 125.769 208.964 126.785 207.957C128.1 206.645 129.265 205.192 130.26 203.623C130.619 203.056 130.946 202.47 131.239 201.867L131.295 201.747H131.415C133.134 201.553 134.612 201.571 135.657 201.544C136.214 201.471 136.778 201.456 137.339 201.497Z" fill="#FF9A6C"/>
<path d="M137.514 205.129C137.066 205.347 136.579 205.475 136.082 205.508C134.851 205.678 133.601 205.634 132.385 205.379L132.653 205.222C132.495 205.691 132.31 206.151 132.099 206.599C131.413 208.034 130.441 209.314 129.243 210.36C128.78 210.826 128.222 211.189 127.607 211.423C127.607 211.367 128.171 210.933 129.012 210.11C130.097 209.036 130.994 207.786 131.664 206.414C131.868 205.983 132.05 205.542 132.21 205.092L132.284 204.898L132.478 204.944C134.141 205.232 135.835 205.294 137.514 205.129Z" fill="#FF9A6C"/>
<path d="M147.162 207.005L140.388 203.835C139.48 203.326 138.47 203.026 137.431 202.957C136.317 203.051 135.24 203.405 134.289 203.993L130.648 205.887C130.437 205.967 130.263 206.122 130.158 206.321C130.137 206.466 130.155 206.613 130.21 206.748C130.266 206.883 130.356 207 130.472 207.088C131.417 207.983 132.652 208.505 133.952 208.559C135.251 208.614 136.526 208.196 137.542 207.384C138.031 209.01 138.804 210.537 139.825 211.894C140.343 212.567 141.026 213.096 141.807 213.43C142.589 213.763 143.443 213.89 144.288 213.798" fill="#FFBF9D"/>
<path d="M144.288 213.816C144.288 213.816 144.233 213.816 144.112 213.871C143.931 213.918 143.745 213.94 143.558 213.936C142.847 213.947 142.145 213.779 141.516 213.446C140.541 212.924 139.717 212.16 139.122 211.228C138.384 210.039 137.788 208.768 137.348 207.439L137.69 207.532C136.586 208.449 135.165 208.894 133.735 208.77C132.561 208.702 131.443 208.247 130.556 207.476C130.397 207.339 130.252 207.188 130.121 207.024C130.038 206.921 129.978 206.802 129.944 206.675C129.911 206.547 129.905 206.414 129.927 206.284C129.994 206.072 130.139 205.893 130.334 205.785C130.5 205.684 130.629 205.619 130.777 205.545L131.618 205.111L133.272 204.251C134.303 203.65 135.401 203.172 136.544 202.828C137.641 202.632 138.771 202.805 139.76 203.318C140.684 203.734 141.497 204.14 142.273 204.51L145.878 206.266C146.332 206.458 146.766 206.696 147.171 206.977C146.7 206.833 146.24 206.653 145.794 206.441L142.098 204.815L139.575 203.687C138.661 203.22 137.617 203.071 136.609 203.262C135.511 203.609 134.457 204.08 133.467 204.667L131.812 205.526L130.971 205.97C130.685 206.118 130.38 206.257 130.371 206.404C130.361 206.552 130.574 206.894 130.851 207.116C131.136 207.352 131.446 207.556 131.775 207.726C132.402 208.049 133.087 208.244 133.79 208.299C135.1 208.428 136.408 208.036 137.431 207.208L137.662 207.005L137.764 207.301C138.182 208.591 138.743 209.831 139.436 210.997C139.987 211.893 140.753 212.636 141.664 213.16C142.458 213.623 143.369 213.851 144.288 213.816Z" fill="#FF9A6C"/>
<path d="M237.579 135.589C234.234 130.044 231.48 114.482 231.286 109.399C231.092 104.316 228.181 98.3093 224.632 94.6683C221.083 91.0272 214.929 89.6225 210.77 92.5705L209.92 96.8954C211.556 116.515 211.334 136.448 212.96 156.04C213.182 158.618 215.271 160.947 216.444 163.257C217.618 165.567 219.965 167.462 222.543 167.305C225.926 167.092 231.045 165.558 232.09 162.333C235.906 150.707 251.94 159.302 237.579 135.589Z" fill="#263238"/>
<path d="M225.99 96.8676C223.627 93.8349 220.614 91.3712 217.172 89.6583C213.73 87.9453 209.947 87.0267 206.103 86.9702C201.584 86.8962 199.717 87.8388 196.464 88.7167C193.21 89.4964 190.334 91.3973 188.341 94.0859C186.031 97.3573 184.099 101.026 183.665 105C183.09 109.073 182.892 113.19 183.074 117.3C183.263 121.43 184.59 125.428 186.909 128.852L197.342 130.7C203.1 130.903 208.94 131.088 214.549 129.776C220.159 128.463 225.639 125.442 228.615 120.534C232.783 113.65 231.045 103.105 225.99 96.8676Z" fill="#263238"/>
<path d="M216.749 96.8029L202.887 91.2581L199.255 91.674C191.086 91.674 185.449 100.721 185.393 107.384C185.338 114.777 185.55 123.723 186.724 129.138C189.071 140.043 198.368 140.948 198.368 140.948C198.368 140.948 198.183 146.752 198.109 150.412L219.364 148.877L220.427 100.564C220.403 99.5885 220.01 98.6583 219.327 97.9606C218.645 97.2629 217.724 96.8492 216.749 96.8029Z" fill="#FFBF9D"/>
<path d="M202.979 126.56C202.917 126.163 202.755 125.788 202.508 125.471C202.262 125.153 201.94 124.903 201.571 124.744C201.202 124.584 200.799 124.521 200.399 124.559C199.999 124.597 199.615 124.735 199.283 124.961C198.833 125.306 198.484 125.764 198.271 126.289C198.059 126.814 197.99 127.386 198.072 127.946C198.312 128.282 198.62 128.564 198.977 128.771C199.334 128.978 199.731 129.106 200.142 129.147H200.53C201.179 129.142 201.801 128.894 202.277 128.454C202.53 128.213 202.725 127.917 202.847 127.588C202.969 127.26 203.014 126.908 202.979 126.56Z" fill="#FF9A6C"/>
<path d="M189.025 116.662C189.04 117.03 189.198 117.377 189.466 117.63C189.733 117.882 190.09 118.019 190.457 118.012C190.638 118.017 190.817 117.985 190.985 117.92C191.153 117.854 191.306 117.756 191.435 117.63C191.565 117.504 191.667 117.354 191.738 117.187C191.808 117.021 191.844 116.843 191.844 116.662C191.827 116.296 191.668 115.95 191.401 115.698C191.133 115.446 190.778 115.308 190.411 115.313C190.231 115.307 190.051 115.337 189.882 115.402C189.714 115.468 189.56 115.566 189.43 115.692C189.301 115.818 189.198 115.969 189.129 116.136C189.059 116.303 189.024 116.482 189.025 116.662Z" fill="#263238"/>
<path d="M187.796 111.034C187.981 111.21 188.998 110.36 190.569 110.277C192.14 110.194 193.239 110.896 193.341 110.702C193.443 110.508 193.221 110.295 192.722 109.972C192.043 109.548 191.247 109.347 190.448 109.399C189.658 109.442 188.901 109.733 188.286 110.231C187.842 110.619 187.704 110.961 187.796 111.034Z" fill="#263238"/>
<path d="M197.546 122.937C196.731 122.724 195.893 122.618 195.051 122.623C194.663 122.623 194.293 122.549 194.21 122.29C194.159 121.891 194.23 121.485 194.413 121.126C194.718 120.202 195.051 119.167 195.393 118.113C196.751 113.825 197.712 110.305 197.546 110.258C197.379 110.212 196.123 113.631 194.773 117.919C194.45 118.982 194.136 119.989 193.849 120.951C193.631 121.432 193.588 121.975 193.729 122.485C193.795 122.617 193.89 122.734 194.007 122.825C194.123 122.916 194.259 122.98 194.404 123.011C194.619 123.059 194.84 123.078 195.06 123.067C195.891 123.126 196.726 123.082 197.546 122.937Z" fill="#263238"/>
<path d="M198.266 140.902C203.448 140.7 208.471 139.062 212.775 136.171C212.775 136.171 209.273 144.007 198.211 143.564L198.266 140.902Z" fill="#FF9A6C"/>
<path d="M202.065 123.741C201.815 123.741 201.908 125.386 200.558 126.634C199.209 127.881 197.453 127.789 197.453 128.02C197.453 128.251 197.86 128.325 198.599 128.297C199.566 128.262 200.489 127.885 201.205 127.234C201.89 126.608 202.304 125.74 202.36 124.813C202.388 124.12 202.176 123.723 202.065 123.741Z" fill="#263238"/>
<path d="M188.304 105.721C188.582 106.072 189.737 105.767 191.077 105.804C192.417 105.841 193.59 106.137 193.849 105.804C193.969 105.638 193.849 105.286 193.313 104.935C192.641 104.516 191.867 104.289 191.075 104.279C190.283 104.269 189.504 104.477 188.822 104.88C188.36 105.194 188.184 105.545 188.304 105.721Z" fill="#263238"/>
<path d="M205.549 116.284C205.556 116.651 205.421 117.007 205.171 117.276C204.921 117.545 204.576 117.706 204.209 117.725C204.029 117.743 203.848 117.725 203.676 117.671C203.503 117.618 203.344 117.53 203.206 117.414C203.068 117.297 202.955 117.155 202.873 116.994C202.791 116.833 202.743 116.658 202.73 116.478C202.722 116.11 202.858 115.754 203.108 115.485C203.358 115.216 203.703 115.055 204.07 115.036C204.25 115.018 204.431 115.037 204.603 115.09C204.775 115.144 204.935 115.231 205.073 115.347C205.211 115.464 205.324 115.607 205.406 115.767C205.487 115.928 205.536 116.104 205.549 116.284Z" fill="#263238"/>
<path d="M208.33 110.443C208.154 110.637 207.073 109.861 205.558 109.889C204.042 109.916 202.942 110.702 202.785 110.517C202.628 110.332 202.878 110.101 203.349 109.741C203.998 109.272 204.776 109.017 205.576 109.011C206.369 108.992 207.146 109.228 207.794 109.685C208.247 110.037 208.432 110.36 208.33 110.443Z" fill="#263238"/>
<path d="M207.415 105.582C207.12 105.933 205.946 105.582 204.532 105.582C203.118 105.582 201.935 105.859 201.649 105.508C201.529 105.333 201.713 104.981 202.231 104.649C202.934 104.23 203.741 104.019 204.56 104.039C205.376 104.039 206.176 104.266 206.87 104.695C207.378 105.065 207.508 105.416 207.415 105.582Z" fill="#263238"/>
<path d="M218.486 119.01C218.44 118.187 219.281 116.237 220.085 116.034C222.229 115.581 226.129 115.544 226.462 121.024C226.924 128.519 219.309 127.438 219.281 127.225C219.253 127.013 218.597 121.838 218.486 119.01Z" fill="#FFBF9D"/>
<path d="M221.176 124.361C221.176 124.361 221.314 124.444 221.545 124.527C221.857 124.65 222.204 124.65 222.516 124.527C223.292 124.185 223.883 122.891 223.837 121.533C223.815 120.889 223.651 120.258 223.357 119.684C223.268 119.459 223.127 119.257 222.946 119.097C222.764 118.936 222.547 118.821 222.312 118.76C222.16 118.732 222.002 118.756 221.866 118.831C221.73 118.905 221.623 119.023 221.564 119.167C221.471 119.389 221.564 119.537 221.49 119.546C221.416 119.555 221.324 119.435 221.37 119.121C221.395 118.932 221.487 118.758 221.629 118.631C221.826 118.463 222.082 118.38 222.34 118.4C222.652 118.441 222.948 118.561 223.2 118.749C223.452 118.937 223.652 119.185 223.782 119.472C224.141 120.101 224.338 120.809 224.355 121.533C224.355 123.048 223.717 124.508 222.654 124.887C222.456 124.956 222.245 124.981 222.036 124.96C221.827 124.939 221.625 124.874 221.444 124.767C221.203 124.536 221.157 124.361 221.176 124.361Z" fill="#FF9A6C"/>
<path d="M220.39 116.043L218.486 118.012C210.261 110.147 194.2 90.4449 195.096 91.6185C198.843 90.2163 202.882 89.7778 206.842 90.3432C212.951 91.3783 224.548 94.4371 224.401 101.655C224.253 108.872 220.39 116.043 220.39 116.043Z" fill="#263238"/>
<path d="M231.276 114.408C231.26 114.258 231.223 114.112 231.166 113.973C231.029 113.566 230.859 113.17 230.657 112.79C229.879 111.405 228.81 110.203 227.524 109.269C225.611 107.901 223.476 106.873 221.213 106.229C218.708 105.416 215.88 104.778 213.108 103.595C210.493 102.499 208.013 101.107 205.715 99.4459C203.836 98.0694 202.088 96.5226 200.494 94.8252C199.415 93.6921 198.406 92.4947 197.472 91.2396C197.158 90.8238 196.908 90.4818 196.714 90.2138C196.634 90.0872 196.542 89.9695 196.437 89.8627C196.495 89.9988 196.566 90.1288 196.649 90.2508C196.806 90.5003 197.028 90.87 197.342 91.332C198.243 92.6279 199.227 93.8627 200.29 95.0285C201.879 96.7459 203.628 98.3085 205.512 99.6954C207.822 101.391 210.325 102.806 212.969 103.909C215.64 104.922 218.361 105.798 221.12 106.534C223.35 107.15 225.462 108.134 227.367 109.445C228.647 110.341 229.726 111.492 230.537 112.827C231.073 113.816 231.239 114.417 231.276 114.408Z" fill="#455A64"/>
<path d="M229.095 115.581C229.121 115.022 229.023 114.463 228.809 113.946C228.244 112.513 227.262 111.284 225.99 110.415C224.088 109.193 221.961 108.36 219.734 107.966C217.063 107.433 214.46 106.606 211.971 105.499C209.49 104.371 207.161 102.933 205.04 101.22C203.309 99.8404 201.717 98.2926 200.29 96.5996C199.331 95.4422 198.446 94.2262 197.638 92.9586C197.389 92.5335 197.176 92.1916 197.01 91.9143C196.843 91.6371 196.779 91.5539 196.76 91.5632C196.81 91.6965 196.868 91.8261 196.936 91.9513L197.518 93.0417C198.28 94.3345 199.136 95.5699 200.078 96.7382C201.49 98.4862 203.079 100.084 204.819 101.507C206.952 103.249 209.3 104.712 211.805 105.859C214.321 106.976 216.956 107.801 219.66 108.318C221.848 108.691 223.944 109.481 225.833 110.646C227.084 111.471 228.069 112.639 228.67 114.01C228.863 114.519 229.005 115.045 229.095 115.581Z" fill="#455A64"/>
<path d="M213.977 118.816C213.942 120.771 214.488 122.692 215.545 124.336C216.603 125.981 218.124 127.275 219.916 128.056C221.709 128.836 223.693 129.068 225.617 128.721C227.541 128.374 229.319 127.465 230.727 126.108C232.134 124.751 233.108 123.007 233.524 121.096C233.941 119.186 233.782 117.195 233.067 115.375C232.353 113.556 231.114 111.988 229.509 110.872C227.904 109.755 226.004 109.14 224.049 109.103C221.426 109.056 218.891 110.053 217.002 111.874C215.113 113.695 214.025 116.192 213.977 118.816Z" fill="#00707E"/>
<path d="M224.022 109.131C224.022 109.131 223.532 88.7353 205.539 86.0738C205.539 86.0738 198.387 85.1959 195.023 89.1511C195.023 89.1511 199.865 87.1735 204.513 88.3841C207.582 89.1881 218.773 94.1599 219.3 110.767L223.92 112.763L224.022 109.131Z" fill="#00707E"/>
<path d="M216.832 118.964C216.832 118.964 216.832 118.964 216.832 118.843C216.832 118.723 216.832 118.649 216.832 118.501C216.844 118.316 216.866 118.131 216.897 117.947C216.933 117.694 216.986 117.444 217.054 117.198C217.228 116.525 217.499 115.881 217.858 115.285C218.34 114.497 218.967 113.808 219.706 113.252C220.595 112.577 221.63 112.118 222.728 111.912C223.991 111.687 225.292 111.799 226.498 112.236C227.16 112.463 227.784 112.791 228.347 113.206C228.632 113.419 228.904 113.651 229.16 113.899C229.411 114.162 229.646 114.44 229.862 114.731C230.76 115.96 231.248 117.441 231.258 118.964C231.243 119.732 231.119 120.494 230.888 121.228C230.651 121.933 230.305 122.598 229.862 123.196C229.646 123.488 229.411 123.765 229.16 124.028C228.904 124.276 228.632 124.508 228.347 124.721C227.786 125.143 227.162 125.474 226.498 125.7C225.371 126.112 224.158 126.234 222.971 126.055C221.784 125.876 220.662 125.401 219.706 124.675C218.967 124.119 218.34 123.43 217.858 122.642C217.498 122.047 217.227 121.402 217.054 120.729C216.985 120.483 216.932 120.233 216.897 119.98C216.865 119.797 216.844 119.611 216.832 119.426V119.084C216.832 119.001 216.832 118.964 216.832 118.964C216.832 118.964 216.832 118.964 216.832 119.084V119.426C216.832 119.614 216.847 119.803 216.878 119.989C216.907 120.245 216.953 120.498 217.017 120.747C217.178 121.435 217.447 122.093 217.812 122.697C218.288 123.505 218.916 124.214 219.66 124.786C220.63 125.536 221.775 126.027 222.987 126.215C224.199 126.402 225.439 126.279 226.591 125.858C227.253 125.623 227.876 125.289 228.439 124.869C228.731 124.65 229.009 124.412 229.271 124.157C229.533 123.893 229.774 123.609 229.992 123.307C230.447 122.692 230.803 122.009 231.045 121.283C231.546 119.784 231.546 118.162 231.045 116.662C230.803 115.937 230.447 115.254 229.992 114.639C229.769 114.341 229.528 114.057 229.271 113.788C229.009 113.537 228.731 113.302 228.439 113.086C227.879 112.659 227.255 112.322 226.591 112.088C225.357 111.642 224.026 111.537 222.737 111.783C221.616 111.99 220.561 112.462 219.66 113.16C218.916 113.732 218.288 114.441 217.812 115.249C217.448 115.854 217.18 116.512 217.017 117.198C216.954 117.448 216.908 117.701 216.878 117.956C216.847 118.143 216.832 118.331 216.832 118.52V118.816C216.823 118.927 216.823 118.964 216.832 118.964Z" fill="#263238"/>
<path d="M221.748 115.988C221.748 115.988 223.005 117.374 224.641 119.01C226.277 120.645 227.626 121.939 227.663 121.902C227.7 121.865 226.406 120.507 224.77 118.88C223.135 117.254 221.785 115.951 221.748 115.988Z" fill="#263238"/>
<path d="M222.885 118.566C223.202 119.007 223.568 119.41 223.976 119.768C224.34 120.165 224.75 120.518 225.196 120.821C224.88 120.383 224.514 119.982 224.105 119.629C223.742 119.227 223.333 118.871 222.885 118.566Z" fill="#263238"/>
<path d="M229.687 220.941L185.329 227.41C168.695 232.123 151.136 233.509 132.801 231.91L199.533 262.98L226.332 263.395C228.4 263.117 230.364 262.319 232.039 261.077C233.715 259.834 235.049 258.187 235.916 256.289C244.02 238.86 236.978 224.564 236.978 224.564C236.978 224.564 233.615 222.919 229.687 220.941Z" fill="#263238"/>
<path d="M198.091 148.554L219.623 146.225L223.569 149.811L208.192 158.849L201.408 162.37L194.709 160.328L192.583 156.335L198.091 148.554Z" fill="#FFBF9D"/>
<path d="M169.055 174.772C169.055 174.772 175.81 161.834 177.483 158.987C179.535 155.831 182.339 153.233 185.643 151.428L198.091 148.554C198.091 148.554 196.797 154.783 204.56 155.217C214.402 155.762 220.519 146.318 220.519 146.318C220.519 146.318 231.757 147.473 234.862 148.785C237.967 150.097 246.737 153.757 248.031 165.419L251.034 184.466L227.293 186.314L227.626 211.672L217.535 219.924C217.535 219.924 188.572 229.896 186.724 230.552C185.8 230.866 186.059 218.538 183.952 208.012L180.043 198.522C178.462 194.727 177.525 190.694 177.27 186.591C177.122 183.883 177.196 181.841 177.196 181.841C177.196 181.841 171.134 179.725 169.055 174.772Z" fill="#455A64"/>
<path d="M187.759 220.562L227.561 208.622L227.275 186.277L247.541 184.734C247.541 184.734 245.924 196.304 245.693 202.237C245.351 210.776 241.248 222.697 238.494 225.229C235.74 227.761 186.742 230.515 186.742 230.515L187.759 220.562Z" fill="#FFBF9D"/>
<path d="M165.192 227.586C165.348 227.855 165.581 228.071 165.861 228.208C166.141 228.344 166.454 228.395 166.763 228.353C166.896 228.329 167.026 228.291 167.151 228.242C168.029 227.881 167.798 226.07 167.798 226.07L172.04 225.035C172.04 225.035 177.889 228.195 180.061 230.432C182.233 232.668 187.149 230.339 187.149 230.339L188.193 221.098L179.784 214.528C179.784 214.528 180.301 214.916 179.654 213.604C179.008 212.291 176.559 213.012 176.559 213.012C176.124 212.374 174.479 212.264 174.479 212.264L167.622 213.604C166.923 213.739 166.263 214.03 165.691 214.453C165.118 214.877 164.648 215.423 164.314 216.052L161.745 220.913C161.745 220.913 160.46 224.37 160.765 225.127C160.901 225.444 161.148 225.699 161.46 225.844C161.773 225.989 162.127 226.014 162.456 225.913C162.456 225.913 162.965 228.085 163.547 228.112C164.137 228.041 164.708 227.855 165.229 227.567L165.192 227.586Z" fill="#FFBF9D"/>
<path d="M179.424 219.878C179.424 219.952 178.499 219.943 177.021 220.119C175.112 220.36 173.246 220.863 171.476 221.616C170.517 222.036 169.59 222.527 168.704 223.085C167.909 223.621 167.059 224.074 166.855 224.702C166.805 224.84 166.793 224.989 166.819 225.133C166.844 225.278 166.908 225.413 167.003 225.525C167.144 225.712 167.337 225.854 167.558 225.931C167.759 225.97 167.966 225.97 168.168 225.931C168.168 225.931 167.974 226.144 167.512 226.061C167.24 225.998 166.995 225.853 166.809 225.645C166.679 225.503 166.587 225.329 166.543 225.142C166.5 224.954 166.505 224.758 166.56 224.573C166.714 224.158 166.987 223.798 167.345 223.538C167.706 223.261 168.084 222.974 168.5 222.706C171.07 221.021 174.022 220.01 177.085 219.767C177.866 219.69 178.654 219.728 179.424 219.878Z" fill="#FF9A6C"/>
<path d="M180.246 224.259C180.246 224.388 177.427 224.49 173.98 224.961C170.533 225.432 167.779 226.07 167.742 225.941C168.303 225.673 168.897 225.48 169.508 225.368C170.96 225.003 172.431 224.722 173.916 224.527C175.398 224.319 176.892 224.199 178.388 224.166C179.009 224.113 179.634 224.145 180.246 224.259Z" fill="#FF9A6C"/>
<path d="M165.22 227.41C165.14 227.174 165.09 226.928 165.072 226.68C164.976 226.006 164.924 225.327 164.915 224.647C164.899 224.177 164.927 223.707 164.998 223.242C165.081 222.689 165.273 222.159 165.562 221.68C166.161 220.578 166.971 219.605 167.946 218.815C168.911 218.025 169.985 217.378 171.134 216.893C172.086 216.535 173.08 216.302 174.091 216.2C174.942 216.108 175.635 216.071 176.115 216.052C176.36 216.015 176.609 216.015 176.854 216.052C175.94 216.258 175.015 216.406 174.082 216.496C173.107 216.638 172.152 216.892 171.236 217.254C170.139 217.745 169.113 218.383 168.186 219.148C167.246 219.896 166.458 220.819 165.867 221.865C165.388 222.709 165.151 223.668 165.183 224.637C165.192 226.347 165.312 227.401 165.22 227.41Z" fill="#FF9A6C"/>
<path d="M174.239 214.075C174.239 214.139 173.213 214.241 171.568 214.564C169.923 214.888 167.456 215.248 166.171 217.549C164.913 219.303 163.897 221.217 163.15 223.242C162.916 224.107 162.764 224.992 162.697 225.885C162.622 225.649 162.591 225.402 162.604 225.155C162.588 224.478 162.672 223.802 162.854 223.15C163.535 221.047 164.552 219.068 165.867 217.291C166.213 216.748 166.629 216.254 167.105 215.821C167.567 215.419 168.1 215.106 168.676 214.897C169.616 214.574 170.584 214.342 171.568 214.204C172.449 214.047 173.347 214.003 174.239 214.075Z" fill="#FF9A6C"/>
<path d="M178.435 229.073C178.279 228.995 178.134 228.898 178 228.787L176.762 227.946C175.22 226.931 173.622 226.006 171.975 225.173H172.067L167.844 226.236L167.973 226.042C168.015 226.392 168.015 226.746 167.973 227.096C167.951 227.486 167.809 227.86 167.567 228.168C167.423 228.326 167.232 228.433 167.022 228.473C166.829 228.542 166.625 228.57 166.421 228.556C166.002 228.525 165.609 228.345 165.312 228.048C165.234 227.974 165.163 227.894 165.099 227.807L165.053 227.743L165.312 227.816L165.183 227.881L164.647 228.121C164.456 228.197 164.262 228.262 164.064 228.315C163.962 228.344 163.857 228.363 163.75 228.371C163.616 228.399 163.477 228.382 163.353 228.325C163.148 228.195 162.984 228.009 162.882 227.789C162.789 227.604 162.697 227.41 162.623 227.216C162.469 226.823 162.337 226.422 162.225 226.014L162.493 226.172C162.208 226.257 161.904 226.263 161.616 226.188C161.328 226.113 161.065 225.96 160.858 225.746C160.639 225.519 160.508 225.221 160.488 224.905C160.49 224.623 160.521 224.341 160.58 224.065C160.814 222.988 161.122 221.928 161.505 220.895L162.882 218.298C163.168 217.743 163.454 217.198 163.75 216.653C163.999 216.088 164.309 215.552 164.674 215.054C165.084 214.573 165.587 214.181 166.153 213.899C166.704 213.648 167.29 213.48 167.89 213.4L174.359 212.153H174.415C174.809 212.185 175.199 212.256 175.579 212.365C175.987 212.455 176.356 212.672 176.633 212.984L176.383 212.929C176.728 212.747 177.111 212.652 177.501 212.652C177.891 212.652 178.275 212.747 178.619 212.929C179.228 213.306 179.671 213.901 179.858 214.592L179.793 214.509L185.615 218.982L187.186 220.22C187.375 220.355 187.551 220.507 187.713 220.673C187.506 220.567 187.311 220.44 187.131 220.294L185.504 219.13L179.599 214.768V214.712C179.432 214.111 179.046 213.593 178.518 213.261C178.226 213.128 177.907 213.064 177.586 213.075C177.265 213.086 176.951 213.172 176.67 213.326L176.522 213.4L176.42 213.271C176.193 213.035 175.9 212.874 175.579 212.809C175.222 212.713 174.857 212.652 174.489 212.624H174.544L168.075 213.899C167.513 213.977 166.965 214.136 166.449 214.37C165.938 214.627 165.485 214.986 165.118 215.424C164.752 215.895 164.441 216.406 164.194 216.949C163.907 217.485 163.612 218.039 163.325 218.594C162.854 219.518 162.401 220.359 161.948 221.181C161.567 222.193 161.258 223.231 161.024 224.286C160.971 224.532 160.943 224.783 160.941 225.035C160.957 225.246 161.045 225.445 161.19 225.599C161.345 225.753 161.538 225.863 161.749 225.916C161.961 225.97 162.183 225.966 162.392 225.904L162.604 225.857L162.66 226.061C162.749 226.447 162.863 226.826 163.002 227.197C163.097 227.545 163.278 227.863 163.528 228.121C163.587 228.129 163.646 228.129 163.704 228.121L163.963 228.066C164.142 228.023 164.318 227.968 164.49 227.9L164.998 227.678L165.127 227.613L165.386 227.687V227.733C165.431 227.804 165.484 227.869 165.543 227.927C165.779 228.157 166.085 228.3 166.412 228.334C166.571 228.34 166.731 228.318 166.883 228.269C167.026 228.245 167.158 228.177 167.262 228.075C167.581 227.515 167.696 226.862 167.585 226.227V226.07H167.733L171.975 225.072H172.03H172.077C173.724 225.934 175.311 226.906 176.827 227.983C177.353 228.362 177.751 228.676 178.019 228.907C178.161 228.952 178.3 229.008 178.435 229.073Z" fill="#FF9A6C"/>
<path d="M157.753 234.831C157.753 234.831 129.668 226.015 120.843 223.15C105.66 218.224 95.716 223.205 92.5832 228.639C88.517 235.69 98.2666 249.432 102.028 252.593C113.117 261.954 132.247 263.22 132.247 263.22L200.882 263.091L180.847 235.921L157.753 234.831Z" fill="#263238"/>
<path d="M161.948 247.574C150.51 248.887 138.926 247.298 128.264 242.954C126.437 242.128 124.557 241.427 122.636 240.856C120.744 240.375 118.782 240.237 116.841 240.449C116.07 240.469 115.311 240.643 114.608 240.961C113.905 241.278 113.273 241.733 112.748 242.298C111.38 244.146 112.082 246.669 112.84 248.767C113.764 251.271 114.688 253.84 116.407 255.845C118.44 258.183 121.397 259.542 124.364 260.466C130.158 262.314 136.276 262.813 142.347 263.054L163.205 261.917L161.948 247.574Z" fill="#E0E0E0"/>
<path d="M121.675 240.902C121.675 240.902 121.823 241.087 121.998 241.466C122.235 242.002 122.42 242.559 122.553 243.129C122.999 245.04 122.918 247.036 122.319 248.904C121.72 250.772 120.626 252.443 119.152 253.738C118.71 254.126 118.233 254.472 117.729 254.773C117.551 254.894 117.354 254.985 117.146 255.041C117.1 254.977 117.895 254.515 118.939 253.507C120.303 252.203 121.32 250.58 121.897 248.784C122.475 246.988 122.595 245.076 122.248 243.222C121.989 241.725 121.61 240.93 121.675 240.902Z" fill="#263238"/>
<path d="M229.419 233.112C227.792 228.491 227.515 221.699 217.461 218.437C207.406 215.175 199.801 221.431 194.644 223.603C189.487 225.774 161.227 241.263 161.227 241.263C161.227 241.263 155.905 250.744 157.42 254.94C158.936 259.135 165.82 263.257 165.82 263.257H197.407C205.558 263.257 220.723 262.989 220.723 262.989C222.746 259.664 224.561 256.216 226.157 252.666L226.434 251.308C226.434 250.227 231.045 237.733 229.419 233.112Z" fill="#263238"/>
<path d="M211.916 257.111C211.878 257.271 211.798 257.418 211.685 257.537C211.374 257.885 211.024 258.195 210.64 258.461C209.236 259.433 207.741 260.269 206.177 260.956C205.106 261.459 204.004 261.894 202.878 262.259C201.576 262.654 200.244 262.942 198.895 263.118C195.825 263.425 192.738 263.546 189.654 263.479C183.083 263.59 177.132 263.83 172.816 263.784C170.653 263.784 168.907 263.682 167.705 263.553C167.243 263.518 166.783 263.453 166.329 263.359C166.167 263.346 166.008 263.309 165.857 263.248C165.857 263.201 166.513 263.322 167.705 263.386C168.898 263.451 170.653 263.497 172.807 263.469C177.104 263.469 183.055 263.146 189.635 263.035C192.719 263.102 195.805 262.994 198.876 262.712C200.205 262.552 201.519 262.283 202.804 261.908C203.916 261.559 205.009 261.149 206.075 260.679C207.639 260.018 209.145 259.226 210.576 258.313C210.962 258.067 211.321 257.782 211.648 257.463C211.842 257.259 211.888 257.093 211.916 257.111Z" fill="#263238"/>
<path d="M165.82 263.266C165.82 263.266 165.672 263.201 165.395 263.044C165.118 262.887 164.73 262.647 164.222 262.314C162.737 261.345 161.348 260.237 160.072 259.006C159.14 258.118 158.346 257.097 157.716 255.975C157.067 254.57 156.905 252.99 157.254 251.483C158.022 247.882 159.307 244.412 161.07 241.179V241.133H161.116C166.282 238.287 172.206 235.043 178.675 231.559C181.919 229.822 185.301 228.02 188.84 226.208C190.596 225.284 192.371 224.36 194.237 223.547C196.104 222.734 197.86 221.699 199.717 220.775C202.28 219.374 205.027 218.341 207.877 217.706C209.277 217.427 210.702 217.297 212.128 217.318C213.526 217.364 214.914 217.563 216.268 217.91C218.891 218.557 221.353 219.733 223.504 221.366C224.509 222.193 225.395 223.154 226.138 224.222C226.828 225.266 227.399 226.385 227.839 227.558C228.273 228.704 228.596 229.868 228.92 230.986C229.297 232.084 229.606 233.205 229.844 234.341C229.986 236.512 229.805 238.692 229.308 240.81C228.892 242.815 228.384 244.7 227.903 246.456C227.644 247.325 227.395 248.175 227.164 248.988C226.914 249.759 226.705 250.543 226.536 251.335C226.434 251.853 226.341 252.26 226.258 252.694C225.4 255.467 224.179 258.115 222.626 260.568C222.084 261.44 221.445 262.249 220.723 262.979C220.756 262.919 220.796 262.864 220.843 262.813L221.213 262.36C221.688 261.77 222.129 261.153 222.534 260.512C224.034 258.047 225.214 255.401 226.046 252.639C226.563 252.213 226.462 251.788 226.314 251.28C226.468 250.461 226.672 249.653 226.924 248.859L227.644 246.317C228.125 244.562 228.615 242.686 229.003 240.69C229.483 238.61 229.654 236.471 229.511 234.341C229.269 233.227 228.961 232.128 228.587 231.051C228.264 229.923 227.94 228.778 227.497 227.65C227.065 226.507 226.507 225.416 225.833 224.397C225.11 223.361 224.249 222.428 223.273 221.625C221.17 220.029 218.76 218.884 216.195 218.261C213.514 217.558 210.707 217.495 207.998 218.076C205.18 218.696 202.467 219.717 199.939 221.107C198.091 222.031 196.317 223.076 194.394 223.88C192.472 224.684 190.781 225.626 189.025 226.523C185.513 228.325 182.131 230.127 178.86 231.855L161.301 241.41L161.366 241.346C159.596 244.529 158.301 247.953 157.522 251.511C157.17 252.963 157.31 254.49 157.919 255.854C158.53 256.959 159.296 257.97 160.192 258.858C161.453 260.09 162.816 261.212 164.268 262.212L165.414 262.979L165.82 263.266Z" fill="#263238"/>
<path d="M217.23 251.548C217.23 251.548 226.646 252.675 225.805 257.278C224.964 261.88 221.896 263.432 221.896 263.432L196.317 263.488C196.317 263.488 211.592 262.425 217.23 251.548Z" fill="#E0E0E0"/>
<path d="M218.144 249.312C218.143 249.761 218.045 250.206 217.858 250.615C217.504 251.641 216.99 252.605 216.333 253.47C215.443 254.737 214.19 255.704 212.738 256.243C213.923 255.353 215.011 254.34 215.982 253.221C216.814 251.982 217.538 250.675 218.144 249.312Z" fill="#263238"/>
<path d="M214.901 251.123C214.913 252.28 214.592 253.415 213.977 254.395C213.519 255.451 212.815 256.382 211.925 257.111C211.823 257.028 212.757 255.836 213.588 254.2C214.42 252.565 214.753 251.105 214.901 251.123Z" fill="#263238"/>
<path d="M226.914 262.148C226.84 262.148 227.45 260.946 228.19 258.969C230.115 253.8 230.75 248.239 230.038 242.769C229.761 240.68 229.437 239.405 229.511 239.387C229.653 239.663 229.753 239.959 229.807 240.265C230.036 241.072 230.215 241.893 230.343 242.723C231.254 248.241 230.614 253.904 228.494 259.08C228.181 259.862 227.82 260.624 227.413 261.362C227.281 261.644 227.113 261.908 226.914 262.148Z" fill="#455A64"/>
<g opacity="0.3">
<path d="M221.564 249.062C221.49 248.443 221.249 247.713 220.64 247.584C220.03 247.454 219.383 248.295 219.078 248.988C215.834 256.492 205.216 262.333 197.028 263.091C200.983 263.093 204.932 262.784 208.838 262.166C212.17 261.659 215.294 260.231 217.858 258.045C219.126 256.935 220.121 255.546 220.764 253.988C221.406 252.43 221.68 250.744 221.564 249.062Z" fill="black"/>
</g>
<path d="M159.241 238.86C157.683 238.422 156.168 237.847 154.712 237.141C153.201 236.563 151.744 235.852 150.36 235.015C151.919 235.446 153.435 236.022 154.888 236.734C156.399 237.312 157.856 238.023 159.241 238.86Z" fill="#263238"/>
<g opacity="0.2">
<path d="M168.362 234.904C156.182 232.576 143.955 230.506 131.683 228.694L122.543 231.559C125.103 236.318 130.167 239.35 135.426 240.616C140.684 241.882 146.183 241.54 151.57 241.068C157.503 240.523 163.584 239.691 168.759 236.725C169.147 236.494 169.591 236.152 169.545 235.699C169.498 235.246 168.87 235.006 168.362 234.904Z" fill="black"/>
</g>
<path d="M108.386 198.614L123.726 232.566C124.039 233.256 124.541 233.842 125.174 234.256C125.808 234.67 126.546 234.895 127.303 234.905L172.067 235.487L177.704 232.446L168.87 231.799L155.11 198.79C154.897 198.275 154.537 197.835 154.075 197.524C153.613 197.214 153.069 197.046 152.513 197.043L109.624 196.71C109.398 196.709 109.175 196.764 108.976 196.872C108.777 196.979 108.608 197.134 108.485 197.324C108.361 197.513 108.288 197.731 108.27 197.956C108.253 198.182 108.293 198.408 108.386 198.614Z" fill="#E0E0E0"/>
<path d="M108.386 198.614C108.308 198.491 108.261 198.352 108.247 198.207C108.221 198.02 108.235 197.83 108.287 197.648C108.338 197.466 108.428 197.297 108.549 197.152C108.67 197.007 108.819 196.889 108.989 196.804C109.158 196.72 109.343 196.673 109.532 196.664H113.468L131.433 196.72L143.909 196.784H150.886H152.735C153.402 196.835 154.034 197.101 154.537 197.542C155.011 197.999 155.364 198.568 155.562 199.196L156.293 200.943L169.119 231.661L168.907 231.504L177.437 232.132H177.742L178.601 232.197L177.843 232.603L172.197 235.644H172.141H172.077L138.106 235.256L130.528 235.145C129.299 235.145 128.116 235.145 126.887 235.071C126.277 235.004 125.689 234.803 125.166 234.484C124.642 234.165 124.195 233.734 123.856 233.223C121.85 229.018 120.159 225.127 118.57 221.569C115.391 214.472 112.84 208.752 111.056 204.778C110.197 202.81 109.522 201.285 109.051 200.222L108.543 199.039C108.432 198.771 108.386 198.623 108.386 198.623C108.386 198.623 108.46 198.753 108.589 199.021L109.144 200.185C109.624 201.239 110.326 202.754 111.232 204.704C113.08 208.659 115.649 214.361 118.875 221.431C120.501 224.952 122.238 228.907 124.188 233.001C124.498 233.468 124.907 233.861 125.387 234.152C125.866 234.442 126.403 234.624 126.961 234.683C128.107 234.738 129.345 234.683 130.565 234.738L138.143 234.831L172.095 235.246H171.975L177.612 232.206L177.714 232.677H177.409L168.879 232.049H168.694L168.639 231.91L155.858 201.155L155.137 199.409C154.962 198.839 154.644 198.324 154.213 197.912C153.785 197.536 153.247 197.309 152.679 197.265H150.831L143.854 197.2L131.369 197.08L113.413 196.867L110.641 196.821H109.522C109.221 196.835 108.934 196.952 108.709 197.154C108.558 197.29 108.441 197.46 108.365 197.649C108.29 197.838 108.259 198.042 108.275 198.244C108.298 198.371 108.335 198.495 108.386 198.614Z" fill="#263238"/>
<path d="M167.557 235.431C167.47 235.319 167.398 235.194 167.345 235.062L166.846 233.962L164.998 229.896C163.501 226.449 161.467 221.68 159.287 216.385C157.106 211.09 155.165 206.266 153.825 202.763C153.16 201.008 152.633 199.584 152.282 198.586C152.134 198.134 152.004 197.755 151.894 197.44C151.836 197.312 151.802 197.174 151.792 197.034C151.866 197.153 151.928 197.28 151.977 197.413C152.106 197.718 152.263 198.078 152.448 198.531C152.864 199.566 153.428 200.952 154.121 202.643C155.572 206.174 157.521 210.96 159.665 216.219C161.809 221.477 163.806 226.246 165.21 229.776C165.903 231.467 166.467 232.862 166.883 233.897C167.058 234.341 167.197 234.72 167.317 235.025C167.411 235.151 167.492 235.288 167.557 235.431Z" fill="#263238"/>
<path d="M139.778 215.073C139.78 215.509 139.653 215.935 139.412 216.298C139.171 216.661 138.827 216.945 138.425 217.112C138.023 217.28 137.58 217.324 137.152 217.24C136.725 217.155 136.332 216.945 136.024 216.637C135.716 216.329 135.506 215.936 135.421 215.509C135.337 215.081 135.381 214.638 135.549 214.236C135.716 213.834 136 213.49 136.363 213.249C136.726 213.008 137.152 212.881 137.588 212.883C138.169 212.883 138.726 213.113 139.137 213.524C139.548 213.935 139.778 214.492 139.778 215.073Z" fill="white"/>
<path d="M183.37 160.466C183.434 160.466 182.787 161.714 181.882 163.719C180.71 166.341 179.728 169.043 178.943 171.805C178.179 174.572 177.623 177.393 177.28 180.242C177.012 182.433 176.938 183.791 176.854 183.791C176.805 183.486 176.789 183.176 176.808 182.867C176.808 182.248 176.808 181.351 176.938 180.242C177.441 174.461 179.007 168.821 181.558 163.608C182.057 162.61 182.482 161.825 182.806 161.289C182.952 160.988 183.142 160.711 183.37 160.466Z" fill="#263238"/>
<path d="M251.016 184.475C250.857 184.525 250.692 184.55 250.526 184.549L249.094 184.697L243.78 185.14L225.584 186.508H225.353V186.277C225.205 183.856 225.039 181.305 224.872 178.681C224.613 174.115 224.401 169.763 224.327 165.798C224.091 162.237 224.9 158.685 226.656 155.577C227.854 153.492 229.624 151.792 231.757 150.68C232.349 150.386 232.968 150.151 233.605 149.977C233.82 149.907 234.039 149.852 234.261 149.811C234.261 149.876 233.337 150.07 231.886 150.837C229.801 151.989 228.078 153.701 226.914 155.781C225.234 158.849 224.477 162.337 224.734 165.826C224.826 169.781 225.057 174.143 225.316 178.69C225.482 181.314 225.63 183.865 225.787 186.277L225.538 186.064L243.734 184.863L249.066 184.549L250.498 184.493C250.669 184.468 250.843 184.461 251.016 184.475Z" fill="#263238"/>
<path d="M206.39 199.991C206.111 199.933 205.843 199.833 205.595 199.695C205.274 199.576 204.965 199.427 204.671 199.252C204.285 199.045 203.912 198.817 203.553 198.568C202.601 197.92 201.722 197.174 200.928 196.341C199.97 195.31 199.13 194.176 198.424 192.959C197.733 191.729 197.188 190.423 196.797 189.068C196.489 187.964 196.297 186.83 196.224 185.686C196.202 185.245 196.202 184.804 196.224 184.364C196.226 184.033 196.25 183.703 196.298 183.375C196.304 183.088 196.357 182.804 196.455 182.534C196.548 182.534 196.391 183.745 196.585 185.658C196.698 186.773 196.918 187.875 197.241 188.948C197.645 190.258 198.188 191.522 198.858 192.718C199.546 193.904 200.355 195.015 201.27 196.036C202.045 196.865 202.896 197.62 203.811 198.291C205.318 199.427 206.427 199.908 206.39 199.991Z" fill="#263238"/>
<path d="M233.383 134.341L219.66 131.171C219.66 140.856 216.971 144.747 214.697 149.848C212.424 154.949 210.483 160.697 212.119 166.039C212.71 167.979 213.967 169.911 215.889 170.465C217.271 170.777 218.719 170.549 219.937 169.828C222.71 168.349 224.493 165.503 225.694 162.601C226.896 159.699 227.663 156.612 229.077 153.803C230.269 151.419 231.932 149.266 232.819 146.752C233.707 144.238 235.13 137.446 233.383 134.341Z" fill="#263238"/>
</svg>
